<svg width="24" height="24" viewBox="0 0 24 24" fill="none" xmlns="http://www.w3.org/2000/svg">
  <rect width="24" height="24" rx="12" fill="#CA3C32" />
  <path
    d="M11.6916 18.0909V7.18182H12.3904V18.0909H11.6916ZM13.7072 10.6719C13.6674 10.2997 13.4998 10.0099 13.2044 9.80256C12.9118 9.59517 12.5311 9.49148 12.0623 9.49148C11.7328 9.49148 11.4501 9.54119 11.2143 9.64062C10.9785 9.74006 10.7981 9.875 10.6731 10.0455C10.5481 10.2159 10.4842 10.4105 10.4814 10.6293C10.4814 10.8111 10.5225 10.9687 10.6049 11.1023C10.6902 11.2358 10.8052 11.3494 10.9501 11.4432C11.095 11.5341 11.2555 11.6108 11.4316 11.6733C11.6078 11.7358 11.7853 11.7884 11.9643 11.831L12.7825 12.0355C13.112 12.1122 13.4288 12.2159 13.7328 12.3466C14.0396 12.4773 14.3137 12.642 14.5552 12.8409C14.7995 13.0398 14.9927 13.2798 15.1348 13.5611C15.2768 13.8423 15.3478 14.1719 15.3478 14.5497C15.3478 15.0611 15.2172 15.5114 14.9558 15.9006C14.6944 16.2869 14.3166 16.5895 13.8223 16.8082C13.3308 17.0241 12.7356 17.1321 12.0368 17.1321C11.3578 17.1321 10.7683 17.027 10.2683 16.8168C9.77113 16.6065 9.38192 16.2997 9.10067 15.8963C8.82227 15.4929 8.6717 15.0014 8.64897 14.4219H10.2044C10.2271 14.7259 10.3208 14.9787 10.4856 15.1804C10.6504 15.3821 10.8649 15.5327 11.1291 15.6321C11.3961 15.7315 11.6944 15.7812 12.024 15.7812C12.3677 15.7812 12.6689 15.7301 12.9274 15.6278C13.1887 15.5227 13.3933 15.3778 13.541 15.1932C13.6887 15.0057 13.764 14.7869 13.7669 14.5369C13.764 14.3097 13.6973 14.1222 13.5666 13.9744C13.4359 13.8239 13.2527 13.6989 13.0169 13.5994C12.7839 13.4972 12.5112 13.4062 12.1987 13.3267L11.2058 13.071C10.487 12.8864 9.91886 12.6065 9.50124 12.2315C9.08647 11.8537 8.87908 11.3523 8.87908 10.7273C8.87908 10.2131 9.01829 9.76278 9.2967 9.37642C9.57795 8.99006 9.96005 8.69034 10.443 8.47727C10.926 8.26136 11.4728 8.15341 12.0836 8.15341C12.7029 8.15341 13.2456 8.26136 13.7115 8.47727C14.1802 8.69034 14.5481 8.98722 14.8152 9.3679C15.0822 9.74574 15.22 10.1804 15.2285 10.6719H13.7072Z"
    fill="white" />
</svg>
