<svg width="350px" height="350px" viewBox="0 0 350 350" version="1.1" xmlns="http://www.w3.org/2000/svg"
  xmlns:xlink="http://www.w3.org/1999/xlink">
  <defs>
    <linearGradient x1="-0.00608173961%" y1="50.0194699%" x2="169.352228%" y2="50.0194699%"
      id="linearGradient-h0w33syjqd-1">
      <stop stop-color="#5D00FA" offset="0%"></stop>
      <stop stop-color="#E802D7" offset="100%"></stop>
    </linearGradient>
    <linearGradient x1="-69.3453053%" y1="50.0079718%" x2="99.9961176%" y2="50.0079718%"
      id="linearGradient-h0w33syjqd-2">
      <stop stop-color="#5D00FA" offset="0%"></stop>
      <stop stop-color="#E802D7" offset="100%"></stop>
    </linearGradient>
  </defs>
  <g stroke="none" stroke-width="1" fill="none" fill-rule="evenodd">
    <g>
      <circle fill="#000000" cx="175" cy="175" r="175"></circle>
      <g transform="translate(11, 11)" fill-rule="nonzero">
        <path
          d="M39.8255098,56.8044465 C41.8789793,54.2634167 44.0145876,51.8043557 46.1501958,49.3452946 C46.2323346,49.2633259 46.478751,49.1813572 46.5608897,49.0993885 C46.7251673,48.8534824 47.0537224,48.689545 47.3001388,48.4436389 L47.4644163,48.1977328 C48.9429144,46.8042649 50.58569,45.3288282 52.3927431,43.9353603 C58.9638455,39.0172382 65.6992255,35.2466779 72.8452994,32.7056482 C95.8441578,24.6727154 121.389318,29.5908375 141.431181,48.5256076 C169.440505,74.6736235 166.894203,116.887505 144.552454,144.920801 C116.296714,186.724839 67.8348338,245.004586 134.942217,297.218649 C147.016618,306.645049 155.969745,314.350107 194,325.333913 C169.11195,329.924161 146.030952,328.448724 120.403653,321.973196 C102.250983,311.727109 73.6666872,289.841465 63.9743111,260.250764 C49.2714695,215.413884 89.8480268,148.281518 109.397057,122.461377 C136.256438,86.7230226 92.8050229,48.0337954 60.6887599,91.2313012 C44.0967263,113.772694 14.7731818,177.462375 24.9583906,224.758316 C30.8723827,251.562082 38.8398444,271.070633 70.2989972,297.956367 C64.4671438,294.513681 58.799568,290.661152 53.2962697,286.234843 C-19.7251058,218.282789 -11.2648114,113.198913 39.8255098,56.8044465 Z"
          id="Path" fill="url(#linearGradient-h0w33syjqd-1)"></path>
        <path
          d="M288.159129,271.277522 C286.105864,273.818552 283.970469,276.277613 281.835073,278.736674 C281.752942,278.818643 281.506551,278.900611 281.42442,278.98258 C281.260159,279.228486 280.931636,279.392424 280.685245,279.63833 L280.520984,279.884236 C279.042633,281.277704 277.400021,282.75314 275.593148,284.06464 C269.0227,288.982762 262.287991,292.753322 255.142629,295.294352 C232.146062,303.327285 206.603447,298.409162 186.563582,279.474392 C158.557048,253.326377 161.103097,211.112495 183.442619,183.079199 C211.695544,141.275161 260.152596,82.9954144 193.051899,30.7813514 C180.978701,21.3549507 172.026466,13.6498928 134,2.66608673 C158.885571,-1.92416057 181.964268,-0.448723935 207.589014,6.0268035 C225.739876,16.2728912 254.321323,38.1585346 264.012734,67.7492359 C278.71411,112.586116 238.141596,179.718482 218.594514,205.538623 C191.737809,241.276977 235.184894,279.966205 267.297958,236.768699 C284.052599,214.227306 313.373222,150.537625 303.189028,103.241684 C297.275625,76.4379183 289.308957,56.9293673 257.852939,30.0436331 C263.684211,33.4863186 269.351222,37.3388476 274.853972,41.7651574 C347.703811,109.79918 339.24436,214.883055 288.159129,271.277522 Z"
          id="Path" fill="url(#linearGradient-h0w33syjqd-2)"></path>
      </g>
    </g>
  </g>
</svg>