<svg width="24" height="24" viewBox="0 0 24 24" fill="none" xmlns="http://www.w3.org/2000/svg">
  <rect width="24" height="24" rx="12" fill="#407D1D" />
  <path
    d="M15.0309 17H8.87749V15.6747H15.0309V17ZM13.2923 13.5526H8.84766V12.2614H13.2923V13.5526ZM11.2724 10.7997L11.4087 14.4517C11.4258 14.8295 11.3633 15.1562 11.2212 15.4318C11.082 15.7045 10.8363 15.929 10.484 16.1051L9.35902 15.6747C9.49822 15.6548 9.60476 15.5824 9.67862 15.4574C9.75249 15.3324 9.8022 15.1847 9.82777 15.0142C9.85334 14.8409 9.86328 14.6761 9.8576 14.5199L9.72976 10.7997C9.70987 10.223 9.81925 9.73864 10.0579 9.34659C10.2994 8.9517 10.6275 8.65483 11.0423 8.45597C11.457 8.25426 11.9158 8.15341 12.4187 8.15341C12.8505 8.15341 13.2369 8.21875 13.5778 8.34943C13.9215 8.48011 14.2099 8.66193 14.4428 8.89489C14.6786 9.12784 14.8505 9.39773 14.9585 9.70455C15.0692 10.0114 15.1048 10.3423 15.065 10.6974L13.5863 10.5739C13.6062 10.3153 13.5636 10.1037 13.4585 9.93892C13.3562 9.77131 13.2141 9.64915 13.0323 9.57244C12.8533 9.4929 12.6616 9.45312 12.457 9.45312C12.2468 9.45312 12.0508 9.50142 11.869 9.59801C11.69 9.6946 11.5451 9.84233 11.4343 10.0412C11.3263 10.2401 11.2724 10.4929 11.2724 10.7997Z"
    fill="white" />
</svg>
