<svg width="40" height="40" viewBox="0 0 40 40" fill="none" xmlns="http://www.w3.org/2000/svg">
	<g clip-path="url(#clip0_3754_33679)">
		<rect width="40" height="40" rx="20" fill="#CFF248" />
		<path fill-rule="evenodd" clip-rule="evenodd"
			d="M11.3222 4.60536C13.3436 5.61608 14.6811 7.50395 14.9864 9.33544L15.0358 9.6316L14.9138 9.90597C13.9085 12.168 13.4896 12.9702 12.9405 13.8443C12.8068 14.0572 12.6687 14.2694 12.5138 14.5075C12.0543 15.2136 11.4466 16.1475 10.3638 18.0038C10.0527 18.5371 9.5766 19.0908 9.14128 19.5972C9.08792 19.6592 9.03517 19.7206 8.98341 19.7811C8.47591 20.3745 7.99363 20.9614 7.63059 21.5963C7.27309 22.2215 7.0543 22.8552 7.04522 23.532C7.03654 24.1794 7.2185 24.9476 7.78385 25.8674C8.96014 26.9804 12.1285 28.6561 15.8741 26.7005L24.822 16.7584L24.9 16.6999C25.4648 16.2763 26.1828 15.8548 26.964 15.5732C27.7386 15.294 28.644 15.1281 29.5443 15.3064C30.4819 15.4922 31.3267 16.0357 31.9418 17.0071C32.5366 17.9467 32.8922 19.2444 32.998 20.9375L33 20.9687V20.9999C33 21.4351 32.9949 21.8595 32.9898 22.275C32.9783 23.2271 32.9673 24.1323 33.0201 25.0135C33.095 26.2642 33.295 27.3128 33.7344 28.1457C34.1549 28.9426 34.8248 29.6006 35.9795 30.034C37.1685 30.4802 38.8999 30.6969 41.4233 30.5028C41.974 30.4605 42.4547 30.8725 42.4971 31.4232C42.5394 31.9738 42.1274 32.4546 41.5767 32.4969C38.9001 32.7028 36.844 32.4946 35.2768 31.9064C33.6752 31.3054 32.6201 30.3196 31.9655 29.079C31.33 27.8744 31.105 26.4918 31.0237 25.1331C30.9664 24.1766 30.9787 23.1551 30.9905 22.1705C30.9951 21.783 30.9997 21.4013 31 21.0315C30.9036 19.5428 30.5985 18.6243 30.252 18.077C29.9233 17.5578 29.5431 17.3451 29.1557 17.2683C28.731 17.1842 28.2114 17.2495 27.6422 17.4547C27.1118 17.6459 26.5974 17.9378 26.1755 18.2441L17.1289 28.2959L16.9788 28.3778C12.0735 31.0534 7.83537 28.7495 6.29289 27.207L6.21527 27.1294L6.15634 27.0368C5.36873 25.7991 5.03042 24.623 5.0454 23.5052C5.06029 22.3946 5.42275 21.4283 5.89442 20.6035C6.36055 19.7883 6.95536 19.0753 7.46349 18.4812C7.51239 18.424 7.56012 18.3683 7.60666 18.314C8.07548 17.7669 8.42329 17.3611 8.63623 16.996C9.74697 15.0919 10.3904 14.1033 10.8501 13.3968C10.9983 13.1691 11.1274 12.9707 11.247 12.7804C11.6974 12.0634 12.0577 11.3949 12.9551 9.38787C12.6732 8.28716 11.7911 7.07588 10.4278 6.39422C9.00044 5.68054 6.97211 5.51779 4.4789 6.87789C3.99407 7.14238 3.38662 6.96375 3.12214 6.47892C2.85765 5.99408 3.03627 5.38664 3.52111 5.12215C6.52791 3.48188 9.24957 3.56904 11.3222 4.60536Z"
			fill="#EF528E" />
	</g>
	<defs>
		<clipPath id="clip0_3754_33679">
			<rect width="40" height="40" rx="20" fill="white" />
		</clipPath>
	</defs>
</svg>
