<?xml version="1.0" encoding="utf-8"?>
<!-- Generator: Adobe Illustrator 25.0.0, SVG Export Plug-In . SVG Version: 6.00 Build 0)  -->
<svg version="1.1" id="图层_1" xmlns="http://www.w3.org/2000/svg" xmlns:xlink="http://www.w3.org/1999/xlink" x="0px" y="0px"
	 viewBox="0 0 800 800" style="enable-background:new 0 0 800 800;" xml:space="preserve">
<style type="text/css">
	.st0{fill:url(#SVGID_1_);}
	.st1{fill:#FFFFFF;}
</style>
<linearGradient id="SVGID_1_" gradientUnits="userSpaceOnUse" x1="400" y1="796.5" x2="400" y2="-3.5">
	<stop  offset="0" style="stop-color:#18BAFF"/>
	<stop  offset="2.919823e-02" style="stop-color:#17B5FB"/>
	<stop  offset="0.3608" style="stop-color:#0D7BCD"/>
	<stop  offset="0.6448" style="stop-color:#0651AC"/>
	<stop  offset="0.8669" style="stop-color:#023898"/>
	<stop  offset="1" style="stop-color:#002E90"/>
</linearGradient>
<path class="st0" d="M400-3.5L400-3.5c220.9,0,400,179.1,400,400v0c0,220.9-179.1,400-400,400h0c-220.9,0-400-179.1-400-400v0
	C0,175.6,179.1-3.5,400-3.5z"/>
<g>
	<g>
		<path class="st1" d="M166.2,368.1c-3.4,0-6.9-0.9-10.1-2.7c-9.7-5.6-12.9-18-7.3-27.6c20-34.6,58.6-92.6,91.3-92.6
			c25,0,41.1,26.3,58.1,54.2c4.7,7.7,11.2,18.4,16.1,24.7c5.4-6.2,12.7-17.1,18.1-25c18.8-27.8,36.5-54,61.6-54s42,26,59.8,53.5
			c5,7.8,12.7,19.6,18.1,25.9c5.1-6.1,12-17.1,16.9-25.1c16.7-26.7,33.9-54.3,59.9-54.3c34.7,0,71.7,58.3,90.6,93
			c5.3,9.8,1.7,22.1-8.1,27.4s-22.1,1.7-27.4-8.1c-18.4-33.7-43.8-66.7-54.7-71.6c-6.8,4.3-19.2,24.1-26,34.9
			c-15.8,25.3-29.5,47.2-51.1,47.2c-21.5,0-35.7-22-52.2-47.4c-6.8-10.5-19-29.3-25.9-34.3c-7.4,5-20.6,24.6-28,35.5
			C348.4,347.6,334.6,368,314,368c-21.3,0-34.7-22.1-50.3-47.7c-6.3-10.3-17.5-28.8-24.1-34.1c-11.3,6.4-36.7,38.9-55.8,71.7
			C180,364.5,173.2,368.1,166.2,368.1z"/>
	</g>
	<g>
		<path class="st1" d="M166.2,537.2c-3.4,0-6.9-0.9-10.1-2.7c-9.7-5.6-13-18-7.3-27.6c20-34.6,58.6-92.6,91.3-92.6
			c25,0,41.1,26.3,58.1,54.2c4.7,7.7,11.2,18.4,16.1,24.7c5.4-6.2,12.7-17.1,18.1-25c18.8-27.7,36.5-54,61.6-54s42,26,59.8,53.5
			c5,7.8,12.7,19.6,18.1,25.9c5.1-6.1,12-17.1,16.9-25.1c16.7-26.7,33.9-54.3,59.9-54.3c34.7,0,71.7,58.3,90.6,93
			c5.4,9.8,1.7,22.1-8.1,27.4c-9.8,5.4-22.1,1.7-27.4-8.1C585.3,493,559.9,460,549,455c-6.8,4.3-19.2,24.1-26,34.9
			c-15.8,25.3-29.5,47.2-51.1,47.2c-21.5,0-35.7-22-52.2-47.4c-6.8-10.5-19-29.3-25.9-34.3c-7.4,5-20.6,24.6-28,35.5
			c-17.5,25.9-31.3,46.3-51.9,46.3c-21.3,0-34.7-22.1-50.3-47.7c-6.3-10.3-17.5-28.7-24.1-34.1c-11.3,6.4-36.7,38.9-55.7,71.7
			C180,533.5,173.2,537.1,166.2,537.2z"/>
	</g>
	<g>
		<path class="st1" d="M319.7,97.5c0,3-2.4,5.4-5.4,5.4s-5.4-2.4-5.4-5.4s2.4-5.4,5.4-5.4S319.7,94.6,319.7,97.5z"/>
		<circle class="st1" cx="103.4" cy="265.9" r="5.4"/>
		<path class="st1" d="M261.1,372.4c0,3-2.4,5.4-5.4,5.4s-5.4-2.4-5.4-5.4s2.4-5.4,5.4-5.4S261.1,369.4,261.1,372.4z"/>
		<path class="st1" d="M463,418c0,3-2.4,5.4-5.4,5.4s-5.4-2.4-5.4-5.4s2.4-5.4,5.4-5.4S463,415,463,418z"/>
		<path class="st1" d="M695.2,273.4c0,3-2.4,5.4-5.4,5.4s-5.4-2.4-5.4-5.4s2.4-5.4,5.4-5.4C692.8,268.1,695.2,270.5,695.2,273.4z"/>
		<path class="st1" d="M524.6,697.8c0,3-2.4,5.4-5.4,5.4s-5.4-2.4-5.4-5.4s2.4-5.4,5.4-5.4C522.2,692.4,524.6,694.9,524.6,697.8z"/>
		<circle class="st1" cx="520.5" cy="557.4" r="5.4"/>
		<path class="st1" d="M482.4,166.8c0,3-2.4,5.4-5.4,5.4s-5.4-2.4-5.4-5.4s2.4-5.4,5.4-5.4S482.4,163.9,482.4,166.8z"/>
		<circle class="st1" cx="669.5" cy="592.3" r="5.4"/>
		<circle class="st1" cx="290.7" cy="690.9" r="5.4"/>
		<path class="st1" d="M151.4,614.5c0,3-2.4,5.4-5.4,5.4s-5.4-2.4-5.4-5.4s2.4-5.4,5.4-5.4S151.4,611.6,151.4,614.5z"/>
		<path class="st1" d="M312.7,235.3c0,2.1-1.7,3.8-3.8,3.8c-2.1,0-3.8-1.7-3.8-3.8s1.7-3.8,3.8-3.8
			C311,231.6,312.7,233.2,312.7,235.3z"/>
		<path class="st1" d="M166.2,118.1c0,2.1-1.7,3.8-3.8,3.8s-3.8-1.7-3.8-3.8c0-2.1,1.7-3.8,3.8-3.8S166.2,116,166.2,118.1z"/>
		<path class="st1" d="M570.4,213.5c0,2.1-1.7,3.8-3.8,3.8s-3.8-1.7-3.8-3.8s1.7-3.8,3.8-3.8S570.4,211.4,570.4,213.5z"/>
		<path class="st1" d="M610.8,104.6c0,2.1-1.7,3.8-3.8,3.8s-3.8-1.7-3.8-3.8c0-2.1,1.7-3.8,3.8-3.8
			C609.2,100.8,610.8,102.5,610.8,104.6z"/>
		<path class="st1" d="M382.9,645c0,2.1-1.7,3.8-3.8,3.8c-2.1,0-3.8-1.7-3.8-3.8s1.7-3.8,3.8-3.8C381.2,641.3,382.9,643,382.9,645z"
			/>
		<path class="st1" d="M165,443.8c0,2.1-1.7,3.8-3.8,3.8s-3.8-1.7-3.8-3.8c0-2.1,1.7-3.8,3.8-3.8C163.3,440.1,165,441.8,165,443.8z"
			/>
		<path class="st1" d="M651.1,454.6c0,2.1-1.7,3.8-3.8,3.8s-3.8-1.7-3.8-3.8c0-2.1,1.7-3.8,3.8-3.8
			C649.5,450.9,651.1,452.6,651.1,454.6z"/>
		<path class="st1" d="M422.4,537.2c0,2.1-1.7,3.8-3.8,3.8s-3.8-1.7-3.8-3.8s1.7-3.8,3.8-3.8S422.4,535.1,422.4,537.2z"/>
		<path class="st1" d="M404.1,339.4c0,2.1-1.7,3.8-3.8,3.8c-2.1,0-3.8-1.7-3.8-3.8s1.7-3.8,3.8-3.8S404.1,337.3,404.1,339.4z"/>
		<path class="st1" d="M498.1,589.8c0,2.1-1.7,3.8-3.8,3.8s-3.8-1.7-3.8-3.8s1.7-3.8,3.8-3.8S498.1,587.7,498.1,589.8z"/>
		<path class="st1" d="M183.1,193.1c0,1.4-1.1,2.5-2.5,2.5s-2.5-1.1-2.5-2.5s1.1-2.5,2.5-2.5C182,190.7,183.1,191.8,183.1,193.1z"/>
		<path class="st1" d="M377.8,132c0,1.4-1.1,2.5-2.5,2.5s-2.5-1.1-2.5-2.5s1.1-2.5,2.5-2.5C376.7,129.6,377.8,130.7,377.8,132z"/>
		<path class="st1" d="M438,226c0,1.4-1.1,2.5-2.5,2.5s-2.5-1.1-2.5-2.5s1.1-2.5,2.5-2.5S438,224.6,438,226z"/>
		<circle class="st1" cx="669.5" cy="169.3" r="2.5"/>
		<circle class="st1" cx="715" cy="374.9" r="2.5"/>
		<path class="st1" d="M677.3,499.5c0,1.4-1.1,2.5-2.5,2.5s-2.5-1.1-2.5-2.5s1.1-2.5,2.5-2.5S677.3,498.1,677.3,499.5z"/>
		<path class="st1" d="M545.2,576.2c0,1.4-1.1,2.5-2.5,2.5s-2.5-1.1-2.5-2.5s1.1-2.5,2.5-2.5C544.1,573.8,545.2,574.9,545.2,576.2z"
			/>
		<path class="st1" d="M653.6,619.9c0,1.4-1.1,2.5-2.5,2.5s-2.5-1.1-2.5-2.5s1.1-2.5,2.5-2.5S653.6,618.5,653.6,619.9z"/>
		<path class="st1" d="M362.4,663.4c0,1.4-1.1,2.5-2.5,2.5s-2.5-1.1-2.5-2.5s1.1-2.5,2.5-2.5S362.4,662,362.4,663.4z"/>
		<path class="st1" d="M311.4,573.8c0,1.4-1.1,2.5-2.5,2.5s-2.5-1.1-2.5-2.5s1.1-2.5,2.5-2.5S311.4,572.4,311.4,573.8z"/>
		<path class="st1" d="M237,652.6c0,1.4-1.1,2.5-2.5,2.5s-2.5-1.1-2.5-2.5s1.1-2.5,2.5-2.5C235.9,650.2,237,651.3,237,652.6z"/>
		<path class="st1" d="M460.1,676.3c0,1.4-1.1,2.5-2.5,2.5s-2.5-1.1-2.5-2.5s1.1-2.5,2.5-2.5S460.1,674.9,460.1,676.3z"/>
		<path class="st1" d="M477,432.4c0,1.4-1.1,2.5-2.5,2.5s-2.5-1.1-2.5-2.5s1.1-2.5,2.5-2.5S477,431,477,432.4z"/>
		<path class="st1" d="M330.3,421.7c0,1.4-1.1,2.5-2.5,2.5s-2.5-1.1-2.5-2.5s1.1-2.5,2.5-2.5S330.3,420.4,330.3,421.7z"/>
		<path class="st1" d="M375.4,357.6c0,1.4-1.1,2.5-2.5,2.5s-2.5-1.1-2.5-2.5s1.1-2.5,2.5-2.5C374.3,355.2,375.4,356.3,375.4,357.6z"
			/>
		<path class="st1" d="M564.8,335.6c0,1.4-1.1,2.5-2.5,2.5s-2.5-1.1-2.5-2.5s1.1-2.5,2.5-2.5S564.8,334.2,564.8,335.6z"/>
		<path class="st1" d="M223.2,350.1c0,1.4-1.1,2.5-2.5,2.5s-2.5-1.1-2.5-2.5s1.1-2.5,2.5-2.5S223.2,348.8,223.2,350.1z"/>
		<path class="st1" d="M111.2,409.4c0,1.4-1.1,2.5-2.5,2.5s-2.5-1.1-2.5-2.5s1.1-2.5,2.5-2.5C110.1,407,111.2,408.1,111.2,409.4z"/>
		<path class="st1" d="M119.5,562.8c0,1.4-1.1,2.5-2.5,2.5s-2.5-1.1-2.5-2.5s1.1-2.5,2.5-2.5S119.5,561.5,119.5,562.8z"/>
		<path class="st1" d="M87.4,306.6c0,1.4-1.1,2.5-2.5,2.5s-2.5-1.1-2.5-2.5s1.1-2.5,2.5-2.5S87.4,305.2,87.4,306.6z"/>
		<path class="st1" d="M479.5,92.2c0,1.4-1.1,2.5-2.5,2.5s-2.5-1.1-2.5-2.5s1.1-2.5,2.5-2.5S479.5,90.8,479.5,92.2z"/>
		<path class="st1" d="M527.1,162.4c0,1.4-1.1,2.5-2.5,2.5s-2.5-1.1-2.5-2.5s1.1-2.5,2.5-2.5C526,160,527.1,161.1,527.1,162.4z"/>
		<path class="st1" d="M490.9,251.3c0,1.4-1.1,2.5-2.5,2.5s-2.5-1.1-2.5-2.5s1.1-2.5,2.5-2.5S490.9,250,490.9,251.3z"/>
		<path class="st1" d="M605.8,675.2c0,1.4-1.1,2.5-2.5,2.5s-2.5-1.1-2.5-2.5s1.1-2.5,2.5-2.5S605.8,673.8,605.8,675.2z"/>
		<path class="st1" d="M201.3,669.8c0,1.4-1.1,2.5-2.5,2.5s-2.5-1.1-2.5-2.5s1.1-2.5,2.5-2.5S201.3,668.4,201.3,669.8z"/>
		<path class="st1" d="M239.5,505.5c0,1.4-1.1,2.5-2.5,2.5s-2.5-1.1-2.5-2.5s1.1-2.5,2.5-2.5C238.4,503.1,239.5,504.2,239.5,505.5z"
			/>
		<circle class="st1" cx="280.9" cy="191.4" r="9.8"/>
		<circle class="st1" cx="210.9" cy="576.2" r="9.8"/>
		<circle class="st1" cx="566.7" cy="664.4" r="9.8"/>
		<ellipse transform="matrix(0.7071 -0.7071 0.7071 0.7071 55.8708 398.8675)" class="st1" cx="509.4" cy="132" rx="9.8" ry="9.8"/>
		<path class="st1" d="M234.3,152.4l-15.1-6.8l-5.8-14.9c-0.1-0.2-0.3-0.3-0.5-0.3s-0.4,0.1-0.5,0.3l-6.4,15l-15.3,5.9
			c-0.2,0.1-0.3,0.3-0.3,0.5s0.1,0.4,0.3,0.5l15.6,6.4l5.2,15.3c0.1,0.2,0.3,0.3,0.5,0.3l0,0c0.2,0,0.4-0.1,0.5-0.3l6-14.1l15.7-6.8
			c0.2-0.1,0.3-0.3,0.3-0.5C234.6,152.7,234.4,152.5,234.3,152.4z"/>
		<path class="st1" d="M669.2,225.9l-15.1-6.8l-5.8-14.9c-0.1-0.2-0.3-0.3-0.5-0.3s-0.4,0.1-0.5,0.3l-6.4,15l-15.3,5.9
			c-0.2,0.1-0.3,0.3-0.3,0.5s0.1,0.4,0.3,0.5l15.6,6.4l5.2,15.3c0.1,0.2,0.3,0.3,0.5,0.3l0,0c0.2,0,0.4-0.1,0.5-0.3l6-14.1l15.7-6.8
			c0.2-0.1,0.3-0.3,0.3-0.5C669.5,226.2,669.4,226,669.2,225.9z"/>
		<path class="st1" d="M364.8,609.4l-15.1-6.8l-5.8-14.9c-0.1-0.2-0.3-0.3-0.5-0.3s-0.4,0.1-0.5,0.3l-6.4,15l-15.3,5.9
			c-0.2,0.1-0.3,0.3-0.3,0.5s0.1,0.4,0.3,0.5l15.6,6.4l5.2,15.3c0.1,0.2,0.3,0.3,0.5,0.3l0,0c0.2,0,0.4-0.1,0.5-0.3l6-14.1l15.7-6.8
			c0.2-0.1,0.3-0.3,0.3-0.5C365.1,609.6,364.9,609.4,364.8,609.4z"/>
	</g>
</g>
</svg>
