<svg xmlns="http://www.w3.org/2000/svg" width="701.88" height="140.32" viewBox="0 0 701.88 140.32">
  <g id="logo" transform="translate(41.509 -145.193)">
    <g id="symbol" transform="translate(-219 92)">
      <path id="Path_153" data-name="Path 153" d="M266.978,128.665l10.305-17.485,27.776,43.262.013,8.3-.091-57.131a4.3,4.3,0,0,0-1.99-3.428L252.984,73.42a4.408,4.408,0,0,0-3.821.018,4.352,4.352,0,0,0-.448.259l-.174.11L200,101.935l-.189.085a4.417,4.417,0,0,0-.717.418,4.29,4.29,0,0,0-1.729,2.731,4.419,4.419,0,0,0-.062.505l.076,46.556,25.872-40.1c3.257-5.317,10.354-7.03,16.942-6.937l7.732.2-45.56,73.064,5.371,3.092,46.106-76.083,20.379-.074-45.987,78L247.4,194.422l2.29,1.317a4.4,4.4,0,0,0,3.087.061l50.71-29.387-9.7,5.618Zm3.932,56.627-19.356-30.379,11.815-20.049,25.42,40.066Z" transform="translate(-11.186 -11.178)" fill="#2d374b"/>
      <path id="Path_154" data-name="Path 154" d="M321.883,235.122,341.239,265.5l17.88-10.362L333.7,215.073Z" transform="translate(-81.515 -91.387)" fill="#28a0f0"/>
      <path id="Path_155" data-name="Path 155" d="M395.4,212.248l-.013-8.3-27.776-43.262L357.3,178.169l26.814,43.366,9.7-5.618a4.3,4.3,0,0,0,1.587-3.129Z" transform="translate(-101.511 -60.683)" fill="#28a0f0"/>
      <path id="Path_156" data-name="Path 156" d="M177.491,212.312l13.691,7.889,45.56-73.064-7.732-.2c-6.588-.093-13.685,1.619-16.942,6.937l-25.872,40.1-8.7,13.373v4.969Z" transform="translate(0 -52.917)" fill="#fff"/>
      <path id="Path_157" data-name="Path 157" d="M287.75,147.406l-20.378.074-46.106,76.083,16.115,9.279,4.382-7.433Z" transform="translate(-24.713 -53.187)" fill="#fff"/>
      <path id="Path_158" data-name="Path 158" d="M302.474,94.114a12.98,12.98,0,0,0-6.093-10.435L245.719,54.545a13.178,13.178,0,0,0-11.624,0c-.423.213-49.268,28.542-49.268,28.542a13.016,13.016,0,0,0-1.94,1.148,12.881,12.881,0,0,0-5.4,9.854v60.338l8.7-13.373L186.12,94.5a4.325,4.325,0,0,1,1.791-3.236c.23-.165,49.909-28.921,50.067-29a4.408,4.408,0,0,1,3.821-.018l50.007,28.765a4.3,4.3,0,0,1,1.99,3.428v57.672a4.2,4.2,0,0,1-1.495,3.129l-9.7,5.618-5,2.9-17.88,10.362-18.133,10.509a4.395,4.395,0,0,1-3.087-.061l-21.453-12.339-4.382,7.432,19.28,11.1c.638.362,1.206.684,1.672.946.722.4,1.214.675,1.387.759a12.528,12.528,0,0,0,5.118,1.053,12.89,12.89,0,0,0,4.72-.888l52.667-30.5a12.876,12.876,0,0,0,4.962-9.7Z" transform="translate(-0.001)" fill="#96bedc"/>
    </g>
    <g id="text" transform="translate(-168.509 -133.807)">
      <path id="Path_167" data-name="Path 167" d="M28.56-39.2a6.888,6.888,0,0,1,3.584.868A8.838,8.838,0,0,1,35-34.944L53.536-1.288a1.16,1.16,0,0,1,.14.924Q53.536,0,52.864,0H45.752a1.282,1.282,0,0,1-1.288-.728L40.488-7.952H14.168L10.3-.728A1.351,1.351,0,0,1,9.016,0H1.736Q1.008,0,.868-.364a1.16,1.16,0,0,1,.14-.924L19.376-34.944a9.452,9.452,0,0,1,2.744-3.388,5.652,5.652,0,0,1,3.136-.868ZM17.7-14.448H36.96l-8.9-16.408a.685.685,0,0,0-.616-.392H27.1a.685.685,0,0,0-.616.392ZM112.448-39.2q6.44,0,9.24,2.912t2.8,8.624v3.192a13.075,13.075,0,0,1-1.96,7.616q-1.96,2.8-6.384,3.584L125.72-1.4a.88.88,0,0,1,.168.84q-.112.56-.9.56h-7.224a2.124,2.124,0,0,1-1.008-.168,1.98,1.98,0,0,1-.56-.56l-8.848-11.648H89.264V-1.232A1.089,1.089,0,0,1,88.032,0H81.984Q80.7,0,80.7-1.232V-37.52a1.485,1.485,0,0,1,1.68-1.68ZM89.264-19.208h21.448q2.856,0,4.032-1.232a5.257,5.257,0,0,0,1.176-3.752v-2.352a5.257,5.257,0,0,0-1.176-3.752q-1.176-1.232-4.032-1.232H89.992q-.728,0-.728.672ZM187.712-39.2q5.768,0,8.2,2.3t2.436,6.944v2.688a8.015,8.015,0,0,1-3.584,7.112q3.864,2.24,3.864,7.224v3.248a14.894,14.894,0,0,1-.5,4.032A7.446,7.446,0,0,1,196.476-2.6a7.338,7.338,0,0,1-3.052,1.932,14.257,14.257,0,0,1-4.7.672H155.456a1.485,1.485,0,0,1-1.68-1.68V-37.52a1.485,1.485,0,0,1,1.68-1.68ZM162.344-16.8v8.344a.643.643,0,0,0,.728.728h22.96a4.932,4.932,0,0,0,3.192-.812,3.245,3.245,0,0,0,.952-2.6v-2.128A3.29,3.29,0,0,0,189.14-15.9q-1.036-.9-3.836-.9Zm0-6.1H185.3q2.8,0,3.808-.84a3.024,3.024,0,0,0,1.008-2.464v-1.9a3.122,3.122,0,0,0-.98-2.548,4.948,4.948,0,0,0-3.164-.812h-22.9a.643.643,0,0,0-.728.728Zm72.632-16.3a1.089,1.089,0,0,1,1.232,1.232V-1.232A1.089,1.089,0,0,1,234.976,0h-6.048q-1.288,0-1.288-1.232V-37.968q0-1.232,1.288-1.232Zm70,0a1.089,1.089,0,0,1,1.232,1.232v5.32a1.089,1.089,0,0,1-1.232,1.232H276.92a2.781,2.781,0,0,0-2.3.84,3.577,3.577,0,0,0-.672,2.3v1.9q0,3.136,2.912,3.136h21q4.872,0,7.336,2.492t2.464,7.14v4.48a9.168,9.168,0,0,1-2.408,6.608Q302.848,0,297.752,0H266.728q-1.288,0-1.288-1.232v-5.32q0-1.232,1.288-1.232h29.4a2.781,2.781,0,0,0,2.3-.84,3.577,3.577,0,0,0,.672-2.3v-2.3q0-3.136-2.912-3.136h-21q-4.872,0-7.336-2.492t-2.464-7.14v-4.088a9.168,9.168,0,0,1,2.408-6.608q2.408-2.52,7.5-2.52Zm71.96,0a1.089,1.089,0,0,1,1.232,1.232v5.488q0,1.288-1.232,1.288h-24.92a14.955,14.955,0,0,0-3.612.364,4.681,4.681,0,0,0-2.268,1.232,5.013,5.013,0,0,0-1.2,2.324,15.606,15.606,0,0,0-.364,3.7v7.952a15.972,15.972,0,0,0,.364,3.724,5.025,5.025,0,0,0,1.2,2.352A4.681,4.681,0,0,0,348.4-8.316a14.955,14.955,0,0,0,3.612.364h24.92a1.089,1.089,0,0,1,1.232,1.232v5.488A1.089,1.089,0,0,1,376.936,0H351.68a28.668,28.668,0,0,1-7.224-.784,11.037,11.037,0,0,1-4.844-2.548,10.3,10.3,0,0,1-2.744-4.592,23.6,23.6,0,0,1-.868-6.86v-9.632a23.309,23.309,0,0,1,.868-6.832,10.308,10.308,0,0,1,2.744-4.564,11.267,11.267,0,0,1,4.844-2.576,27.725,27.725,0,0,1,7.224-.812Zm54.488,0a6.888,6.888,0,0,1,3.584.868,8.838,8.838,0,0,1,2.856,3.388L456.4-1.288a1.16,1.16,0,0,1,.14.924Q456.4,0,455.728,0h-7.112a1.282,1.282,0,0,1-1.288-.728l-3.976-7.224h-26.32L413.168-.728A1.351,1.351,0,0,1,411.88,0H404.6q-.728,0-.868-.364a1.16,1.16,0,0,1,.14-.924L422.24-34.944a9.452,9.452,0,0,1,2.744-3.388,5.652,5.652,0,0,1,3.136-.868ZM420.56-14.448h19.264l-8.9-16.408a.685.685,0,0,0-.616-.392h-.336a.685.685,0,0,0-.616.392ZM493.528-39.2a18.571,18.571,0,0,1,2.24.112,4.415,4.415,0,0,1,1.568.476,5.269,5.269,0,0,1,1.288,1.008,17.735,17.735,0,0,1,1.4,1.708L520.856-8.568a.774.774,0,0,0,.728.392h.5q.448,0,.448-.56V-37.968a1.089,1.089,0,0,1,1.232-1.232h5.88a1.089,1.089,0,0,1,1.232,1.232V-5.824q0,3.416-1.232,4.62A5.266,5.266,0,0,1,525.84,0h-4.816a17.3,17.3,0,0,1-2.156-.112,4.793,4.793,0,0,1-1.54-.448,5.126,5.126,0,0,1-1.316-.98A16.812,16.812,0,0,1,514.528-3.3L493.64-30.632a.96.96,0,0,0-.728-.392h-.5q-.448,0-.448.56V-1.232A1.089,1.089,0,0,1,490.728,0h-5.88q-1.288,0-1.288-1.232V-33.376q0-3.416,1.232-4.62a5.266,5.266,0,0,1,3.808-1.2Z" transform="translate(298 370)" fill="#2d374b"/>
    </g>
  </g>
</svg>