<?xml version="1.0" encoding="utf-8"?>
<!-- Generator: Adobe Illustrator 25.0.0, SVG Export Plug-In . SVG Version: 6.00 Build 0)  -->
<svg version="1.1" id="图层_1" xmlns="http://www.w3.org/2000/svg" xmlns:xlink="http://www.w3.org/1999/xlink" x="0px" y="0px"
	 viewBox="0 0 800 800" style="enable-background:new 0 0 800 800;" xml:space="preserve">
<style type="text/css">
	.st0{clip-path:url(#SVGID_2_);fill:url(#SVGID_3_);}
	.st1{fill:#FFFFFF;}
</style>
<g>
	<g>
		<defs>
			<rect id="SVGID_1_" width="800" height="800"/>
		</defs>
		<clipPath id="SVGID_2_">
			<use xlink:href="#SVGID_1_"  style="overflow:visible;"/>
		</clipPath>
		
			<linearGradient id="SVGID_3_" gradientUnits="userSpaceOnUse" x1="400" y1="1266.6541" x2="400" y2="153.455" gradientTransform="matrix(1 0 0 -1 0 800)">
			<stop  offset="0" style="stop-color:#130087"/>
			<stop  offset="1" style="stop-color:#AB82D6"/>
		</linearGradient>
		<path class="st0" d="M613.7,908.4H186.3c-138.9,0-251.5-121.7-251.5-271.8V174.8C-65.2,24.7,47.4-97,186.3-97h427.4
			c138.9,0,251.5,121.7,251.5,271.8v461.8C865.2,786.7,752.6,908.4,613.7,908.4z"/>
	</g>
</g>
<g>
	<path class="st1" d="M606.6,194.2c-28.3-20.2-67.1-23.8-101.1-9.5c-50.8,21.4-82.2,69-96.1,145.6c-4.5,24.9-8.5,49.9-12.1,75
		c-3.7-25.2-7.9-50.4-12.5-75.3c-14.3-76.5-45.9-124.2-96.7-145.9C254,169.5,215.3,173,187,193c-31.3,22.2-46.8,63.3-37.5,99.9
		c10.3,40.6,50.8,67.9,88.6,59.7c10.8-2.3,17.7-13,15.4-23.9c-2.3-10.8-13-17.8-23.9-15.4c-16.5,3.5-36.2-10.9-41.1-30.3
		c-5.1-20.2,4.3-44.8,21.8-57.3c16.9-12,40.7-13.9,62-4.8c38,16.2,61.2,53.2,73,116.4c17.3,92.8,28.1,187.7,32.1,282
		c0.4,10.8,9.3,19.3,20.1,19.3c0.1,0,0.3,0,0.4,0c0.2,0,0.4,0,0.6,0c10.8,0,19.7-8.5,20.1-19.4c3.4-94.4,13.6-189.2,30.5-281.8
		c11.4-63,34.4-99.8,72.2-115.7c21.2-9,45-7,62.1,5.2c17.7,12.6,27.3,37.4,22.3,57.6c-4.8,19.3-24.2,33.5-40.7,29.9
		c-10.8-2.4-21.6,4.4-24,15.3c-2.4,10.8,4.4,21.6,15.3,24c37.9,8.4,78.4-18.8,88.4-59.4C653.6,257.6,637.9,216.5,606.6,194.2z"/>
	<g>
		<path class="st1" d="M285,126.2l-15-6.7l-5.8-14.8c-0.1-0.2-0.3-0.3-0.5-0.3s-0.4,0.1-0.5,0.3l-6.4,14.9l-15.2,5.9
			c-0.2,0.1-0.3,0.3-0.3,0.5s0.1,0.4,0.3,0.5l15.5,6.3l5.2,15.2c0.1,0.2,0.3,0.3,0.5,0.3l0,0c0.2,0,0.4-0.1,0.5-0.3l6-14l15.6-6.8
			c0.2-0.1,0.3-0.3,0.3-0.5C285.3,126.4,285.2,126.2,285,126.2z"/>
		<path class="st1" d="M539.6,465.7l-15-6.7l-5.8-14.8c-0.1-0.2-0.3-0.3-0.5-0.3s-0.4,0.1-0.5,0.3l-6.4,14.9l-15.2,5.9
			c-0.2,0.1-0.3,0.3-0.3,0.5s0.1,0.4,0.3,0.5l15.5,6.3l5.2,15.2c0.1,0.2,0.3,0.3,0.5,0.3l0,0c0.2,0,0.4-0.1,0.5-0.3l6-14l15.6-6.8
			c0.2-0.1,0.3-0.3,0.3-0.5C539.9,466,539.8,465.8,539.6,465.7z"/>
		<path class="st1" d="M260,610.6l-15-6.7l-5.8-14.8c-0.1-0.2-0.3-0.3-0.5-0.3s-0.4,0.1-0.5,0.3l-6.4,14.9l-15.2,5.9
			c-0.2,0.1-0.3,0.3-0.3,0.5s0.1,0.4,0.3,0.5l15.5,6.3l5.2,15.2c0.1,0.2,0.3,0.3,0.5,0.3l0,0c0.2,0,0.4-0.1,0.5-0.3l6-14l15.6-6.8
			c0.2-0.1,0.3-0.3,0.3-0.5C260.3,610.8,260.2,610.6,260,610.6z"/>
		<path class="st1" d="M507.2,708.4c0-3,2.4-5.3,5.4-5.3c3,0,5.3,2.4,5.3,5.4s-2.4,5.3-5.4,5.3C509.6,713.8,507.2,711.4,507.2,708.4
			z"/>
		<path class="st1" d="M654.3,547.1c0-3,2.4-5.3,5.4-5.3s5.3,2.4,5.3,5.4s-2.4,5.3-5.4,5.3C656.7,552.5,654.3,550.1,654.3,547.1z"/>
		<path class="st1" d="M582.2,623.7c0-3,2.4-5.3,5.4-5.3s5.3,2.4,5.3,5.4s-2.4,5.3-5.4,5.3C584.6,629.1,582.2,626.7,582.2,623.7z"/>
		<path class="st1" d="M543.7,415.3c0-3,2.4-5.3,5.4-5.3s5.3,2.4,5.3,5.4s-2.4,5.3-5.4,5.3C546.1,420.7,543.7,418.3,543.7,415.3z"/>
		<path class="st1" d="M306.4,389.6c0-3,2.4-5.3,5.4-5.3s5.3,2.4,5.3,5.4s-2.4,5.3-5.4,5.3C308.8,394.9,306.4,392.5,306.4,389.6z"/>
		<path class="st1" d="M121.9,220.5c0-3,2.4-5.3,5.4-5.3s5.3,2.4,5.3,5.4s-2.4,5.3-5.4,5.3C124.2,225.8,121.9,223.4,121.9,220.5z"/>
		<path class="st1" d="M103.6,529.6c0-3,2.4-5.3,5.4-5.3s5.3,2.4,5.3,5.4s-2.4,5.3-5.4,5.3C105.9,534.9,103.5,532.5,103.6,529.6z"/>
		<path class="st1" d="M289.6,79.7c0-3,2.4-5.3,5.4-5.3s5.3,2.4,5.3,5.4s-2.4,5.3-5.4,5.3C292,85.1,289.6,82.7,289.6,79.7z"/>
		<path class="st1" d="M302.5,498.7c0-3,2.4-5.3,5.4-5.3s5.3,2.4,5.3,5.4s-2.4,5.3-5.4,5.3C304.9,504.1,302.5,501.7,302.5,498.7z"/>
		<path class="st1" d="M314.6,636.3c0-3,2.4-5.3,5.4-5.3s5.3,2.4,5.3,5.4s-2.4,5.3-5.4,5.3C317,641.7,314.6,639.3,314.6,636.3z"/>
		<path class="st1" d="M216.9,290.4c0-3,2.4-5.3,5.4-5.3s5.3,2.4,5.3,5.4s-2.4,5.3-5.4,5.3S216.9,293.4,216.9,290.4z"/>
		<path class="st1" d="M501.9,85.1c0-3,2.4-5.3,5.4-5.3s5.3,2.4,5.3,5.4s-2.4,5.3-5.4,5.3C504.2,90.4,501.9,88,501.9,85.1z"/>
		<path class="st1" d="M686.2,220.5c0-3,2.4-5.3,5.4-5.3s5.3,2.4,5.3,5.4s-2.4,5.3-5.4,5.3C688.6,225.8,686.2,223.4,686.2,220.5z"/>
		<path class="st1" d="M483.6,569c0-2.1,1.7-3.7,3.7-3.7c2.1,0,3.7,1.7,3.7,3.7c0,2.1-1.7,3.7-3.7,3.7
			C485.2,572.7,483.5,571,483.6,569z"/>
		<path class="st1" d="M628.7,686c0-2.1,1.7-3.7,3.7-3.7c2.1,0,3.7,1.7,3.7,3.7c0,2.1-1.7,3.7-3.7,3.7
			C630.3,689.7,628.7,688.1,628.7,686z"/>
		<path class="st1" d="M337.5,703.1c0-2.1,1.7-3.7,3.7-3.7c2.1,0,3.7,1.7,3.7,3.7c0,2.1-1.7,3.7-3.7,3.7S337.5,705.1,337.5,703.1z"
			/>
		<path class="st1" d="M137.2,607.9c0-2.1,1.7-3.7,3.7-3.7c2.1,0,3.7,1.7,3.7,3.7c0,2.1-1.7,3.7-3.7,3.7
			C138.9,611.6,137.2,609.9,137.2,607.9z"/>
		<path class="st1" d="M194.2,685.2c0-2.1,1.7-3.7,3.7-3.7c2.1,0,3.7,1.7,3.7,3.7c0,2.1-1.7,3.7-3.7,3.7
			C195.8,689,194.2,687.3,194.2,685.2z"/>
		<path class="st1" d="M415.4,130.3c0-2.1,1.7-3.7,3.7-3.7c2.1,0,3.7,1.7,3.7,3.7c0,2.1-1.7,3.7-3.7,3.7S415.4,132.4,415.4,130.3z"
			/>
		<path class="st1" d="M650.6,421c0-2.1,1.7-3.7,3.7-3.7c2.1,0,3.7,1.7,3.7,3.7c0,2.1-1.7,3.7-3.7,3.7
			C652.2,424.7,650.6,423.1,650.6,421z"/>
		<path class="st1" d="M710,312c0-2.1,1.7-3.7,3.7-3.7c2.1,0,3.7,1.7,3.7,3.7c0,2.1-1.7,3.7-3.7,3.7S710,314.1,710,312z"/>
		<path class="st1" d="M151.2,469.5c0-2.1,1.7-3.7,3.7-3.7c2.1,0,3.7,1.7,3.7,3.7c0,2.1-1.7,3.7-3.7,3.7S151.2,471.5,151.2,469.5z"
			/>
		<path class="st1" d="M463,167.8c0-2.1,1.7-3.7,3.7-3.7c2.1,0,3.7,1.7,3.7,3.7c0,2.1-1.7,3.7-3.7,3.7S463,169.9,463,167.8z"/>
		<path class="st1" d="M536.2,264.2c0-2.1,1.7-3.7,3.7-3.7c2.1,0,3.7,1.7,3.7,3.7s-1.7,3.7-3.7,3.7
			C537.8,268,536.1,266.3,536.2,264.2z"/>
		<path class="st1" d="M335.1,184.6c0-2.1,1.7-3.7,3.7-3.7c2.1,0,3.7,1.7,3.7,3.7c0,2.1-1.7,3.7-3.7,3.7
			C336.7,188.4,335.1,186.7,335.1,184.6z"/>
		<path class="st1" d="M612.2,611.4c0-1.4,1.1-2.4,2.5-2.4s2.4,1.1,2.4,2.5s-1.1,2.4-2.5,2.4C613.3,613.9,612.2,612.8,612.2,611.4z"
			/>
		<path class="st1" d="M562.5,288c0-1.4,1.1-2.4,2.5-2.4s2.4,1.1,2.4,2.5s-1.1,2.4-2.5,2.4C563.6,290.5,562.5,289.4,562.5,288z"/>
		<path class="st1" d="M204.9,578.4c0-1.4,1.1-2.4,2.5-2.4s2.4,1.1,2.4,2.5s-1.1,2.4-2.5,2.4S204.9,579.7,204.9,578.4z"/>
		<path class="st1" d="M116.9,632c0-1.4,1.1-2.4,2.5-2.4s2.4,1.1,2.4,2.5s-1.1,2.4-2.5,2.4C118,634.4,116.9,633.3,116.9,632z"/>
		<path class="st1" d="M82.5,462.8c0-1.4,1.1-2.4,2.5-2.4s2.4,1.1,2.4,2.5s-1.1,2.4-2.5,2.4C83.6,465.2,82.5,464.1,82.5,462.8z"/>
		<path class="st1" d="M94.9,354.7c0-1.4,1.1-2.4,2.5-2.4s2.4,1.1,2.4,2.5s-1.1,2.4-2.5,2.4C96,357.2,94.9,356.1,94.9,354.7z"/>
		<path class="st1" d="M179.8,424.7c0-1.4,1.1-2.4,2.5-2.4s2.4,1.1,2.4,2.5s-1.1,2.4-2.5,2.4C180.9,427.2,179.8,426.1,179.8,424.7z"
			/>
		<path class="st1" d="M129.8,322.3c0-1.4,1.1-2.4,2.5-2.4s2.4,1.1,2.4,2.5s-1.1,2.4-2.5,2.4C130.9,324.8,129.8,323.7,129.8,322.3z"
			/>
		<path class="st1" d="M99,167.8c0-1.4,1.1-2.4,2.5-2.4s2.4,1.1,2.4,2.5s-1.1,2.4-2.5,2.4S99,169.2,99,167.8z"/>
		<path class="st1" d="M282.8,164.1c0-1.4,1.1-2.4,2.5-2.4s2.4,1.1,2.4,2.5s-1.1,2.4-2.5,2.4C283.9,166.5,282.8,165.4,282.8,164.1z"
			/>
		<path class="st1" d="M435.9,112.1c0-1.4,1.1-2.4,2.5-2.4s2.4,1.1,2.4,2.5s-1.1,2.4-2.5,2.4C437,114.6,435.9,113.5,435.9,112.1z"/>
		<path class="st1" d="M406.8,237.2c0-1.4,1.1-2.4,2.5-2.4s2.4,1.1,2.4,2.5s-1.1,2.4-2.5,2.4S406.8,238.6,406.8,237.2z"/>
		<path class="st1" d="M559.7,162.2c0-1.4,1.1-2.4,2.5-2.4s2.4,1.1,2.4,2.5s-1.1,2.4-2.5,2.4C560.8,164.6,559.7,163.5,559.7,162.2z"
			/>
		<path class="st1" d="M330.6,103.6c0-1.4,1.1-2.4,2.5-2.4s2.4,1.1,2.4,2.5s-1.1,2.4-2.5,2.4C331.7,106.1,330.6,105,330.6,103.6z"/>
		<path class="st1" d="M292.5,375.2c0-1.4,1.1-2.4,2.5-2.4s2.4,1.1,2.4,2.5s-1.1,2.4-2.5,2.4C293.6,377.7,292.5,376.6,292.5,375.2z"
			/>
		<path class="st1" d="M464.3,430.8c0-1.4,1.1-2.4,2.5-2.4s2.4,1.1,2.4,2.5s-1.1,2.4-2.5,2.4C465.4,433.2,464.3,432.1,464.3,430.8z"
			/>
		<path class="st1" d="M491.3,349.6c0-1.4,1.1-2.4,2.5-2.4s2.4,1.1,2.4,2.5s-1.1,2.4-2.5,2.4C492.4,352.1,491.3,351,491.3,349.6z"/>
		<path class="st1" d="M257.8,438.2c0-1.4,1.1-2.4,2.5-2.4s2.4,1.1,2.4,2.5s-1.1,2.4-2.5,2.4C258.9,440.7,257.8,439.6,257.8,438.2z"
			/>
		<path class="st1" d="M558.9,455.4c0-1.4,1.1-2.4,2.5-2.4s2.4,1.1,2.4,2.5s-1.1,2.4-2.5,2.4C560,457.8,558.9,456.7,558.9,455.4z"/>
		<path class="st1" d="M466.8,668.4c0-1.4,1.1-2.4,2.5-2.4s2.4,1.1,2.4,2.5s-1.1,2.4-2.5,2.4C467.9,670.8,466.8,669.7,466.8,668.4z"
			/>
		<path class="st1" d="M460.6,578.3c0-1.4,1.1-2.4,2.5-2.4s2.4,1.1,2.4,2.5s-1.1,2.4-2.5,2.4C461.7,580.7,460.6,579.6,460.6,578.3z"
			/>
		<path class="st1" d="M684.5,396.7c0-1.4,1.1-2.4,2.5-2.4s2.4,1.1,2.4,2.5s-1.1,2.4-2.5,2.4C685.6,399.2,684.5,398.1,684.5,396.7z"
			/>
		<path class="st1" d="M689.1,283.3c0-1.4,1.1-2.4,2.5-2.4s2.4,1.1,2.4,2.5s-1.1,2.4-2.5,2.4C690.2,285.8,689.1,284.7,689.1,283.3z"
			/>
		<path class="st1" d="M657.2,220.5c0-1.4,1.1-2.4,2.5-2.4s2.4,1.1,2.4,2.5s-1.1,2.4-2.5,2.4C658.3,222.9,657.2,221.8,657.2,220.5z"
			/>
		<path class="st1" d="M686.6,513.4c0-1.4,1.1-2.4,2.5-2.4s2.4,1.1,2.4,2.5c0,1.4-1.1,2.4-2.5,2.4
			C687.7,515.9,686.6,514.8,686.6,513.4z"/>
		<path class="st1" d="M692.1,628.3c0-1.4,1.1-2.4,2.5-2.4s2.4,1.1,2.4,2.5s-1.1,2.4-2.5,2.4C693.2,630.7,692.1,629.6,692.1,628.3z"
			/>
		<path class="st1" d="M300,723.1c0-1.4,1.1-2.4,2.5-2.4s2.4,1.1,2.4,2.5s-1.1,2.4-2.5,2.4C301.1,725.6,300,724.5,300,723.1z"/>
		<path class="st1" d="M249.3,258.5c0-1.4,1.1-2.4,2.5-2.4s2.4,1.1,2.4,2.5s-1.1,2.4-2.5,2.4C250.4,260.9,249.3,259.8,249.3,258.5z"
			/>
		<path class="st1" d="M270.2,640.6c0-1.4,1.1-2.4,2.5-2.4s2.4,1.1,2.4,2.5s-1.1,2.4-2.5,2.4C271.3,643,270.2,641.9,270.2,640.6z"/>
		<path class="st1" d="M285.5,533c0-1.4,1.1-2.4,2.5-2.4s2.4,1.1,2.4,2.5s-1.1,2.4-2.5,2.4C286.6,535.5,285.5,534.4,285.5,533z"/>
		<path class="st1" d="M196,87.1c0-1.4,1.1-2.4,2.5-2.4s2.4,1.1,2.4,2.5s-1.1,2.4-2.5,2.4C197.1,89.5,196,88.4,196,87.1z"/>
		<path class="st1" d="M582.7,82.2c0-1.4,1.1-2.4,2.5-2.4s2.4,1.1,2.4,2.5s-1.1,2.4-2.5,2.4S582.7,83.6,582.7,82.2z"/>
		<path class="st1" d="M187,542.6c0-5.4,4.4-9.7,9.8-9.7c5.4,0,9.7,4.4,9.7,9.8c0,5.4-4.4,9.7-9.8,9.7
			C191.3,552.3,187,547.9,187,542.6z"/>
		<path class="st1" d="M417,200.3c0-5.4,4.4-9.7,9.8-9.7s9.7,4.4,9.7,9.8c0,5.4-4.4,9.7-9.8,9.7C421.3,210.1,417,205.7,417,200.3z"
			/>
		<path class="st1" d="M172.5,136.9c0-5.4,4.4-9.7,9.8-9.7c5.4,0,9.7,4.4,9.7,9.8c0,5.4-4.4,9.7-9.8,9.7
			C176.8,146.7,172.5,142.3,172.5,136.9z"/>
		<path class="st1" d="M545.5,541.8c0-5.4,4.4-9.7,9.8-9.7c5.4,0,9.7,4.4,9.7,9.8c0,5.4-4.4,9.7-9.8,9.7
			C549.8,551.5,545.4,547.2,545.5,541.8z"/>
		<path class="st1" d="M602.4,146.6c0-5.4,4.4-9.7,9.8-9.7c5.4,0,9.7,4.4,9.7,9.8c0,5.4-4.4,9.7-9.8,9.7
			C606.8,156.4,602.4,152,602.4,146.6z"/>
	</g>
</g>
</svg>
