<svg width="48" height="48" fill="none" xmlns="http://www.w3.org/2000/svg"><circle cx="24" cy="24" r="24" fill="#0050D8"/><path d="M19.5616 21.8184C18.4045 22.891 17.3873 23.871 16.3234 24.7987C15.9384 25.1348 15.5817 25.831 14.9029 25.3199C14.4328 24.9657 14.4915 23.6919 15.0022 23.1928C15.7236 22.4885 16.5017 21.8426 17.2576 21.1745C17.4521 21.0014 17.6487 20.8324 17.9405 20.5788C17.0549 20.1904 16.289 19.7578 15.4683 19.5425C15.1623 19.462 14.5402 19.798 14.3841 20.1059C14.1065 20.6513 13.914 21.3334 13.9667 21.9351C14.1491 24.0561 14.3071 26.1993 14.7509 28.274C15.1481 30.1334 15.9039 30.3467 17.3224 29.0971C22.1169 24.8711 26.8566 20.5808 31.6166 16.3167C32.2914 15.711 32.9216 15.0429 33.6551 14.5176C34.8629 13.6523 35.8558 13.8636 36.4333 15.2139C36.8994 16.3046 37.2662 17.4959 37.3655 18.6691C37.6613 22.237 37.8194 25.8169 37.9957 29.3929C38.024 29.9523 37.9085 30.5278 37.7869 31.0812C37.5661 32.1015 37.023 32.5281 35.9632 32.3249C35.1202 32.1639 34.257 31.8781 33.5173 31.4515C31.187 30.1073 28.9093 28.6704 26.6134 27.2678C26.0724 26.9378 25.7948 26.5273 26.3338 25.982C26.8059 25.503 27.0977 24.5653 28.0826 25.2454C29.3288 26.1047 30.577 26.962 31.8456 27.791C32.2914 28.0828 32.7797 28.3283 33.2782 28.5195C34.0503 28.8153 34.5508 28.4712 34.6683 27.7005C35.0999 24.8852 34.9419 22.0961 34.1313 19.3593C33.7808 18.1761 33.0148 17.8098 31.9874 18.5021C30.8526 19.2668 29.8334 20.2106 28.8262 21.1443C24.8565 24.8269 20.9213 28.5457 16.9435 32.2222C16.3335 32.7857 15.604 33.2445 14.8725 33.647C13.681 34.305 12.8279 34.0615 12.4044 32.7615C11.8694 31.1215 11.3628 29.419 11.2311 27.7146C10.996 24.6478 11.0224 21.5588 11.0001 18.4779C10.996 17.7937 11.1642 17.0773 11.4013 16.4294C11.7802 15.391 12.528 15.1193 13.4763 15.6405C16.3356 17.2122 19.1948 18.7898 22.0095 20.4379C22.4107 20.6734 22.895 21.4139 22.7835 21.7339C22.5748 22.3416 21.9831 22.8286 21.5008 23.3176C21.4441 23.376 21.0429 23.1767 20.8625 23.0258C20.4309 22.6696 20.0358 22.2652 19.5616 21.8184Z" fill="#000"/></svg>