<svg width="32" height="32" viewBox="0 0 32 32" fill="none" xmlns="http://www.w3.org/2000/svg">
<path d="M9.93292 23.8798C7.79708 23.8798 6.10893 23.1856 4.86536 21.8003C3.62179 20.415 3 18.5232 3 16.1247C3 13.7263 3.6249 11.8532 4.87469 10.4648C6.12448 9.07637 7.81263 8.38217 9.93292 8.38217C11.6677 8.38217 13.132 8.87937 14.3258 9.87377C15.5166 10.8682 16.1974 12.169 16.3622 13.7763H13.7383C13.5673 12.8351 13.1289 12.0783 12.4294 11.5092C11.7299 10.9401 10.8998 10.6555 9.93292 10.6555C8.65204 10.6555 7.6292 11.1496 6.86751 12.1378C6.10582 13.1259 5.72653 14.4549 5.72653 16.1247C5.72653 17.7946 6.10582 19.1423 6.8644 20.1274C7.62298 21.1124 8.64893 21.6033 9.94535 21.6033C10.9309 21.6033 11.7579 21.35 12.4294 20.8403C13.1009 20.3306 13.5393 19.627 13.7476 18.7264H16.3622C16.129 20.3337 15.4388 21.5939 14.2948 22.5102C13.1507 23.4233 11.6988 23.8829 9.93292 23.8829V23.8798Z" fill="#E6DAFE"/>
<path d="M24.091 25.0556H22.664V23.7047C21.122 23.6077 19.9002 23.1762 19.0048 22.4101C18.1094 21.644 17.6586 20.6496 17.6524 19.4206H20.1737C20.2204 20.0179 20.4691 20.512 20.9137 20.9028C21.3582 21.2937 21.9427 21.5314 22.664 21.6158V17.0722L21.6722 16.822C20.4722 16.5312 19.5582 16.0403 18.9271 15.3461C18.2959 14.6519 17.9819 13.7857 17.9819 12.7475C17.9819 11.5217 18.3954 10.5273 19.2224 9.77056C20.0494 9.01069 21.1966 8.56665 22.664 8.43531V7H24.091V8.43531C25.4838 8.56039 26.5968 9.00756 27.4331 9.77994C28.2694 10.5523 28.7015 11.5248 28.7295 12.6943H26.261C26.2486 12.1409 26.0403 11.6656 25.6361 11.2715C25.232 10.8775 24.719 10.6368 24.091 10.5554V14.8676L25.1138 15.0865C26.4227 15.3992 27.3989 15.8933 28.0393 16.5719C28.6798 17.2504 29 18.1385 29 19.233C29 20.5276 28.5741 21.5627 27.7191 22.335C26.8642 23.1074 25.6548 23.5577 24.091 23.6797V25.0556ZM20.5251 12.5411C20.5251 13.0602 20.7085 13.4917 21.0722 13.8357C21.436 14.1797 21.9676 14.4236 22.664 14.5675V10.5461C22.0453 10.5805 21.5323 10.7837 21.1282 11.159C20.724 11.5342 20.5251 11.9939 20.5251 12.5411ZM26.488 19.5051C26.488 18.9297 26.2921 18.4669 25.9035 18.1166C25.5149 17.7664 24.9086 17.51 24.091 17.3411V21.6346C24.8496 21.5877 25.4372 21.375 25.8569 20.9998C26.2766 20.6245 26.488 20.1273 26.488 19.5019V19.5051Z" fill="#E6DAFE"/>
</svg>
