<svg width="40" height="40" viewBox="0 0 40 40" fill="none" xmlns="http://www.w3.org/2000/svg">
	<g clip-path="url(#clip0_3754_33694)">
		<rect width="40" height="40" rx="20" fill="#C651EF" />
		<path fill-rule="evenodd" clip-rule="evenodd"
			d="M21.4232 7.57925C20.2771 7.34308 19.3059 7.66442 19.0547 7.83189L19.021 7.85433L14.4911 10.3711C13.3405 11.0302 12.8 11.8858 12.6016 12.8552C12.3926 13.8759 12.549 15.1037 12.9784 16.4607C13.7606 18.9327 15.327 21.4877 16.5031 23.4059C16.6247 23.6043 16.7422 23.7959 16.8542 23.9799L16.869 24.0041L16.8823 24.0292C17.8237 25.7942 17.8271 27.4864 17.1345 29.0015C16.4681 30.4591 15.2003 31.6638 13.7614 32.6399C10.88 34.5944 6.94176 35.88 4.21369 36.4767C3.67417 36.5947 3.14112 36.253 3.0231 35.7135C2.90508 35.174 3.24677 34.6409 3.7863 34.5229C6.39157 33.953 10.0533 32.7385 12.6386 30.9848C13.933 30.1067 14.8652 29.1551 15.3155 28.17C15.7368 27.2484 15.7758 26.2189 15.1305 24.9946C15.0251 24.8216 14.9126 24.6385 14.7946 24.4463C13.6345 22.5574 11.9332 19.7873 11.0716 17.0641C10.5926 15.5503 10.3366 13.9469 10.6422 12.4541C10.958 10.9114 11.8579 9.57226 13.5039 8.63173L13.5143 8.62576L17.9839 6.1426C18.7458 5.656 20.25 5.2955 21.8268 5.62041C23.5191 5.96911 25.2799 7.0991 26.4104 9.58601L26.4244 9.61691L26.4363 9.64869C27.4274 12.2916 29.0585 16.1686 30.7274 19.2199C31.567 20.7551 32.3848 22.0225 33.1049 22.8204C33.4687 23.2235 33.7545 23.4465 33.9522 23.5449C34.0159 23.5767 34.0554 23.5891 34.0767 23.5934L34.1664 23.5486L34.2905 23.522C35.3579 23.2933 37.0702 22.7084 38.6413 21.7168C40.2197 20.7205 41.5391 19.3895 42.0422 17.7126C42.2009 17.1836 42.7584 16.8834 43.2873 17.0421C43.8163 17.2008 44.1165 17.7583 43.9578 18.2873C43.2609 20.6104 41.497 22.2794 39.7087 23.4081C37.9622 24.5104 36.0812 25.1697 34.8148 25.4545C34.1917 25.7106 33.5671 25.5876 33.0603 25.3351C32.5392 25.0755 32.0563 24.6437 31.6201 24.1604C30.7402 23.1854 29.833 21.7527 28.9726 20.1796C27.2485 17.0271 25.5861 13.0736 24.576 10.3838C23.7071 8.49321 22.4754 7.79606 21.4232 7.57925ZM34.0967 23.595C34.0971 23.5956 34.0933 23.5961 34.0844 23.5948C34.092 23.5937 34.0964 23.5944 34.0967 23.595Z"
			fill="#CFF248" />
	</g>
	<defs>
		<clipPath id="clip0_3754_33694">
			<rect width="40" height="40" rx="20" fill="white" />
		</clipPath>
	</defs>
</svg>
