<?xml version="1.0" encoding="utf-8"?>
<!-- Generator: Adobe Illustrator 25.0.0, SVG Export Plug-In . SVG Version: 6.00 Build 0)  -->
<svg version="1.1" id="图层_1" xmlns="http://www.w3.org/2000/svg" xmlns:xlink="http://www.w3.org/1999/xlink" x="0px" y="0px"
	 viewBox="0 0 800 800" style="enable-background:new 0 0 800 800;" xml:space="preserve">
<style type="text/css">
	.st0{clip-path:url(#SVGID_2_);fill:url(#SVGID_3_);}
	.st1{fill:#FFFFFF;}
</style>
<g>
	<g>
		<g>
			<defs>
				<path id="SVGID_1_" d="M400,0L400,0c220.9,0,400,179.1,400,400v0c0,220.9-179.1,400-400,400h0C179.1,800,0,620.9,0,400v0
					C0,179.1,179.1,0,400,0z"/>
			</defs>
			<clipPath id="SVGID_2_">
				<use xlink:href="#SVGID_1_"  style="overflow:visible;"/>
			</clipPath>
			<linearGradient id="SVGID_3_" gradientUnits="userSpaceOnUse" x1="392.35" y1="876.3" x2="392.35" y2="-90.9">
				<stop  offset="0" style="stop-color:#FFB463"/>
				<stop  offset="1" style="stop-color:#FE0068"/>
			</linearGradient>
			<path class="st0" d="M614.4,876.3H170.2c-144.4,0-261.5-117.1-261.5-261.5V170.6c0-144.4,117.1-261.5,261.5-261.5h444.3
				C758.9-90.9,876,26.2,876,170.6v444.3C875.9,759.2,758.8,876.3,614.4,876.3z"/>
		</g>
	</g>
</g>
<g>
	<g>
		<path class="st1" d="M264.1,436.8c1.9,0.1,3.7,0.1,5.5,0.1c54.8,0,100.1-42.9,102.9-97.7c1.4-27.5-7.9-54-26.3-74.4
			c-15.3-17-35.4-28.1-57.5-32.2c25.2-10.5,53.3-16.3,80-17.4c69.3-2.8,161.5,23.3,193.4,106.3c3.1,8,10.8,13,18.9,13
			c2.4,0,4.9-0.4,7.2-1.3c10.4-4,15.6-15.7,11.6-26.1c-39.5-103-150-135.6-232.8-132.2c-97.6,4-174.1,52.6-194.9,123.7
			c-0.4,1.3-0.6,2.6-0.7,3.8c-2.7,8.3-4.4,17-4.9,26.1c-1.4,27.5,7.9,54,26.3,74.4C211.3,423.3,236.6,435.4,264.1,436.8z
			 M332.2,337.1c-1.8,34.4-31.3,61.3-65.9,59.3c-16.7-0.9-32.1-8.2-43.3-20.7c-11.2-12.4-16.9-28.5-16-45.2
			c1.8-33.3,29.2-59.4,62.5-59.4c1.1,0,2.2,0,3.4,0.1c16.7,0.9,32.1,8.2,43.3,20.7C327.4,304.3,333.1,320.4,332.2,337.1z"/>
		<path class="st1" d="M580.2,394.5c-18.4-20.5-43.7-32.5-71.3-34c-57.4-2.8-105.5,41-108.4,97.6c-1.4,27.5,7.9,54,26.3,74.4
			c15.3,17,35.4,28.1,57.5,32.3c-25.2,10.5-53.3,16.3-80,17.4C335.1,585,242.8,558.9,211,475.9c-4-10.4-15.7-15.6-26.1-11.6
			c-10.4,4-15.6,15.7-11.6,26.1c37.7,98.2,140.1,132.4,221.2,132.4c3.9,0,7.8-0.1,11.6-0.2c97.6-4,174.1-52.6,194.9-123.7
			c0.3-1.2,0.5-2.4,0.7-3.6c2.7-8.4,4.5-17.2,5-26.4C608,441.5,598.6,415,580.2,394.5z M440.9,460.3c1.8-33.3,29.2-59.4,62.6-59.4
			c1.1,0,2.2,0,3.4,0.1c16.7,0.9,32.1,8.2,43.3,20.7c11.2,12.4,16.9,28.5,16,45.2c-1.8,34.4-31.2,61.4-65.9,59.3
			c-16.7-0.9-32.1-8.2-43.3-20.7C445.7,493.1,440,477,440.9,460.3z"/>
	</g>
	<g>
		<path class="st1" d="M691.3,274.5c0,3,2.4,5.4,5.4,5.4s5.4-2.4,5.4-5.4s-2.4-5.4-5.4-5.4S691.3,271.5,691.3,274.5z"/>
		<path class="st1" d="M528.4,459.5c0,3,2.4,5.4,5.4,5.4s5.4-2.4,5.4-5.4s-2.4-5.4-5.4-5.4S528.4,456.5,528.4,459.5z"/>
		<path class="st1" d="M347.1,435.2c0,3,2.4,5.4,5.4,5.4s5.4-2.4,5.4-5.4s-2.4-5.4-5.4-5.4S347.1,432.2,347.1,435.2z"/>
		<path class="st1" d="M104.8,282c0,3,2.4,5.4,5.4,5.4s5.4-2.4,5.4-5.4s-2.4-5.4-5.4-5.4S104.8,279,104.8,282z"/>
		<path class="st1" d="M275.4,706.4c0,3,2.4,5.4,5.4,5.4s5.4-2.4,5.4-5.4s-2.4-5.4-5.4-5.4S275.4,703.4,275.4,706.4z"/>
		<path class="st1" d="M342.4,528.1c0,3,2.4,5.4,5.4,5.4s5.4-2.4,5.4-5.4s-2.4-5.4-5.4-5.4C344.8,522.7,342.4,525.1,342.4,528.1z"/>
		<circle class="st1" cx="445.6" cy="148.5" r="5.4"/>
		<path class="st1" d="M125.1,600.8c0,3,2.4,5.4,5.4,5.4s5.4-2.4,5.4-5.4s-2.4-5.4-5.4-5.4C127.5,595.4,125.1,597.9,125.1,600.8z"/>
		<path class="st1" d="M474.9,711.8c0,3,2.4,5.4,5.4,5.4s5.4-2.4,5.4-5.4s-2.4-5.4-5.4-5.4C477.3,706.4,474.9,708.8,474.9,711.8z"/>
		<path class="st1" d="M558.8,613c0,3,2.4,5.4,5.4,5.4s5.4-2.4,5.4-5.4s-2.4-5.4-5.4-5.4C561.2,607.7,558.8,610.1,558.8,613z"/>
		<path class="st1" d="M467,269.1c0,3,2.4,5.4,5.4,5.4s5.4-2.4,5.4-5.4s-2.4-5.4-5.4-5.4S467,266.2,467,269.1z"/>
		<path class="st1" d="M507.9,310c0,2.1,1.7,3.8,3.8,3.8c2.1,0,3.8-1.7,3.8-3.8s-1.7-3.8-3.8-3.8C509.6,306.3,507.9,307.9,507.9,310
			z"/>
		<path class="st1" d="M633.8,126.7c0,2.1,1.7,3.8,3.8,3.8s3.8-1.7,3.8-3.8c0-2.1-1.7-3.8-3.8-3.8
			C635.5,122.9,633.8,124.6,633.8,126.7z"/>
		<path class="st1" d="M480.3,98.3c0,2.1,1.7,3.8,3.8,3.8c2.1,0,3.8-1.7,3.8-3.8s-1.7-3.8-3.8-3.8S480.3,96.2,480.3,98.3z"/>
		<path class="st1" d="M222.9,186.9c0,2.1,1.7,3.8,3.8,3.8s3.8-1.7,3.8-3.8s-1.7-3.8-3.8-3.8C224.5,183.1,222.9,184.8,222.9,186.9z"
			/>
		<path class="st1" d="M189.2,113.1c0,2.1,1.7,3.8,3.8,3.8s3.8-1.7,3.8-3.8c0-2.1-1.7-3.8-3.8-3.8
			C190.8,109.4,189.2,111.1,189.2,113.1z"/>
		<path class="st1" d="M417.1,653.6c0,2.1,1.7,3.8,3.8,3.8c2.1,0,3.8-1.7,3.8-3.8s-1.7-3.8-3.8-3.8
			C418.8,649.9,417.1,651.5,417.1,653.6z"/>
		<circle class="st1" cx="633.8" cy="661.2" r="3.8"/>
		<path class="st1" d="M644.8,463.2c0,2.1,1.7,3.8,3.8,3.8s3.8-1.7,3.8-3.8c0-2.1-1.7-3.8-3.8-3.8S644.8,461.1,644.8,463.2z"/>
		<path class="st1" d="M257.6,358.7c0,2.1,1.7,3.8,3.8,3.8c2.1,0,3.8-1.7,3.8-3.8s-1.7-3.8-3.8-3.8
			C259.2,355,257.6,356.6,257.6,358.7z"/>
		<path class="st1" d="M148.9,463.2c0,2.1,1.7,3.8,3.8,3.8s3.8-1.7,3.8-3.8c0-2.1-1.7-3.8-3.8-3.8
			C150.5,459.5,148.9,461.1,148.9,463.2z"/>
		<path class="st1" d="M101,355c0,2.1,1.7,3.8,3.8,3.8c2.1,0,3.8-1.7,3.8-3.8c0-2.1-1.7-3.8-3.8-3.8S101,352.9,101,355z"/>
		<path class="st1" d="M262.9,634.5c0,2.1,1.7,3.8,3.8,3.8c2.1,0,3.8-1.7,3.8-3.8s-1.7-3.8-3.8-3.8
			C264.6,630.8,262.9,632.5,262.9,634.5z"/>
		<path class="st1" d="M594.9,232.1c0,2.1,1.7,3.8,3.8,3.8s3.8-1.7,3.8-3.8s-1.7-3.8-3.8-3.8C596.6,228.3,594.9,230,594.9,232.1z"/>
		<path class="st1" d="M395.9,347.9c0,2.1,1.7,3.8,3.8,3.8c2.1,0,3.8-1.7,3.8-3.8s-1.7-3.8-3.8-3.8
			C397.6,344.2,395.9,345.9,395.9,347.9z"/>
		<path class="st1" d="M487.3,497.8c0,2.1,1.7,3.8,3.8,3.8c2.1,0,3.8-1.7,3.8-3.8s-1.7-3.8-3.8-3.8
			C489,494.1,487.3,495.8,487.3,497.8z"/>
		<path class="st1" d="M616.9,201.7c0,1.4,1.1,2.5,2.5,2.5s2.5-1.1,2.5-2.5s-1.1-2.5-2.5-2.5S616.9,200.3,616.9,201.7z"/>
		<path class="st1" d="M411.3,130.4c0,1.4,1.1,2.5,2.5,2.5s2.5-1.1,2.5-2.5s-1.1-2.5-2.5-2.5S411.3,129.1,411.3,130.4z"/>
		<path class="st1" d="M362,234.6c0,1.4,1.1,2.5,2.5,2.5s2.5-1.1,2.5-2.5s-1.1-2.5-2.5-2.5S362,233.2,362,234.6z"/>
		<path class="st1" d="M128,177.9c0,1.4,1.1,2.5,2.5,2.5s2.5-1.1,2.5-2.5s-1.1-2.5-2.5-2.5S128,176.5,128,177.9z"/>
		<path class="st1" d="M82.5,383.4c0,1.4,1.1,2.5,2.5,2.5s2.5-1.1,2.5-2.5s-1.1-2.5-2.5-2.5S82.5,382.1,82.5,383.4z"/>
		<path class="st1" d="M122.7,508c0,1.4,1.1,2.5,2.5,2.5s2.5-1.1,2.5-2.5s-1.1-2.5-2.5-2.5C123.8,505.6,122.7,506.7,122.7,508z"/>
		<path class="st1" d="M303.7,317.6c0,1.4,1.1,2.5,2.5,2.5s2.5-1.1,2.5-2.5s-1.1-2.5-2.5-2.5C304.8,315.2,303.7,316.3,303.7,317.6z"
			/>
		<path class="st1" d="M146.4,628.5c0,1.4,1.1,2.5,2.5,2.5s2.5-1.1,2.5-2.5s-1.1-2.5-2.5-2.5S146.4,627.1,146.4,628.5z"/>
		<path class="st1" d="M437.6,672c0,1.4,1.1,2.5,2.5,2.5s2.5-1.1,2.5-2.5s-1.1-2.5-2.5-2.5S437.6,670.6,437.6,672z"/>
		<path class="st1" d="M472.4,437c0,1.4,1.1,2.5,2.5,2.5s2.5-1.1,2.5-2.5s-1.1-2.5-2.5-2.5S472.4,435.6,472.4,437z"/>
		<path class="st1" d="M339.9,684.9c0,1.4,1.1,2.5,2.5,2.5s2.5-1.1,2.5-2.5s-1.1-2.5-2.5-2.5S339.9,683.5,339.9,684.9z"/>
		<path class="st1" d="M333.1,449.6c0,1.4,1.1,2.5,2.5,2.5s2.5-1.1,2.5-2.5s-1.1-2.5-2.5-2.5S333.1,448.2,333.1,449.6z"/>
		<path class="st1" d="M367.1,551.5c0,1.4,1.1,2.5,2.5,2.5s2.5-1.1,2.5-2.5s-1.1-2.5-2.5-2.5S367.1,550.2,367.1,551.5z"/>
		<path class="st1" d="M656.9,390c0,1.4,1.1,2.5,2.5,2.5s2.5-1.1,2.5-2.5s-1.1-2.5-2.5-2.5S656.9,388.6,656.9,390z"/>
		<path class="st1" d="M424.6,366.2c0,1.4,1.1,2.5,2.5,2.5s2.5-1.1,2.5-2.5s-1.1-2.5-2.5-2.5S424.6,364.9,424.6,366.2z"/>
		<circle class="st1" cx="237.6" cy="344.2" r="2.5"/>
		<path class="st1" d="M576.8,358.7c0,1.4,1.1,2.5,2.5,2.5s2.5-1.1,2.5-2.5s-1.1-2.5-2.5-2.5C577.9,356.2,576.8,357.3,576.8,358.7z"
			/>
		<path class="st1" d="M688.8,418c0,1.4,1.1,2.5,2.5,2.5s2.5-1.1,2.5-2.5s-1.1-2.5-2.5-2.5C689.9,415.6,688.8,416.7,688.8,418z"/>
		<path class="st1" d="M680.5,571.4c0,1.4,1.1,2.5,2.5,2.5s2.5-1.1,2.5-2.5s-1.1-2.5-2.5-2.5S680.5,570,680.5,571.4z"/>
		<path class="st1" d="M712.6,315.2c0,1.4,1.1,2.5,2.5,2.5s2.5-1.1,2.5-2.5s-1.1-2.5-2.5-2.5C713.7,312.7,712.6,313.8,712.6,315.2z"
			/>
		<circle class="st1" cx="507.9" cy="173.2" r="2.5"/>
		<path class="st1" d="M554.1,113.1c0,1.4,1.1,2.5,2.5,2.5s2.5-1.1,2.5-2.5s-1.1-2.5-2.5-2.5C555.2,110.7,554.1,111.8,554.1,113.1z"
			/>
		<circle class="st1" cx="357.9" cy="85.3" r="2.5"/>
		<circle class="st1" cx="257.6" cy="158.6" r="2.5"/>
		<path class="st1" d="M277,487.9c0,1.4,1.1,2.5,2.5,2.5s2.5-1.1,2.5-2.5s-1.1-2.5-2.5-2.5S277,486.5,277,487.9z"/>
		<path class="st1" d="M194.2,683.8c0,1.4,1.1,2.5,2.5,2.5s2.5-1.1,2.5-2.5s-1.1-2.5-2.5-2.5S194.2,682.4,194.2,683.8z"/>
		<path class="st1" d="M598.7,689.3c0,1.4,1.1,2.5,2.5,2.5s2.5-1.1,2.5-2.5s-1.1-2.5-2.5-2.5C599.8,686.9,598.7,688,598.7,689.3z"/>
		<path class="st1" d="M513.7,491.6c0,1.4,1.1,2.5,2.5,2.5s2.5-1.1,2.5-2.5s-1.1-2.5-2.5-2.5C514.8,489.2,513.7,490.3,513.7,491.6z"
			/>
		<circle class="st1" cx="574" cy="151.2" r="9.8"/>
		<path class="st1" d="M638.6,595.4c0,5.4,4.4,9.8,9.8,9.8s9.8-4.4,9.8-9.8c0-5.4-4.4-9.8-9.8-9.8S638.6,590,638.6,595.4z"/>
		<circle class="st1" cx="199.1" cy="622.8" r="9.8"/>
		<circle class="st1" cx="155.5" cy="234.6" r="9.8"/>
		<path class="st1" d="M267,126.6l15.1-6.8l5.8-14.9c0.1-0.2,0.3-0.3,0.5-0.3s0.4,0.1,0.5,0.3l6.4,15l15.3,5.9
			c0.2,0.1,0.3,0.3,0.3,0.5s-0.1,0.4-0.3,0.5l-15.6,6.4l-5.2,15.3c-0.1,0.2-0.3,0.3-0.5,0.3l0,0c-0.2,0-0.4-0.1-0.5-0.3l-6-14.1
			l-15.7-6.8c-0.2-0.1-0.3-0.3-0.3-0.5C266.7,126.9,266.8,126.7,267,126.6z"/>
		<path class="st1" d="M100.9,411.2l15.1-6.8l5.8-14.9c0.1-0.2,0.3-0.3,0.5-0.3s0.4,0.1,0.5,0.3l6.4,15l15.3,5.9
			c0.2,0.1,0.3,0.3,0.3,0.5s-0.1,0.4-0.3,0.5l-15.6,6.4l-5.2,15.3c-0.1,0.2-0.3,0.3-0.5,0.3l0,0c-0.2,0-0.4-0.1-0.5-0.3l-6-14.1
			l-15.7-6.8c-0.2-0.1-0.3-0.3-0.3-0.5C100.5,411.5,100.7,411.3,100.9,411.2z"/>
		<path class="st1" d="M517.4,661.1l15.1-6.8l5.8-14.9c0.1-0.2,0.3-0.3,0.5-0.3s0.4,0.1,0.5,0.3l6.4,15l15.3,5.9
			c0.2,0.1,0.3,0.3,0.3,0.5s-0.1,0.4-0.3,0.5l-15.6,6.4l-5.2,15.3c-0.1,0.2-0.3,0.3-0.5,0.3l0,0c-0.2,0-0.4-0.1-0.5-0.3l-6-14.1
			l-15.7-6.8c-0.2-0.1-0.3-0.3-0.3-0.5C517.1,661.4,517.2,661.2,517.4,661.1z"/>
	</g>
</g>
</svg>
