<?xml version="1.0" encoding="utf-8"?>
<!-- Generator: Adobe Illustrator 25.0.0, SVG Export Plug-In . SVG Version: 6.00 Build 0)  -->
<svg version="1.1" id="图层_1" xmlns="http://www.w3.org/2000/svg" xmlns:xlink="http://www.w3.org/1999/xlink" x="0px" y="0px"
	 viewBox="0 0 800 800" style="enable-background:new 0 0 800 800;" xml:space="preserve">
<style type="text/css">
	.st0{fill:url(#SVGID_1_);}
	.st1{fill:#FFFFFF;}
</style>
<linearGradient id="SVGID_1_" gradientUnits="userSpaceOnUse" x1="400" y1="871.7848" x2="400" y2="-403.7753">
	<stop  offset="0" style="stop-color:#CB00CE"/>
	<stop  offset="1" style="stop-color:#20008C"/>
</linearGradient>
<path class="st0" d="M400,0L400,0c220.9,0,400,179.1,400,400v0c0,220.9-179.1,400-400,400h0C179.1,800,0,620.9,0,400v0
	C0,179.1,179.1,0,400,0z"/>
<g>
	<g>
		<path class="st1" d="M318.8,622.3c-39.5,0-83.1-17.1-98.8-49.4c-4.9-10.1-0.7-22.2,9.4-27.1c10.1-4.9,22.2-0.7,27.1,9.4
			c10.9,22.4,59.1,32.3,85.8,23c26.9-9.3,49.2-29.4,72.9-50.8l10.6-9.5c0.2-0.2,0.5-0.4,0.7-0.6c-12-40.4-11.4-89.2,2.1-142.4
			C456.1,267,437,217,407.3,184.2c-41.6,52.3-39.9,144.5-38.5,226.7c0.5,31.4,1.1,61-0.5,88.6c-0.6,10.2-8.6,18.3-18.7,19.1
			c-10.1,0.7-19.3-6.1-21.4-16.1c-18.5-88.3-65.8-193.3-123.5-273.9c-6.5-9.1-4.4-21.8,4.7-28.3c9.1-6.5,21.8-4.4,28.3,4.7
			c35.2,49.2,66.2,105.7,90,162.7c-0.2-86.4,6.9-175.5,65.7-227.5c7.7-6.8,19.3-6.8,26.9,0c62.1,55.1,76.8,130.6,47.7,244.8
			c-9.7,38.1-11.7,73.8-6.3,104c22.5-15.7,46.8-27,75.2-26.5c74.6,1.5,99.2,75.4,100.2,78.6c2.1,6.6,0.7,13.7-3.6,19.1
			c-4.9,6-49.3,58.2-99.2,54.8c-33-2.2-62.8-19.5-84-48.7c-2.3-3.2-4.5-6.5-6.6-9.9l-1.3,1.2c-25.6,23.1-52.1,46.9-86.7,58.9
			C344.6,620.4,332,622.3,318.8,622.3z M475.1,529.6c2.4,4.6,5.1,8.9,8,13c13.9,19.2,33.1,30.6,53.8,32c19.5,1.4,43.4-17.9,57-31.3
			c-7.5-14.6-25.2-39.4-57.9-40.1C515,502.9,494.7,514.4,475.1,529.6z"/>
	</g>
	<g>
		<path class="st1" d="M629,408c0,3-2.4,5.4-5.4,5.4s-5.4-2.4-5.4-5.4s2.4-5.4,5.4-5.4S629,405,629,408z"/>
		<path class="st1" d="M256,624.5c0,3-2.4,5.4-5.4,5.4s-5.4-2.4-5.4-5.4s2.4-5.4,5.4-5.4S256,621.5,256,624.5z"/>
		<circle class="st1" cx="661.6" cy="580.7" r="5.4"/>
		<circle class="st1" cx="481.9" cy="662.7" r="5.4"/>
		<path class="st1" d="M169.4,630.8c0,2.1-1.7,3.8-3.8,3.8s-3.8-1.7-3.8-3.8s1.7-3.8,3.8-3.8C167.8,627,169.4,628.7,169.4,630.8z"/>
		<path class="st1" d="M244.8,357.7c0,2.1-1.7,3.8-3.8,3.8s-3.8-1.7-3.8-3.8c0-2.1,1.7-3.8,3.8-3.8
			C243.1,353.9,244.8,355.6,244.8,357.7z"/>
		<path class="st1" d="M151.4,390.3c0,2.1-1.7,3.8-3.8,3.8s-3.8-1.7-3.8-3.8c0-2.1,1.7-3.8,3.8-3.8S151.4,388.2,151.4,390.3z"/>
		<path class="st1" d="M717.5,500c0,2.1-1.7,3.8-3.8,3.8s-3.8-1.7-3.8-3.8c0-2.1,1.7-3.8,3.8-3.8S717.5,497.9,717.5,500z"/>
		<path class="st1" d="M499.7,422c0,2.1-1.7,3.8-3.8,3.8c-2.1,0-3.8-1.7-3.8-3.8c0-2.1,1.7-3.8,3.8-3.8S499.7,419.9,499.7,422z"/>
		<path class="st1" d="M352.1,702.7c0,2.1-1.7,3.8-3.8,3.8c-2.1,0-3.8-1.7-3.8-3.8s1.7-3.8,3.8-3.8
			C350.5,698.9,352.1,700.6,352.1,702.7z"/>
		<path class="st1" d="M423.3,273.2c0,2.1-1.7,3.8-3.8,3.8c-2.1,0-3.8-1.7-3.8-3.8c0-2.1,1.7-3.8,3.8-3.8
			C421.6,269.5,423.3,271.1,423.3,273.2z"/>
		<path class="st1" d="M559.3,111.3c0,2.1-1.7,3.8-3.8,3.8s-3.8-1.7-3.8-3.8c0-2.1,1.7-3.8,3.8-3.8
			C557.7,107.6,559.3,109.3,559.3,111.3z"/>
		<path class="st1" d="M622,677.3c0,2.1-1.7,3.8-3.8,3.8s-3.8-1.7-3.8-3.8s1.7-3.8,3.8-3.8C620.3,673.6,622,675.2,622,677.3z"/>
		<path class="st1" d="M140.9,161.8c0,2.1-1.7,3.8-3.8,3.8s-3.8-1.7-3.8-3.8s1.7-3.8,3.8-3.8C139.2,158.1,140.9,159.8,140.9,161.8z"
			/>
		<path class="st1" d="M162.4,219.3c0,1.4-1.1,2.5-2.5,2.5s-2.5-1.1-2.5-2.5s1.1-2.5,2.5-2.5C161.3,216.8,162.4,217.9,162.4,219.3z"
			/>
		<path class="st1" d="M293.6,238.7c0,1.4-1.1,2.5-2.5,2.5s-2.5-1.1-2.5-2.5s1.1-2.5,2.5-2.5S293.6,237.4,293.6,238.7z"/>
		<circle class="st1" cx="265.5" cy="147.9" r="2.5"/>
		<path class="st1" d="M664,155.6c0,1.4-1.1,2.5-2.5,2.5s-2.5-1.1-2.5-2.5s1.1-2.5,2.5-2.5S664,154.2,664,155.6z"/>
		<path class="st1" d="M536,86.2c0,1.4-1.1,2.5-2.5,2.5s-2.5-1.1-2.5-2.5s1.1-2.5,2.5-2.5S536,84.8,536,86.2z"/>
		<path class="st1" d="M606.1,254.8c0,1.4-1.1,2.5-2.5,2.5s-2.5-1.1-2.5-2.5s1.1-2.5,2.5-2.5S606.1,253.4,606.1,254.8z"/>
		<path class="st1" d="M400.7,441.3c0,1.4-1.1,2.5-2.5,2.5s-2.5-1.1-2.5-2.5s1.1-2.5,2.5-2.5S400.7,440,400.7,441.3z"/>
		<path class="st1" d="M684.9,330c0,1.4-1.1,2.5-2.5,2.5s-2.5-1.1-2.5-2.5s1.1-2.5,2.5-2.5C683.8,327.5,684.9,328.6,684.9,330z"/>
		<path class="st1" d="M647.1,594.3c0,1.4-1.1,2.5-2.5,2.5s-2.5-1.1-2.5-2.5s1.1-2.5,2.5-2.5S647.1,592.9,647.1,594.3z"/>
		<path class="st1" d="M680,627c0,1.4-1.1,2.5-2.5,2.5s-2.5-1.1-2.5-2.5s1.1-2.5,2.5-2.5S680,625.6,680,627z"/>
		<path class="st1" d="M472.2,683.6c0,1.4-1.1,2.5-2.5,2.5s-2.5-1.1-2.5-2.5s1.1-2.5,2.5-2.5S472.2,682.2,472.2,683.6z"/>
		<path class="st1" d="M545.6,438.9c0,1.4-1.1,2.5-2.5,2.5s-2.5-1.1-2.5-2.5s1.1-2.5,2.5-2.5S545.6,437.5,545.6,438.9z"/>
		<circle class="st1" cx="253.1" cy="487.4" r="2.5"/>
		<path class="st1" d="M171.9,461.2c0,1.4-1.1,2.5-2.5,2.5s-2.5-1.1-2.5-2.5s1.1-2.5,2.5-2.5S171.9,459.8,171.9,461.2z"/>
		<path class="st1" d="M143.8,639.9c0,1.4-1.1,2.5-2.5,2.5s-2.5-1.1-2.5-2.5s1.1-2.5,2.5-2.5S143.8,638.5,143.8,639.9z"/>
		<path class="st1" d="M87.4,477.4c0,1.4-1.1,2.5-2.5,2.5s-2.5-1.1-2.5-2.5s1.1-2.5,2.5-2.5S87.4,476,87.4,477.4z"/>
		<path class="st1" d="M321.2,561.9c0,1.4-1.1,2.5-2.5,2.5s-2.5-1.1-2.5-2.5s1.1-2.5,2.5-2.5S321.2,560.5,321.2,561.9z"/>
		<path class="st1" d="M400.7,298.5c0,1.4-1.1,2.5-2.5,2.5s-2.5-1.1-2.5-2.5s1.1-2.5,2.5-2.5S400.7,297.2,400.7,298.5z"/>
		<circle class="st1" cx="472.2" cy="158.1" r="2.5"/>
		<path class="st1" d="M554.3,549.1c0,1.4-1.1,2.5-2.5,2.5s-2.5-1.1-2.5-2.5s1.1-2.5,2.5-2.5S554.3,547.7,554.3,549.1z"/>
		<path class="st1" d="M566.4,713.8c0,1.4-1.1,2.5-2.5,2.5s-2.5-1.1-2.5-2.5s1.1-2.5,2.5-2.5C565.3,711.3,566.4,712.4,566.4,713.8z"
			/>
		<path class="st1" d="M304.8,713.8c0,1.4-1.1,2.5-2.5,2.5s-2.5-1.1-2.5-2.5s1.1-2.5,2.5-2.5C303.7,711.3,304.8,712.4,304.8,713.8z"
			/>
		<path class="st1" d="M198.1,549.1c0,1.4-1.1,2.5-2.5,2.5s-2.5-1.1-2.5-2.5s1.1-2.5,2.5-2.5C196.9,546.6,198.1,547.7,198.1,549.1z"
			/>
		<path class="st1" d="M220.1,378.7c0,1.4-1.1,2.5-2.5,2.5s-2.5-1.1-2.5-2.5s1.1-2.5,2.5-2.5S220.1,377.3,220.1,378.7z"/>
		<path class="st1" d="M89.9,332.5c0,1.4-1.1,2.5-2.5,2.5s-2.5-1.1-2.5-2.5s1.1-2.5,2.5-2.5S89.9,331.1,89.9,332.5z"/>
		<path class="st1" d="M120,147.9c0,1.4-1.1,2.5-2.5,2.5s-2.5-1.1-2.5-2.5s1.1-2.5,2.5-2.5C118.9,145.5,120,146.6,120,147.9z"/>
		<path class="st1" d="M302.3,86.2c0,1.4-1.1,2.5-2.5,2.5s-2.5-1.1-2.5-2.5s1.1-2.5,2.5-2.5S302.3,84.8,302.3,86.2z"/>
		<path class="st1" d="M710,293.1c0,3-2.4,5.4-5.4,5.4s-5.4-2.4-5.4-5.4s2.4-5.4,5.4-5.4S710,290.1,710,293.1z"/>
		<circle class="st1" cx="569.3" cy="201.8" r="5.4"/>
		<path class="st1" d="M286.2,509.8c0,3-2.4,5.4-5.4,5.4s-5.4-2.4-5.4-5.4c0-3,2.4-5.4,5.4-5.4C283.8,504.4,286.2,506.8,286.2,509.8
			z"/>
		<path class="st1" d="M206.4,674.6c0,3-2.4,5.4-5.4,5.4s-5.4-2.4-5.4-5.4s2.4-5.4,5.4-5.4C204,669.2,206.4,671.6,206.4,674.6z"/>
		<circle class="st1" cx="117.6" cy="320.1" r="5.4"/>
		<path class="st1" d="M543.1,348.5c0,3-2.4,5.4-5.4,5.4s-5.4-2.4-5.4-5.4s2.4-5.4,5.4-5.4S543.1,345.5,543.1,348.5z"/>
		<circle class="st1" cx="200.9" cy="105.9" r="5.4"/>
		<path class="st1" d="M320.6,207.2c0,3-2.4,5.4-5.4,5.4s-5.4-2.4-5.4-5.4s2.4-5.4,5.4-5.4S320.6,204.2,320.6,207.2z"/>
		<path class="st1" d="M591.1,337.3c0,5.4-4.4,9.8-9.8,9.8c-5.4,0-9.8-4.4-9.8-9.8s4.4-9.8,9.8-9.8
			C586.7,327.5,591.1,331.9,591.1,337.3z"/>
		<circle class="st1" cx="356.1" cy="121.2" r="9.8"/>
		<path class="st1" d="M430.4,639.9c0,5.4-4.4,9.8-9.8,9.8s-9.8-4.4-9.8-9.8c0-5.4,4.4-9.8,9.8-9.8
			C426,630.1,430.4,634.5,430.4,639.9z"/>
		<circle class="st1" cx="107.7" cy="509.8" r="9.8"/>
		<path class="st1" d="M636.3,194.6l-15.1-6.8l-5.9-15c-0.1-0.2-0.3-0.3-0.5-0.3s-0.4,0.1-0.5,0.3l-6.5,15l-15.3,5.9
			c-0.2,0.1-0.3,0.3-0.3,0.5s0.1,0.4,0.3,0.5l15.7,6.4l5.3,15.4c0.1,0.2,0.3,0.3,0.5,0.3l0,0c0.2,0,0.4-0.1,0.5-0.3l6.1-14.2
			l15.7-6.8c0.2-0.1,0.3-0.3,0.3-0.5C636.6,194.9,636.5,194.7,636.3,194.6z"/>
		<path class="st1" d="M162.8,447.8l-15.1-6.8l-5.9-15c-0.1-0.2-0.3-0.3-0.5-0.3s-0.4,0.1-0.5,0.3l-6.5,15l-15.3,5.9
			c-0.2,0.1-0.3,0.3-0.3,0.5s0.1,0.4,0.3,0.5l15.7,6.4l5.3,15.4c0.1,0.2,0.3,0.3,0.5,0.3l0,0c0.2,0,0.4-0.1,0.5-0.3l6.1-14.2
			l15.7-6.8c0.2-0.1,0.3-0.3,0.3-0.5C163.1,448.1,162.9,447.9,162.8,447.8z"/>
		<path class="st1" d="M555.4,673.5l-15.1-6.8l-5.9-15c-0.1-0.2-0.3-0.3-0.5-0.3s-0.4,0.1-0.5,0.3l-6.5,15l-15.3,5.9
			c-0.2,0.1-0.3,0.3-0.3,0.5s0.1,0.4,0.3,0.5l15.7,6.4l5.3,15.4c0.1,0.2,0.3,0.3,0.5,0.3l0,0c0.2,0,0.4-0.1,0.5-0.3l6.1-14.2
			l15.7-6.8c0.2-0.1,0.3-0.3,0.3-0.5C555.7,673.8,555.6,673.6,555.4,673.5z"/>
	</g>
</g>
</svg>
