<svg width="40" height="40" viewBox="0 0 40 40" fill="none" xmlns="http://www.w3.org/2000/svg">
	<g clip-path="url(#clip0_3754_33664)">
		<rect width="40" height="40" rx="20" fill="#CFF248" />
		<path fill-rule="evenodd" clip-rule="evenodd"
			d="M16.6721 13.6014C14.8214 14.2343 13.0977 15.5408 11.4861 17.4455C11.0113 18.0066 10.6121 18.5708 10.1886 19.1694C10.0021 19.433 9.81091 19.7032 9.6065 19.9827C8.96011 20.8667 8.22486 21.7761 7.22557 22.5697C7.19844 22.5912 7.12645 22.6632 6.987 22.832C6.95018 22.8766 6.89598 22.9439 6.83554 23.0189C6.74081 23.1366 6.63073 23.2732 6.54815 23.3714C6.39024 23.559 6.18984 23.7833 5.96518 23.9657C5.76393 24.1291 5.39138 24.3865 4.90163 24.3865H-0.136475C-0.688759 24.3865 -1.13647 23.9388 -1.13647 23.3865C-1.13647 22.8342 -0.688759 22.3865 -0.136475 22.3865H4.73565C4.8053 22.3245 4.89762 22.2265 5.01791 22.0836C5.10538 21.9797 5.16981 21.8991 5.23935 21.8121C5.29845 21.7382 5.36125 21.6597 5.44502 21.5583C5.58248 21.3919 5.77229 21.1698 5.9818 21.0035C6.77256 20.3755 7.38327 19.6347 7.9921 18.8022C8.1577 18.5757 8.32736 18.336 8.50231 18.0888C8.94698 17.4606 9.42587 16.784 9.95929 16.1536C11.7245 14.0674 13.7315 12.4932 16.0251 11.709C18.3372 10.9184 20.8541 10.9607 23.5631 11.9641C24.8605 12.4446 25.8087 13.4785 26.4765 14.5592C27.1502 15.6496 27.5995 16.8843 27.8624 17.9357C27.9143 18.1432 27.9669 18.3657 28.0221 18.5989C28.1828 19.2785 28.365 20.0488 28.6127 20.8033C28.9584 21.8563 29.3489 22.5938 29.7466 22.912C31.1554 24.039 32.4777 24.5311 34.3303 24.5311C34.5934 24.5311 35.0175 24.562 35.4671 24.5947C35.5284 24.5992 35.5901 24.6037 35.652 24.6081C36.1961 24.6473 36.8121 24.689 37.4053 24.7044C38.008 24.72 38.5394 24.7069 38.9255 24.6501C39.0699 24.6289 39.1678 24.6051 39.2284 24.5859C39.5185 24.2358 40.0212 24.1183 40.4453 24.3303C40.9393 24.5773 41.1395 25.178 40.8925 25.672C40.6845 26.0881 40.3169 26.2994 40.0633 26.4075C39.793 26.5227 39.4941 26.5881 39.2163 26.6289C38.6565 26.7111 37.9872 26.7202 37.3534 26.7037C36.71 26.687 36.0536 26.6422 35.5084 26.603C35.4506 26.5988 35.3947 26.5947 35.3405 26.5908C34.8566 26.5558 34.5149 26.5311 34.3303 26.5311C32.0068 26.5311 30.2474 25.8738 28.4973 24.4738C27.5968 23.7534 27.0622 22.4925 26.7125 21.4272C26.4353 20.5829 26.2232 19.6852 26.0598 18.9939C26.0094 18.7807 25.9637 18.5871 25.9221 18.4207C25.695 17.5123 25.3134 16.4818 24.775 15.6105C24.2307 14.7296 23.5856 14.1052 22.8685 13.8396C20.5455 12.9792 18.5043 12.975 16.6721 13.6014ZM4.66447 22.4419C4.66453 22.4415 4.66861 22.4386 4.67653 22.4344C4.66838 22.4401 4.66441 22.4422 4.66447 22.4419Z"
			fill="#EF528E" />
	</g>
	<defs>
		<clipPath id="clip0_3754_33664">
			<rect width="40" height="40" rx="20" fill="white" />
		</clipPath>
	</defs>
</svg>
