<svg width="44" height="44" viewBox="0 0 44 44" fill="none" xmlns="http://www.w3.org/2000/svg">
<circle cx="22" cy="22" r="22" fill="#2891E9"/>
<path d="M27.8587 30.2034C27.7945 29.8796 27.4761 29.6725 27.1544 29.7459C26.6323 29.865 25.8154 30.0102 24.9363 30.0102C22.1647 30.0102 19.9593 28.3115 19.0056 25.8379H24.5568C24.6899 25.8379 24.819 25.7926 24.9229 25.7094C25.0268 25.6263 25.0993 25.5103 25.1285 25.3804L25.4397 23.9957C25.522 23.6293 25.2435 23.2812 24.868 23.2812H18.3135C18.2544 22.5816 18.2444 21.9 18.3202 21.2185H25.478C25.6117 21.2185 25.7413 21.1728 25.8454 21.0891C25.9495 21.0053 26.0219 20.8884 26.0504 20.7579L26.3684 19.305C26.4484 18.9396 26.1701 18.5938 25.796 18.5938H19.0441C20.0516 16.3969 22.1052 14.9302 24.7873 14.9302C25.4946 14.9302 26.182 15.04 26.6354 15.1326C26.939 15.1945 27.2383 15.0106 27.3191 14.7115L27.9046 12.5451C27.9936 12.216 27.7843 11.8803 27.4493 11.8167C26.8583 11.7047 25.9058 11.5625 24.8767 11.5625C20.1314 11.5625 16.3022 14.5045 14.8884 18.5938H13.2734C12.9499 18.5938 12.6875 18.8561 12.6875 19.1797V20.6326C12.6875 20.9562 12.9499 21.2185 13.2734 21.2185H14.3266C14.2773 21.8829 14.2689 22.6485 14.3178 23.2812H13.2734C12.9499 23.2812 12.6875 23.5436 12.6875 23.8672V25.252C12.6875 25.5755 12.9499 25.8379 13.2734 25.8379H14.7438C15.9658 30.2486 19.7805 33.4375 24.8767 33.4375C26.1609 33.4375 27.2479 33.2156 27.8602 33.0572C28.1613 32.9793 28.3498 32.6809 28.2893 32.3757L27.8587 30.2034Z" fill="white"/>
</svg>
