<svg width="24" height="24" viewBox="0 0 24 24" fill="none" xmlns="http://www.w3.org/2000/svg">
  <rect width="24" height="24" rx="12" fill="#2048D5" />
  <path
    d="M14.3283 11.3026L13.915 12.2102H8.26012L8.59677 11.3026H14.3283ZM13.54 13.0625L13.101 13.983H8.26012L8.59677 13.0625H13.54ZM15.4022 8.98011L14.8056 10.25C14.6692 10.142 14.5144 10.0369 14.3411 9.93466C14.1678 9.83239 13.976 9.74716 13.7658 9.67898C13.5556 9.6108 13.3255 9.5767 13.0755 9.5767C12.6522 9.5767 12.2786 9.68892 11.9547 9.91335C11.6309 10.1349 11.3766 10.473 11.1919 10.9276C11.0101 11.3793 10.9192 11.9517 10.9192 12.6449C10.9192 13.3381 11.0101 13.9105 11.1919 14.3622C11.3766 14.8139 11.6309 15.1491 11.9547 15.3679C12.2786 15.5866 12.6522 15.696 13.0755 15.696C13.3255 15.696 13.5556 15.6634 13.7658 15.598C13.976 15.5327 14.165 15.4503 14.3326 15.3509C14.503 15.2514 14.6493 15.152 14.7715 15.0526L15.3766 16.3224C15.0726 16.5866 14.7218 16.7855 14.324 16.919C13.9292 17.0526 13.513 17.1193 13.0755 17.1193C12.3482 17.1193 11.7033 16.9418 11.1408 16.5866C10.5811 16.2287 10.1422 15.7159 9.82404 15.0483C9.50586 14.3778 9.34677 13.5767 9.34677 12.6449C9.34677 11.7102 9.50586 10.9077 9.82404 10.2372C10.1422 9.56676 10.5811 9.05256 11.1408 8.6946C11.7033 8.33381 12.3482 8.15341 13.0755 8.15341C13.53 8.15341 13.9519 8.22585 14.3411 8.37074C14.7331 8.51278 15.0868 8.71591 15.4022 8.98011Z"
    fill="#FAF105" />
</svg>
