<svg width="32" height="32" viewBox="0 0 32 32" fill="none" xmlns="http://www.w3.org/2000/svg">
    <path d="M16 32c8.837 0 16-7.163 16-16S24.837 0 16 0 0 7.163 0 16s7.163 16 16 16z" fill="url(#a)"/>
    <path d="M16 31.75c8.698 0 15.75-7.052 15.75-15.75S24.698.25 16 .25.25 7.302.25 16 7.302 31.75 16 31.75z" fill="url(#b)" stroke="#fff" stroke-width=".5"/>
    <path d="M13.558 9.455c-3.802 1.46-4.15 5.197-5.241 6.943-1.103 1.767-3.63 2.741-3.285 3.641.346.9 2.876-.066 4.878.508 1.978.567 4.738 3.113 8.54 1.653a6.808 6.808 0 0 0 3.985-4.087.315.315 0 0 0-.266-.421.312.312 0 0 0-.309.17 5.41 5.41 0 0 1-10.018-.897 61.813 61.813 0 0 1 3.957-1.671 62.136 62.136 0 0 1 3.988-1.385c.803-.246 1.54-.452 2.205-.62l.143-.035c.1-.025.203.029.24.125l.001.002c.022.057.041.115.061.173.132.372.23.748.296 1.124a.245.245 0 0 0 .356.176A29.022 29.022 0 0 0 24.581 14c1.662-1.024 2.584-1.892 2.395-2.384-.19-.493-1.455-.521-3.376-.17a30.48 30.48 0 0 0-2.4.548c-.613.162-1.26.349-1.934.558a64.162 64.162 0 0 0-3.987 1.386 64.79 64.79 0 0 0-3.66 1.53 5.41 5.41 0 0 1 7.376-5.071c.12.047.256.014.343-.08a.316.316 0 0 0-.085-.492 6.811 6.811 0 0 0-5.695-.37z" fill="#fff"/>
    <defs>
        <linearGradient id="a" x1="16" y1="0" x2="16" y2="32" gradientUnits="userSpaceOnUse">
            <stop stop-color="#424242"/>
            <stop offset="1"/>
        </linearGradient>
        <linearGradient id="b" x1="16" y1=".25" x2="16" y2="31.75" gradientUnits="userSpaceOnUse">
            <stop stop-color="#424242"/>
            <stop offset="1"/>
        </linearGradient>
    </defs>
</svg>
