<svg width="44" height="44" viewBox="0 0 44 44" fill="none" xmlns="http://www.w3.org/2000/svg">
<circle cx="22" cy="22" r="22" fill="#2891E9"/>
<path d="M29.7266 27.1875H27.5051C27.1815 27.1875 26.9192 27.4499 26.9192 27.7734V30.2562H20.9375V24.0625H25.0391C25.3626 24.0625 25.625 23.8001 25.625 23.4766V21.5234C25.625 21.1999 25.3626 20.9375 25.0391 20.9375H20.9375V17.8342C20.9375 16.2587 22.1368 15.0468 23.9547 15.0468C25.1099 15.0468 26.1948 15.6085 26.7697 15.9671C27.0212 16.124 27.3502 16.0673 27.5357 15.836L28.927 14.102C29.1337 13.8444 29.0871 13.467 28.8235 13.268C28.0236 12.6641 26.2391 11.5625 23.8638 11.5625C19.8646 11.5625 17.0312 14.1378 17.0312 17.7129V20.9375H15.6641C15.3405 20.9375 15.0781 21.1999 15.0781 21.5234V23.4766C15.0781 23.8001 15.3405 24.0625 15.6641 24.0625H17.0312V30.3125H15.2734C14.9499 30.3125 14.6875 30.5749 14.6875 30.8984V32.8516C14.6875 33.1751 14.9499 33.4375 15.2734 33.4375H29.7266C30.0501 33.4375 30.3125 33.1751 30.3125 32.8516V27.7734C30.3125 27.4499 30.0501 27.1875 29.7266 27.1875Z" fill="white"/>
</svg>
