<svg width="20" height="20" viewBox="0 0 20 20" fill="none" xmlns="http://www.w3.org/2000/svg">
<g id="Layer_1" clip-path="url(#clip0_3344_1613)">
<path id="Vector" d="M2.42397 3.45747C2.54745 3.30224 2.68151 3.15054 2.81205 3.00236C2.8191 2.9953 2.82969 2.99178 2.83674 2.98472C2.84733 2.97061 2.86849 2.96003 2.87908 2.94591L2.88966 2.9318C2.98139 2.84713 3.08017 2.7554 3.19307 2.67426C3.59173 2.37086 4.0045 2.14154 4.44196 1.98984C5.83904 1.49945 7.39487 1.80285 8.61554 2.95297C10.3195 4.55113 10.1678 7.12302 8.80605 8.83408C7.08793 11.3848 4.13503 14.941 8.22394 18.1267C8.95775 18.6982 9.50458 19.171 11.8189 19.8413C10.3054 20.12 8.9013 20.0318 7.33489 19.6332C6.23064 19.0087 4.49135 17.6716 3.89866 15.8688C3.00608 13.1311 5.47213 9.0387 6.66458 7.46523C8.30155 5.28495 5.65205 2.92475 3.70109 5.56013C2.68151 6.93251 0.896364 10.8203 1.51728 13.7027C1.88066 15.3361 2.364 16.5286 4.27968 18.1655C3.92335 17.9574 3.58114 17.7175 3.24598 17.4529C-1.20277 13.304 -0.684162 6.8937 2.42397 3.45747Z" fill="url(#paint0_linear_3344_1613)"/>
<path id="Vector_2" d="M17.5766 16.5424C17.4531 16.6977 17.3191 16.8494 17.1885 16.9976C17.1815 17.0046 17.1709 17.0081 17.1638 17.0152C17.1532 17.0293 17.1321 17.0399 17.1215 17.054L17.1109 17.0681C17.0192 17.1528 16.9204 17.2445 16.8075 17.3257C16.4088 17.6291 15.9961 17.8584 15.5586 18.0101C14.1615 18.5005 12.6057 18.1971 11.385 17.0469C9.68102 15.4488 9.83273 12.8769 11.1945 11.1658C12.9126 8.61512 15.8655 5.05894 11.7766 1.87319C11.0428 1.30166 10.496 0.828915 8.18164 0.158602C9.69514 -0.120106 11.0993 -0.0319075 12.6657 0.366752C13.7699 0.991201 15.5092 2.3283 16.1019 4.13108C16.9945 6.86878 14.5284 10.9612 13.336 12.5347C11.699 14.715 14.3485 17.0752 16.2995 14.4398C17.3191 13.0674 19.1042 9.17959 18.4833 6.29725C18.1199 4.66381 17.6366 3.47136 15.7209 1.83438C16.0772 2.04253 16.4194 2.28243 16.7546 2.54703C21.2069 6.69238 20.6883 13.1027 17.5766 16.5389V16.5424Z" fill="url(#paint1_linear_3344_1613)"/>
</g>
<defs>
<linearGradient id="paint0_linear_3344_1613" x1="0.000262442" y1="10.8803" x2="20.0003" y2="10.8803" gradientUnits="userSpaceOnUse">
<stop stop-color="#E30613"/>
<stop offset="1" stop-color="#FF7300"/>
</linearGradient>
<linearGradient id="paint1_linear_3344_1613" x1="0.000303507" y1="9.11962" x2="20.0003" y2="9.11962" gradientUnits="userSpaceOnUse">
<stop stop-color="#E30613"/>
<stop offset="1" stop-color="#FF7300"/>
</linearGradient>
<clipPath id="clip0_3344_1613">
<rect width="20" height="20" fill="white"/>
</clipPath>
</defs>
</svg>
