<svg width="24" height="24" viewBox="0 0 24 24" fill="none" xmlns="http://www.w3.org/2000/svg">
<circle cx="12" cy="12" r="12" fill="url(#paint0_linear_1552_4071)"/>
<path d="M7.06389 15V8.997H5.78589V15H7.06389ZM11.5136 15C12.6656 15 13.2596 14.28 13.2596 13.371C13.2596 12.624 12.7556 12.003 12.1076 11.904C12.6746 11.787 13.1426 11.274 13.1426 10.527C13.1426 9.726 12.5576 8.997 11.4146 8.997H8.25562V15H11.5136ZM11.1356 11.382H9.53362V10.122H11.1356C11.5676 10.122 11.8376 10.383 11.8376 10.752C11.8376 11.139 11.5676 11.382 11.1356 11.382ZM11.1896 13.875H9.53362V12.507H11.1896C11.6846 12.507 11.9546 12.813 11.9546 13.191C11.9546 13.623 11.6666 13.875 11.1896 13.875ZM17.1394 15.108C18.4534 15.108 19.2184 14.379 19.6414 13.632L18.5434 13.101C18.2914 13.587 17.7514 13.974 17.1394 13.974C16.0414 13.974 15.2494 13.137 15.2494 12.003C15.2494 10.869 16.0414 10.032 17.1394 10.032C17.7514 10.032 18.2914 10.419 18.5434 10.905L19.6414 10.365C19.2184 9.609 18.4534 8.898 17.1394 8.898C15.3304 8.898 13.9354 10.149 13.9354 12.003C13.9354 13.848 15.3304 15.108 17.1394 15.108Z" fill="white"/>
<defs>
<linearGradient id="paint0_linear_1552_4071" x1="4.5" y1="2.5" x2="19" y2="22" gradientUnits="userSpaceOnUse">
<stop stop-color="#6C42ED"/>
<stop offset="1" stop-color="#9F90CD"/>
</linearGradient>
</defs>
</svg>
