<svg width="24" height="24" viewBox="0 0 24 24" fill="none" xmlns="http://www.w3.org/2000/svg">
<rect width="24" height="24" rx="12" fill="#14151A"/>
<g clip-path="url(#clip0_883_3476)">
<path d="M5.93988 6.76534C6.03924 6.64046 6.14452 6.5203 6.2498 6.40014C6.25452 6.39418 6.2652 6.39298 6.26992 6.38702C6.2794 6.37514 6.2948 6.36798 6.30424 6.35606L6.31372 6.34418C6.38712 6.27634 6.4652 6.2025 6.55524 6.13818C6.8738 5.89634 7.2044 5.71262 7.553 5.59174C8.67112 5.19918 9.91576 5.4411 10.8918 6.36254C12.2546 7.64002 12.1326 9.69798 11.0447 11.0658C9.66992 13.1049 7.30736 15.9499 10.5785 18.4983C11.1667 18.9566 11.603 19.3344 13.4557 19.8698C12.244 20.093 11.1205 20.0235 9.86992 19.7041C8.98536 19.2049 7.59464 18.1358 7.12148 16.6919C6.40636 14.5024 8.38052 11.2292 9.3346 9.96858C10.6445 8.2239 8.52496 6.33522 6.96448 8.44374C6.1488 9.54258 4.72176 12.6521 5.21768 14.9585C5.50764 16.2665 5.89412 17.2199 7.42652 18.5296C7.14236 18.3619 6.8664 18.1717 6.59872 17.9589C3.03828 14.6423 3.45135 9.5143 5.93988 6.76534Z" fill="url(#paint0_linear_883_3476)"/>
<path d="M18.0602 17.2346C17.9609 17.3595 17.8556 17.4796 17.7503 17.5998C17.7456 17.6058 17.7349 17.607 17.7302 17.6129C17.7207 17.6248 17.7053 17.632 17.6959 17.6439L17.6864 17.6558C17.613 17.7236 17.5349 17.7974 17.4449 17.8618C17.1263 18.1036 16.7957 18.2873 16.4471 18.4082C15.329 18.8008 14.0844 18.5588 13.1083 17.6374C11.7455 16.3599 11.8675 14.302 12.9554 12.9341C14.3302 10.895 16.6928 8.05008 13.4216 5.5016C12.8334 5.04336 12.3971 4.66556 10.5444 4.13016C11.7561 3.90695 12.8796 3.97638 14.1302 4.2958C15.0148 4.79508 16.4055 5.86412 16.8786 7.308C17.5938 9.49752 15.6196 12.7707 14.6655 14.0314C13.3556 15.776 15.4752 17.6647 17.0356 15.5562C17.8513 14.4574 19.2784 11.3479 18.7824 9.0414C18.4925 7.73344 18.106 6.78004 16.5736 5.47036C16.8578 5.63804 17.1337 5.82824 17.4014 6.04104C20.9618 9.3576 20.5488 14.4856 18.0602 17.2346Z" fill="url(#paint1_linear_883_3476)"/>
</g>
<defs>
<linearGradient id="paint0_linear_883_3476" x1="4" y1="11.9999" x2="20" y2="11.9999" gradientUnits="userSpaceOnUse">
<stop stop-color="#0082FA"/>
<stop offset="1" stop-color="#00F2FE"/>
</linearGradient>
<linearGradient id="paint1_linear_883_3476" x1="4.00011" y1="12" x2="20.0001" y2="12" gradientUnits="userSpaceOnUse">
<stop stop-color="#0082FA"/>
<stop offset="1" stop-color="#00F2FE"/>
</linearGradient>
<clipPath id="clip0_883_3476">
<rect width="16" height="16" fill="white" transform="translate(4 4)"/>
</clipPath>
</defs>
</svg>
