<svg width="44" height="44" viewBox="0 0 44 44" fill="none" xmlns="http://www.w3.org/2000/svg">
<circle cx="22" cy="22" r="22" fill="#2891E9"/>
<path d="M30.2734 11.5625H27.085C26.8604 11.5625 26.6553 11.6895 26.5576 11.8896L23.8525 17.417C23.1445 19.1113 22.5293 20.9277 22.5293 20.9277H22.4658C22.4658 20.9277 21.8506 19.1113 21.1426 17.417L18.4375 11.8896C18.3398 11.6895 18.1348 11.5625 17.9102 11.5625H14.7266C14.2822 11.5625 14.0039 12.0361 14.209 12.4219L18.1201 19.7656H15.2734C14.9512 19.7656 14.6875 20.0293 14.6875 20.3516V21.9141C14.6875 22.2363 14.9512 22.5 15.2734 22.5H19.5801L20.5469 24.3164V25.625H15.2734C14.9512 25.625 14.6875 25.8887 14.6875 26.2109V27.7734C14.6875 28.0957 14.9512 28.3594 15.2734 28.3594H20.5469V32.8516C20.5469 33.1738 20.8105 33.4375 21.1328 33.4375H23.8672C24.1895 33.4375 24.4531 33.1738 24.4531 32.8516V28.3594H29.7266C30.0488 28.3594 30.3125 28.0957 30.3125 27.7734V26.2109C30.3125 25.8887 30.0488 25.625 29.7266 25.625H24.4531V24.3164L25.4199 22.5H29.7266C30.0488 22.5 30.3125 22.2363 30.3125 21.9141V20.3516C30.3125 20.0293 30.0488 19.7656 29.7266 19.7656H26.8799L30.791 12.4219C31.001 12.0361 30.7178 11.5625 30.2734 11.5625Z" fill="white"/>
</svg>
