<?xml version="1.0" encoding="utf-8"?>
<!-- Generator: Adobe Illustrator 25.0.0, SVG Export Plug-In . SVG Version: 6.00 Build 0)  -->
<svg version="1.1" id="图层_1" xmlns="http://www.w3.org/2000/svg" xmlns:xlink="http://www.w3.org/1999/xlink" x="0px" y="0px"
	 viewBox="0 0 800 800" style="enable-background:new 0 0 800 800;" xml:space="preserve">
<style type="text/css">
	.st0{clip-path:url(#SVGID_2_);fill:url(#SVGID_3_);}
	.st1{fill:#FFFFFF;}
</style>
<g>
	<g>
		<g>
			<defs>
				<path id="SVGID_1_" d="M400,0L400,0c220.9,0,400,179.1,400,400v0c0,220.9-179.1,400-400,400h0C179.1,800,0,620.9,0,400v0
					C0,179.1,179.1,0,400,0z"/>
			</defs>
			<clipPath id="SVGID_2_">
				<use xlink:href="#SVGID_1_"  style="overflow:visible;"/>
			</clipPath>
			<linearGradient id="SVGID_3_" gradientUnits="userSpaceOnUse" x1="406.3" y1="884.9" x2="406.3" y2="-98.5">
				<stop  offset="0" style="stop-color:#FF1800"/>
				<stop  offset="0.6746" style="stop-color:#FD8400"/>
				<stop  offset="1" style="stop-color:#FCB300"/>
			</linearGradient>
			<path class="st0" d="M632.2,884.9H180.4c-146.8,0-265.8-119-265.8-265.8V167.3c0-146.8,119-265.8,265.8-265.8h451.8
				C779-98.5,898,20.5,898,167.3v451.8C898,765.9,779,884.9,632.2,884.9z"/>
		</g>
	</g>
</g>
<g>
	<path class="st1" d="M532.4,574.8c-11.2-0.7-20.6,8.5-20.9,19.8c-0.3,10.3-7.7,20.7-16.8,23.6c-7.8,2.5-14.6,1.1-21.5-4.2
		c-12.4-9.7-21.2-30.8-20-48c2.7-39.3,18.6-76.8,35.4-116.5c8.6-20.3,17.4-41.2,24.3-62.3c20.3-62.4,22.2-117.3,5.8-163
		c-20.4-56.6-70.1-110-148.6-90.1c-61,15.5-105.6,83.7-101.4,155.4c1.9,32.9,12.7,65.5,26,95.7c-1.8-0.2-3.5-0.5-5.3-0.5
		c-54.8-2.9-100.8,39.1-103.6,93.3c-1.4,26.3,7.6,51.6,25.2,71.1c17.6,19.6,41.8,31.1,68.1,32.5c1.8,0.1,3.5,0.1,5.2,0.1
		c52.4,0,94.4-41.1,98.4-93.4c5.6-73.7-67.5-109.4-73.3-201.2c-3.3-52.8,28-102.6,70.8-113.5c61.5-15.6,89.2,33.7,100.2,64.4
		c13.3,37,11.2,83-6.2,136.6c-6.3,19.4-14.5,38.7-23.1,59.1c-17.4,41-35.3,83.5-38.5,129.6c-2.1,30.7,12.5,64.8,35.5,82.9
		c11.9,9.3,25.4,14.1,39.4,14.1c6.5,0,13.1-1,19.7-3.1c25.4-8.1,44.4-33.9,45.2-61.3C552.5,584.5,543.7,575.2,532.4,574.8z
		 M281,540.9c-15.4-0.8-29.6-7.6-39.9-19.1c-10.3-11.5-15.6-26.3-14.8-41.7c1.6-30.7,26.9-54.8,57.7-54.8c1,0,2.1,0,3.1,0.1
		c31.8,1.7,56.4,28.9,54.7,60.8C340.1,517.9,313.3,542.6,281,540.9z"/>
	<g>
		<path class="st1" d="M181.8,241.9l-6.7,15.2l-15,6c-0.2,0.1-0.3,0.3-0.3,0.5s0.1,0.4,0.3,0.5l15.1,6.4l6.1,15.4
			c0.1,0.2,0.3,0.3,0.5,0.3s0.4-0.1,0.5-0.3l6.3-15.8l15.4-5.4c0.2-0.1,0.3-0.3,0.3-0.5l0,0c0-0.2-0.1-0.4-0.3-0.5l-14.3-6
			l-6.9-15.8c-0.1-0.2-0.3-0.3-0.5-0.3C182,241.6,181.8,241.7,181.8,241.9z"/>
		<path class="st1" d="M319.4,632.6l-6.7,15.2l-15,6c-0.2,0.1-0.3,0.3-0.3,0.5s0.1,0.4,0.3,0.5l15.1,6.4l6.1,15.4
			c0.1,0.2,0.3,0.3,0.5,0.3s0.4-0.1,0.5-0.3l6.3-15.8l15.4-5.4c0.2-0.1,0.3-0.3,0.3-0.5l0,0c0-0.2-0.1-0.4-0.3-0.5l-14.3-6
			l-6.9-15.8c-0.1-0.2-0.3-0.3-0.5-0.3C319.7,632.3,319.5,632.5,319.4,632.6z"/>
		<path class="st1" d="M578,178.9l-6.7,15.2l-15,6c-0.2,0.1-0.3,0.3-0.3,0.5s0.1,0.4,0.3,0.5l15.1,6.4l6.1,15.4
			c0.1,0.2,0.3,0.3,0.5,0.3s0.4-0.1,0.5-0.3l6.3-15.8l15.4-5.4c0.2-0.1,0.3-0.3,0.3-0.5l0,0c0-0.2-0.1-0.4-0.3-0.5l-14.3-6
			l-6.9-15.8c-0.1-0.2-0.3-0.3-0.5-0.3C578.3,178.6,578.1,178.8,578,178.9z"/>
		<path class="st1" d="M125.3,309.8c0.5,3-1.5,5.8-4.5,6.2c-3,0.5-5.8-1.5-6.2-4.5c-0.5-3,1.5-5.8,4.5-6.2
			C122,304.9,124.8,306.9,125.3,309.8z"/>
		<path class="st1" d="M190.8,390c0.5,3-1.5,5.8-4.5,6.2c-3,0.5-5.8-1.5-6.2-4.5c-0.5-3,1.5-5.8,4.5-6.2
			C187.6,385,190.4,387,190.8,390z"/>
		<path class="st1" d="M532.4,444c0.5,3-1.5,5.8-4.5,6.2c-3,0.5-5.8-1.5-6.2-4.5c-0.5-3,1.5-5.8,4.5-6.2
			C529.1,439,531.9,441,532.4,444z"/>
		<path class="st1" d="M359.1,340.3c0.5,3-1.5,5.8-4.5,6.2c-3,0.5-5.8-1.5-6.2-4.5c-0.5-3,1.5-5.8,4.5-6.2
			C355.9,335.4,358.7,337.4,359.1,340.3z"/>
		<path class="st1" d="M678.4,525.7c0.5,3-1.5,5.8-4.5,6.2c-3,0.5-5.8-1.5-6.2-4.5c-0.5-3,1.5-5.8,4.5-6.2
			C675.1,520.7,677.9,522.7,678.4,525.7z"/>
		<path class="st1" d="M679,233.4c0.5,3-1.5,5.8-4.5,6.2c-3,0.5-5.8-1.5-6.2-4.5c-0.5-3,1.5-5.8,4.5-6.2
			C675.7,228.5,678.5,230.5,679,233.4z"/>
		<path class="st1" d="M568.4,706.1c0.5,3-1.5,5.8-4.5,6.2c-3,0.5-5.8-1.5-6.2-4.5c-0.5-3,1.5-5.8,4.5-6.2
			C565.2,701.2,567.9,703.2,568.4,706.1z"/>
		<path class="st1" d="M379.6,216.9c0.5,3-1.5,5.8-4.5,6.2c-3,0.5-5.8-1.5-6.2-4.5c-0.5-3,1.5-5.8,4.5-6.2
			C376.4,211.9,379.2,213.9,379.6,216.9z"/>
		<path class="st1" d="M394.3,103.9c0.5,3-1.5,5.8-4.5,6.2c-3,0.5-5.8-1.5-6.2-4.5c-0.5-3,1.5-5.8,4.5-6.2
			C391,99,393.8,101,394.3,103.9z"/>
		<path class="st1" d="M673,416.3c0.5,3-1.5,5.8-4.5,6.2c-3,0.5-5.8-1.5-6.2-4.5c-0.5-3,1.5-5.8,4.5-6.2
			C669.7,411.3,672.5,413.3,673,416.3z"/>
		<path class="st1" d="M351.2,714.6c0.5,3-1.5,5.8-4.5,6.2c-3,0.5-5.8-1.5-6.2-4.5c-0.5-3,1.5-5.8,4.5-6.2
			C347.9,709.6,350.7,711.6,351.2,714.6z"/>
		<path class="st1" d="M178.6,667.5c0.5,3-1.5,5.8-4.5,6.2c-3,0.5-5.8-1.5-6.2-4.5c-0.5-3,1.5-5.8,4.5-6.2
			C175.4,662.6,178.2,664.6,178.6,667.5z"/>
		<path class="st1" d="M242,304.7c0.3,2.1-1,4-3.1,4.4c-2.1,0.3-4-1-4.4-3.1c-0.3-2.1,1-4,3.1-4.4
			C239.7,301.2,241.7,302.6,242,304.7z"/>
		<path class="st1" d="M127.3,166.6c0.3,2.1-1,4-3.1,4.4c-2.1,0.3-4-1-4.4-3.1c-0.3-2.1,1-4,3.1-4.4
			C125,163.2,126.9,164.6,127.3,166.6z"/>
		<path class="st1" d="M622.8,163.8c0.3,2.1-1,4-3.1,4.4c-2.1,0.3-4-1-4.4-3.1c-0.3-2.1,1-4,3.1-4.4
			C620.5,160.3,622.5,161.7,622.8,163.8z"/>
		<path class="st1" d="M564.7,110.1c0.3,2.1-1,4-3.1,4.4c-2.1,0.3-4-1-4.4-3.1c-0.3-2.1,1-4,3.1-4.4
			C562.4,106.7,564.3,108.1,564.7,110.1z"/>
		<path class="st1" d="M294.5,136c0.3,2.1-1,4-3.1,4.4c-2.1,0.3-4-1-4.4-3.1c-0.3-2.1,1-4,3.1-4.4
			C292.2,132.6,294.2,133.9,294.5,136z"/>
		<path class="st1" d="M429.9,654.6c0.3,2.1-1,4-3.1,4.4c-2.1,0.3-4-1-4.4-3.1c-0.3-2.1,1-4,3.1-4.4S429.6,652.5,429.9,654.6z"/>
		<path class="st1" d="M212.6,579.8c0.3,2.1-1,4-3.1,4.4c-2.1,0.3-4-1-4.4-3.1c-0.3-2.1,1-4,3.1-4.4
			C210.3,576.3,212.3,577.7,212.6,579.8z"/>
		<path class="st1" d="M149,486.9c0.3,2.1-1,4-3.1,4.4c-2.1,0.3-4-1-4.4-3.1c-0.3-2.1,1-4,3.1-4.4
			C146.7,483.4,148.6,484.8,149,486.9z"/>
		<path class="st1" d="M641.5,301.7c0.3,2.1-1,4-3.1,4.4c-2.1,0.3-4-1-4.4-3.1c-0.3-2.1,1-4,3.1-4.4
			C639.2,298.2,641.2,299.6,641.5,301.7z"/>
		<path class="st1" d="M429.9,258.3c0.3,2.1-1,4-3.1,4.4c-2.1,0.3-4-1-4.4-3.1c-0.3-2.1,1-4,3.1-4.4
			C427.6,254.9,429.6,256.2,429.9,258.3z"/>
		<path class="st1" d="M234.2,166.6c0.3,2.1-1,4-3.1,4.4c-2.1,0.3-4-1-4.4-3.1c-0.3-2.1,1-4,3.1-4.4
			C231.9,163.2,233.8,164.6,234.2,166.6z"/>
		<path class="st1" d="M516.1,550.4c0.3,2.1-1,4-3.1,4.4c-2.1,0.3-4-1-4.4-3.1c-0.3-2.1,1-4,3.1-4.4
			C513.8,547,515.8,548.4,516.1,550.4z"/>
		<path class="st1" d="M421.2,384.8c0.3,2.1-1,4-3.1,4.4c-2.1,0.3-4-1-4.4-3.1c-0.3-2.1,1-4,3.1-4.4
			C418.9,381.4,420.8,382.8,421.2,384.8z"/>
		<path class="st1" d="M156.5,238.4c0.2,1.4-0.7,2.6-2,2.9c-1.4,0.2-2.6-0.7-2.9-2c-0.2-1.4,0.7-2.6,2-2.9
			C155,236.1,156.3,237,156.5,238.4z"/>
		<path class="st1" d="M211.3,88.9c0.2,1.4-0.7,2.6-2,2.9c-1.4,0.2-2.6-0.7-2.9-2c-0.2-1.4,0.7-2.6,2-2.9
			C209.8,86.7,211.1,87.6,211.3,88.9z"/>
		<path class="st1" d="M527,96.8c0.2,1.4-0.7,2.6-2,2.9c-1.4,0.2-2.6-0.7-2.9-2c-0.2-1.4,0.7-2.6,2-2.9S526.8,95.5,527,96.8z"/>
		<path class="st1" d="M639,136.2c0.2,1.4-0.7,2.6-2,2.9s-2.6-0.7-2.9-2c-0.2-1.4,0.7-2.6,2-2.9C637.5,134,638.8,134.9,639,136.2z"
			/>
		<path class="st1" d="M307.6,109.8c0.2,1.4-0.7,2.6-2,2.9c-1.4,0.2-2.6-0.7-2.9-2c-0.2-1.4,0.7-2.6,2-2.9
			C306.1,107.6,307.4,108.5,307.6,109.8z"/>
		<path class="st1" d="M711.4,296.6c0.2,1.4-0.7,2.6-2,2.9c-1.4,0.2-2.6-0.7-2.9-2c-0.2-1.4,0.7-2.6,2-2.9S711.2,295.3,711.4,296.6z
			"/>
		<path class="st1" d="M717.5,406.8c0.2,1.4-0.7,2.6-2,2.9c-1.4,0.2-2.6-0.7-2.9-2c-0.2-1.4,0.7-2.6,2-2.9
			C716,404.5,717.2,405.4,717.5,406.8z"/>
		<path class="st1" d="M560.9,288.3c0.2,1.4-0.7,2.6-2,2.9c-1.4,0.2-2.6-0.7-2.9-2c-0.2-1.4,0.7-2.6,2-2.9
			C559.4,286,560.6,286.9,560.9,288.3z"/>
		<path class="st1" d="M622.8,378.8c0.2,1.4-0.7,2.6-2,2.9s-2.6-0.7-2.9-2c-0.2-1.4,0.7-2.6,2-2.9
			C621.3,376.5,622.5,377.4,622.8,378.8z"/>
		<path class="st1" d="M636.5,459.2c0.2,1.4-0.7,2.6-2,2.9c-1.4,0.2-2.6-0.7-2.9-2c-0.2-1.4,0.7-2.6,2-2.9
			C635,457,636.2,457.9,636.5,459.2z"/>
		<path class="st1" d="M705.9,557.6c0.2,1.4-0.7,2.6-2,2.9c-1.4,0.2-2.6-0.7-2.9-2c-0.2-1.4,0.7-2.6,2-2.9
			C704.4,555.3,705.7,556.2,705.9,557.6z"/>
		<path class="st1" d="M560.7,529.1c0.2,1.4-0.7,2.6-2,2.9c-1.4,0.2-2.6-0.7-2.9-2c-0.2-1.4,0.7-2.6,2-2.9
			C559.2,526.9,560.5,527.8,560.7,529.1z"/>
		<path class="st1" d="M412.6,676.3c0.2,1.4-0.7,2.6-2,2.9c-1.4,0.2-2.6-0.7-2.9-2c-0.2-1.4,0.7-2.6,2-2.9
			C411.1,674,412.4,674.9,412.6,676.3z"/>
		<path class="st1" d="M412.6,487.1c0.2,1.4-0.7,2.6-2,2.9c-1.4,0.2-2.6-0.7-2.9-2c-0.2-1.4,0.7-2.6,2-2.9
			C411.1,484.8,412.4,485.7,412.6,487.1z"/>
		<path class="st1" d="M349.1,592.7c0.2,1.4-0.7,2.6-2,2.9c-1.4,0.2-2.6-0.7-2.9-2c-0.2-1.4,0.7-2.6,2-2.9
			C347.6,590.4,348.9,591.4,349.1,592.7z"/>
		<path class="st1" d="M290.7,631.9c0.2,1.4-0.7,2.6-2,2.9c-1.4,0.2-2.6-0.7-2.9-2c-0.2-1.4,0.7-2.6,2-2.9
			C289.2,629.7,290.5,630.6,290.7,631.9z"/>
		<path class="st1" d="M511.9,689.9c0.2,1.4-0.7,2.6-2,2.9c-1.4,0.2-2.6-0.7-2.9-2c-0.2-1.4,0.7-2.6,2-2.9
			C510.4,687.6,511.7,688.5,511.9,689.9z"/>
		<path class="st1" d="M553,433.7c0.2,1.4-0.7,2.6-2,2.9c-1.4,0.2-2.6-0.7-2.9-2c-0.2-1.4,0.7-2.6,2-2.9
			C551.5,431.4,552.8,432.3,553,433.7z"/>
		<path class="st1" d="M391.4,285.8c0.2,1.4-0.7,2.6-2,2.9c-1.4,0.2-2.6-0.7-2.9-2c-0.2-1.4,0.7-2.6,2-2.9
			C389.9,283.5,391.2,284.4,391.4,285.8z"/>
		<path class="st1" d="M437,402.4c0.2,1.4-0.7,2.6-2,2.9c-1.4,0.2-2.6-0.7-2.9-2c-0.2-1.4,0.7-2.6,2-2.9S436.7,401,437,402.4z"/>
		<path class="st1" d="M644,555.1c0.2,1.4-0.7,2.6-2,2.9c-1.4,0.2-2.6-0.7-2.9-2c-0.2-1.4,0.7-2.6,2-2.9
			C642.5,552.8,643.8,553.7,644,555.1z"/>
		<path class="st1" d="M213.8,368.2c0.2,1.4-0.7,2.6-2,2.9c-1.4,0.2-2.6-0.7-2.9-2c-0.2-1.4,0.7-2.6,2-2.9
			C212.3,365.9,213.6,366.8,213.8,368.2z"/>
		<path class="st1" d="M120.8,465.4c0.2,1.4-0.7,2.6-2,2.9c-1.4,0.2-2.6-0.7-2.9-2c-0.2-1.4,0.7-2.6,2-2.9
			C119.3,463.1,120.6,464,120.8,465.4z"/>
		<path class="st1" d="M127.9,611.6c0.2,1.4-0.7,2.6-2,2.9c-1.4,0.2-2.6-0.7-2.9-2c-0.2-1.4,0.7-2.6,2-2.9
			C126.4,609.3,127.6,610.2,127.9,611.6z"/>
		<path class="st1" d="M98.7,349c0.2,1.4-0.7,2.6-2,2.9c-1.4,0.2-2.6-0.7-2.9-2c-0.2-1.4,0.7-2.6,2-2.9
			C97.2,346.8,98.5,347.7,98.7,349z"/>
		<path class="st1" d="M430.7,81.2c0.2,1.4-0.7,2.6-2,2.9c-1.4,0.2-2.6-0.7-2.9-2c-0.2-1.4,0.7-2.6,2-2.9
			C429.2,78.9,430.5,79.8,430.7,81.2z"/>
		<path class="st1" d="M493.4,150.9c0.2,1.4-0.7,2.6-2,2.9c-1.4,0.2-2.6-0.7-2.9-2c-0.2-1.4,0.7-2.6,2-2.9
			C491.9,148.6,493.2,149.6,493.4,150.9z"/>
		<path class="st1" d="M415.1,228.5c0.2,1.4-0.7,2.6-2,2.9c-1.4,0.2-2.6-0.7-2.9-2c-0.2-1.4,0.7-2.6,2-2.9
			C413.6,226.2,414.9,227.1,415.1,228.5z"/>
		<path class="st1" d="M656.6,660.4c0.2,1.4-0.7,2.6-2,2.9c-1.4,0.2-2.6-0.7-2.9-2c-0.2-1.4,0.7-2.6,2-2.9
			C655.1,658.1,656.4,659.1,656.6,660.4z"/>
		<path class="st1" d="M253.5,709.3c0.2,1.4-0.7,2.6-2,2.9c-1.4,0.2-2.6-0.7-2.9-2s0.7-2.6,2-2.9C252,707,253.3,707.9,253.5,709.3z"
			/>
		<path class="st1" d="M87.4,522.8c0.2,1.4-0.7,2.6-2,2.9c-1.4,0.2-2.6-0.7-2.9-2c-0.2-1.4,0.7-2.6,2-2.9
			C85.9,520.5,87.2,521.4,87.4,522.8z"/>
		<path class="st1" d="M610.2,347.8c0.9,5.4-2.7,10.5-8.1,11.4c-5.4,0.9-10.5-2.7-11.4-8.1s2.7-10.5,8.1-11.4
			C604.2,338.8,609.3,342.4,610.2,347.8z"/>
		<path class="st1" d="M155,558.8c0.9,5.4-2.7,10.5-8.1,11.4c-5.4,0.9-10.5-2.7-11.4-8.1c-0.9-5.4,2.7-10.5,8.1-11.4
			C149,549.8,154.1,553.4,155,558.8z"/>
		<path class="st1" d="M625.6,641.8c0.9,5.4-2.7,10.5-8.1,11.4c-5.4,0.9-10.5-2.7-11.4-8.1c-0.9-5.4,2.7-10.5,8.1-11.4
			C619.6,632.8,624.7,636.4,625.6,641.8z"/>
		<path class="st1" d="M265.5,184.7c0.9,5.4-2.7,10.5-8.1,11.4s-10.5-2.7-11.4-8.1c-0.9-5.4,2.7-10.5,8.1-11.4
			C259.6,175.7,264.6,179.4,265.5,184.7z"/>
	</g>
</g>
</svg>
