<svg width="40" height="40" viewBox="0 0 40 40" fill="none" xmlns="http://www.w3.org/2000/svg">
	<g clip-path="url(#clip0_3754_33668)">
		<rect width="40" height="40" rx="20" fill="#C651EF" />
		<path fill-rule="evenodd" clip-rule="evenodd"
			d="M15.2071 28.261C13.9072 28.1539 12.6301 27.7826 11.8714 27.4791C11.7533 27.4319 11.6272 27.4076 11.5 27.4076C11.3839 27.4076 11.24 27.3662 11.0436 27.123C10.8311 26.86 10.6277 26.4367 10.4578 25.8703C10.1204 24.7454 10 23.3504 10 22.4076V9.90761C10 8.72276 9.53778 7.79667 8.67169 7.23121C7.87901 6.71369 6.88513 6.59082 5.96752 6.62064C4.11734 6.68077 1.98241 7.3863 0.599182 7.99146L1.40082 9.82377C2.68426 9.26227 4.54933 8.66779 6.03248 8.61959C6.78154 8.59524 7.28766 8.71612 7.57832 8.90589C7.79555 9.04772 8 9.29247 8 9.90761V22.4076C8 23.4648 8.12964 25.0698 8.54217 26.445C8.74726 27.1286 9.04388 27.8302 9.48769 28.3797C9.91027 28.9029 10.5091 29.3325 11.2893 29.3988C12.2047 29.7472 13.5969 30.1352 15.0429 30.2542C16.5391 30.3775 18.321 30.2314 19.6247 29.1885C19.8005 29.0478 19.9238 28.8519 19.9744 28.6325C20.4724 26.4743 21.5 21.3363 21.5 18.4073C21.5 17.1185 21.6143 15.4698 21.9043 14.093C22.0499 13.4017 22.2306 12.8242 22.4376 12.4063C22.6578 11.9618 22.8305 11.8521 22.8713 11.8358C22.9 11.8243 22.9288 11.8128 22.9574 11.8013C23.5711 11.5558 24.1625 11.3191 24.7374 11.1737C25.3441 11.0203 25.8017 11.0052 26.1364 11.1109C26.4167 11.1994 26.7309 11.4089 26.9999 12.0156C27.2835 12.6553 27.4959 13.7009 27.4999 15.3585C27.3324 17.0679 27.2552 19.6077 27.5872 21.713C27.7527 22.7626 28.0355 23.8135 28.5392 24.5998C28.7972 25.0026 29.139 25.3766 29.5924 25.6265C30.038 25.872 30.5378 25.9673 31.0633 25.9073H34.5C35.1418 25.9073 35.6101 25.4767 35.8988 25.0848C36.2126 24.659 36.4834 24.0624 36.7098 23.2879C37.1585 21.7534 37.4912 19.3159 37.4998 15.5578C37.5191 15.5527 37.5424 15.5475 37.5703 15.5427C37.9468 15.4776 38.8459 15.5442 40.5939 16.3211L41.4061 14.4935C39.5541 13.6703 38.2032 13.4036 37.2297 13.5719C36.7196 13.66 36.2742 13.8758 35.9536 14.2321C35.634 14.5871 35.5 15.0148 35.5 15.4073C35.5 19.1636 35.1689 21.4316 34.7902 22.7266C34.6 23.3772 34.4124 23.7305 34.2887 23.8984C34.2865 23.9015 34.2843 23.9044 34.2821 23.9073H31C30.9527 23.9073 30.9054 23.9106 30.8586 23.9173C30.7127 23.9382 30.6264 23.9127 30.5576 23.8748C30.4746 23.829 30.357 23.7296 30.2233 23.521C29.9436 23.0844 29.714 22.3603 29.5628 21.4015C29.2647 19.5111 29.3327 17.1305 29.495 15.5068C29.4983 15.4737 29.5 15.4405 29.5 15.4073C29.5 13.593 29.2762 12.2152 28.8282 11.205C28.3629 10.1555 27.6458 9.49008 26.7386 9.20366C25.8858 8.93444 24.9997 9.04442 24.247 9.23476C23.5378 9.4141 22.831 9.69736 22.2469 9.93143C22.2069 9.94745 22.1675 9.96324 22.1287 9.97875C21.4039 10.2686 20.9437 10.9162 20.6454 11.5186C20.3338 12.1477 20.1102 12.907 19.9472 13.6808C19.62 15.2342 19.5 17.0294 19.5 18.4073C19.5 20.9346 18.6293 25.484 18.1104 27.8089C17.4079 28.2239 16.3862 28.3581 15.2071 28.261ZM34.2085 23.9905C34.2086 23.991 34.2127 23.988 34.2207 23.9801C34.2125 23.9861 34.2085 23.99 34.2085 23.9905ZM37.4197 15.5888C37.4197 15.5888 37.4208 15.5882 37.4227 15.5867C37.4206 15.588 37.4196 15.5887 37.4197 15.5888Z"
			fill="#63DE38" />
	</g>
	<defs>
		<clipPath id="clip0_3754_33668">
			<rect width="40" height="40" rx="20" fill="white" />
		</clipPath>
	</defs>
</svg>
