<?xml version="1.0" encoding="utf-8"?>
<!-- Generator: Adobe Illustrator 25.0.0, SVG Export Plug-In . SVG Version: 6.00 Build 0)  -->
<svg version="1.1" id="图层_1" xmlns="http://www.w3.org/2000/svg" xmlns:xlink="http://www.w3.org/1999/xlink" x="0px" y="0px"
	 viewBox="0 0 800 800" style="enable-background:new 0 0 800 800;" xml:space="preserve">
<style type="text/css">
	.st0{clip-path:url(#SVGID_2_);fill:url(#SVGID_3_);}
	.st1{fill:#FFFFFF;}
</style>
<g>
	<g>
		<g>
			<defs>
				<path id="SVGID_1_" d="M400,0L400,0c220.9,0,400,179.1,400,400v0c0,220.9-179.1,400-400,400h0C179.1,800,0,620.9,0,400v0
					C0,179.1,179.1,0,400,0z"/>
			</defs>
			<clipPath id="SVGID_2_">
				<use xlink:href="#SVGID_1_"  style="overflow:visible;"/>
			</clipPath>
			<linearGradient id="SVGID_3_" gradientUnits="userSpaceOnUse" x1="388.2" y1="953.7" x2="388.2" y2="-82.9">
				<stop  offset="0" style="stop-color:#ADB2FF"/>
				<stop  offset="2.078015e-02" style="stop-color:#AAAFFD"/>
				<stop  offset="0.4816" style="stop-color:#6E78D4"/>
				<stop  offset="0.821" style="stop-color:#4956BB"/>
				<stop  offset="1" style="stop-color:#3B49B1"/>
			</linearGradient>
			<path class="st0" d="M615.9,953.7H160.5c-148,0-268-125.5-268-280.2V197.3c0-154.8,120-280.2,268-280.2h455.4
				c148,0,268,125.5,268,280.2v476.2C883.9,828.3,763.9,953.7,615.9,953.7z"/>
		</g>
	</g>
</g>
<g>
	<g>
		<path class="st1" d="M158.6,465h123.6c11.4,0,20.6-9.2,20.6-20.6c0-3-0.6-5.8-1.8-8.3c-0.7-2.6-2-5.1-3.8-7.3
			c-19-23.6-29-52.1-29-82.3c0-72.5,59-131.5,131.5-131.5s131.5,59,131.5,131.5c0,30.2-10,58.7-29,82.3c-4.5,5.6-5.6,12.9-3.5,19.3
			c1.8,9.6,10.1,16.9,20.3,16.9h123.6c11.4,0,20.6-9.2,20.6-20.6s-9.2-20.6-20.6-20.6h-88.5c12-23.9,18.5-50.3,18.5-77.2
			c0-95.3-77.5-172.8-172.8-172.8S227,251.2,227,346.5c0,26.9,6.5,53.3,18.5,77.2h-86.9c-11.4,0-20.6,9.2-20.6,20.6
			C137.9,455.8,147.2,465,158.6,465z"/>
		<path class="st1" d="M642.6,511.4h-484c-11.4,0-20.6,9.2-20.6,20.6s9.2,20.6,20.6,20.6h484c11.4,0,20.6-9.2,20.6-20.6
			C663.2,520.6,654,511.4,642.6,511.4z"/>
	</g>
	<g>
		<path class="st1" d="M311.4,96.8c0,3-2.5,5.5-5.5,5.5s-5.5-2.5-5.5-5.5s2.5-5.5,5.5-5.5S311.4,93.7,311.4,96.8z"/>
		<path class="st1" d="M177.6,380.1c-2.9-0.9-4.5-4.1-3.5-6.9c0.9-2.9,4.1-4.5,6.9-3.5c2.9,0.9,4.5,4.1,3.5,6.9
			C183.6,379.5,180.5,381.1,177.6,380.1z"/>
		<path class="st1" d="M115.5,253c0,3-2.5,5.5-5.5,5.5s-5.5-2.5-5.5-5.5s2.5-5.5,5.5-5.5S115.5,249.9,115.5,253z"/>
		<circle class="st1" cx="452.2" cy="423.9" r="5.5"/>
		<circle class="st1" cx="88" cy="495.1" r="5.5"/>
		<path class="st1" d="M694.8,276.3c0,3-2.5,5.5-5.5,5.5s-5.5-2.5-5.5-5.5s2.5-5.5,5.5-5.5S694.8,273.3,694.8,276.3z"/>
		<path class="st1" d="M520.6,709.6c0,3-2.5,5.5-5.5,5.5s-5.5-2.5-5.5-5.5s2.5-5.5,5.5-5.5S520.6,706.6,520.6,709.6z"/>
		<path class="st1" d="M521.9,582.9c0,3-2.5,5.5-5.5,5.5s-5.5-2.5-5.5-5.5s2.5-5.5,5.5-5.5S521.9,579.8,521.9,582.9z"/>
		<path class="st1" d="M486.7,153.1c0,3-2.5,5.5-5.5,5.5s-5.5-2.5-5.5-5.5s2.5-5.5,5.5-5.5C484.3,147.6,486.7,150.1,486.7,153.1z"/>
		<circle class="st1" cx="668.5" cy="601.8" r="5.5"/>
		<path class="st1" d="M287.3,702.5c0,3-2.5,5.5-5.5,5.5s-5.5-2.5-5.5-5.5s2.5-5.5,5.5-5.5S287.3,699.5,287.3,702.5z"/>
		<circle class="st1" cx="134.1" cy="624.6" r="5.5"/>
		<path class="st1" d="M283.4,117.8c0,2.1-1.7,3.8-3.8,3.8c-2.1,0-3.8-1.7-3.8-3.8c0-2.1,1.7-3.8,3.8-3.8
			C281.7,113.9,283.4,115.7,283.4,117.8z"/>
		<path class="st1" d="M154.7,117.8c0,2.1-1.7,3.8-3.8,3.8s-3.8-1.7-3.8-3.8c0-2.1,1.7-3.8,3.8-3.8
			C152.9,113.9,154.7,115.7,154.7,117.8z"/>
		<path class="st1" d="M567.3,215.1c0,2.1-1.7,3.8-3.8,3.8s-3.8-1.7-3.8-3.8s1.7-3.8,3.8-3.8S567.3,213,567.3,215.1z"/>
		<path class="st1" d="M608.6,103.9c0,2.1-1.7,3.8-3.8,3.8s-3.8-1.7-3.8-3.8c0-2.1,1.7-3.8,3.8-3.8S608.6,101.8,608.6,103.9z"/>
		<path class="st1" d="M375.9,655.7c0,2.1-1.7,3.8-3.8,3.8c-2.1,0-3.8-1.7-3.8-3.8s1.7-3.8,3.8-3.8
			C374.2,651.9,375.9,653.6,375.9,655.7z"/>
		<path class="st1" d="M445.4,247.5c0,2.1-1.7,3.8-3.8,3.8c-2.1,0-3.8-1.7-3.8-3.8s1.7-3.8,3.8-3.8
			C443.6,243.7,445.4,245.4,445.4,247.5z"/>
		<path class="st1" d="M557.1,496c0,2.1-1.7,3.8-3.8,3.8s-3.8-1.7-3.8-3.8c0-2.1,1.7-3.8,3.8-3.8C555.4,492.2,557.1,493.9,557.1,496
			z"/>
		<path class="st1" d="M339,281c0,2.1-1.7,3.8-3.8,3.8c-2.1,0-3.8-1.7-3.8-3.8c0-2.1,1.7-3.8,3.8-3.8C337.2,277.1,339,278.9,339,281
			z"/>
		<path class="st1" d="M397.6,343.6c0,2.1-1.7,3.8-3.8,3.8c-2.1,0-3.8-1.7-3.8-3.8c0-2.1,1.7-3.8,3.8-3.8
			C395.9,339.8,397.6,341.5,397.6,343.6z"/>
		<circle class="st1" cx="489.7" cy="615.9" r="3.8"/>
		<path class="st1" d="M171.9,194.3c0,1.4-1.1,2.5-2.5,2.5s-2.5-1.1-2.5-2.5s1.1-2.5,2.5-2.5C170.8,191.8,171.9,192.9,171.9,194.3z"
			/>
		<path class="st1" d="M370.7,132c0,1.4-1.1,2.5-2.5,2.5s-2.5-1.1-2.5-2.5s1.1-2.5,2.5-2.5C369.6,129.4,370.7,130.6,370.7,132z"/>
		<path class="st1" d="M239.1,87.4c0,1.4-1.1,2.5-2.5,2.5s-2.5-1.1-2.5-2.5s1.1-2.5,2.5-2.5S239.1,86,239.1,87.4z"/>
		<path class="st1" d="M671,170c0,1.4-1.1,2.5-2.5,2.5s-2.5-1.1-2.5-2.5s1.1-2.5,2.5-2.5S671,168.6,671,170z"/>
		<circle class="st1" cx="715" cy="379.9" r="2.5"/>
		<path class="st1" d="M676.5,507.1c0,1.4-1.1,2.5-2.5,2.5s-2.5-1.1-2.5-2.5s1.1-2.5,2.5-2.5S676.5,505.7,676.5,507.1z"/>
		<path class="st1" d="M541.6,602.1c0,1.4-1.1,2.5-2.5,2.5s-2.5-1.1-2.5-2.5s1.1-2.5,2.5-2.5C540.5,599.5,541.6,600.7,541.6,602.1z"
			/>
		<path class="st1" d="M652.3,630c0,1.4-1.1,2.5-2.5,2.5s-2.5-1.1-2.5-2.5s1.1-2.5,2.5-2.5C651.1,627.5,652.3,628.7,652.3,630z"/>
		<path class="st1" d="M354.9,674.4c0,1.4-1.1,2.5-2.5,2.5s-2.5-1.1-2.5-2.5s1.1-2.5,2.5-2.5S354.9,673.1,354.9,674.4z"/>
		<path class="st1" d="M304.1,590c0,1.4-1.1,2.5-2.5,2.5s-2.5-1.1-2.5-2.5s1.1-2.5,2.5-2.5S304.1,588.7,304.1,590z"/>
		<path class="st1" d="M227,663.4c0,1.4-1.1,2.5-2.5,2.5s-2.5-1.1-2.5-2.5s1.1-2.5,2.5-2.5S227,662.1,227,663.4z"/>
		<path class="st1" d="M454.7,687.6c0,1.4-1.1,2.5-2.5,2.5s-2.5-1.1-2.5-2.5s1.1-2.5,2.5-2.5S454.7,686.2,454.7,687.6z"/>
		<path class="st1" d="M472,438.6c0,1.4-1.1,2.5-2.5,2.5s-2.5-1.1-2.5-2.5s1.1-2.5,2.5-2.5S472,437.2,472,438.6z"/>
		<path class="st1" d="M322.8,420.6c0,1.4-1.1,2.5-2.5,2.5s-2.5-1.1-2.5-2.5s1.1-2.5,2.5-2.5C321.6,418.1,322.8,419.2,322.8,420.6z"
			/>
		<path class="st1" d="M368.2,362.3c0,1.4-1.1,2.5-2.5,2.5s-2.5-1.1-2.5-2.5s1.1-2.5,2.5-2.5S368.2,360.9,368.2,362.3z"/>
		<path class="st1" d="M614.8,382.4c0,1.4-1.1,2.5-2.5,2.5s-2.5-1.1-2.5-2.5s1.1-2.5,2.5-2.5S614.8,381,614.8,382.4z"/>
		<path class="st1" d="M212.8,354.6c0,1.4-1.1,2.5-2.5,2.5s-2.5-1.1-2.5-2.5s1.1-2.5,2.5-2.5S212.8,353.2,212.8,354.6z"/>
		<path class="st1" d="M118,401.9c0,1.4-1.1,2.5-2.5,2.5s-2.5-1.1-2.5-2.5s1.1-2.5,2.5-2.5S118,400.5,118,401.9z"/>
		<path class="st1" d="M107,571.8c0,1.4-1.1,2.5-2.5,2.5s-2.5-1.1-2.5-2.5s1.1-2.5,2.5-2.5C105.8,569.2,107,570.4,107,571.8z"/>
		<path class="st1" d="M95.2,305.9c-1.3-0.4-2-1.9-1.6-3.2c0.4-1.3,1.9-2,3.2-1.6s2,1.9,1.6,3.2C98,305.6,96.6,306.4,95.2,305.9z"/>
		<path class="st1" d="M474.5,91.3c0,1.4-1.1,2.5-2.5,2.5s-2.5-1.1-2.5-2.5s1.1-2.5,2.5-2.5C473.4,88.7,474.5,89.9,474.5,91.3z"/>
		<path class="st1" d="M523.1,163c0,1.4-1.1,2.5-2.5,2.5s-2.5-1.1-2.5-2.5s1.1-2.5,2.5-2.5C521.9,160.5,523.1,161.6,523.1,163z"/>
		<path class="st1" d="M497.9,324.9c0,1.4-1.1,2.5-2.5,2.5s-2.5-1.1-2.5-2.5s1.1-2.5,2.5-2.5S497.9,323.5,497.9,324.9z"/>
		<path class="st1" d="M419.8,481.9c0,1.4-1.1,2.5-2.5,2.5s-2.5-1.1-2.5-2.5s1.1-2.5,2.5-2.5C418.7,479.4,419.8,480.5,419.8,481.9z"
			/>
		<path class="st1" d="M603.5,686.5c0,1.4-1.1,2.5-2.5,2.5s-2.5-1.1-2.5-2.5s1.1-2.5,2.5-2.5S603.5,685.1,603.5,686.5z"/>
		<path class="st1" d="M417.3,574.3c0,1.4-1.1,2.5-2.5,2.5s-2.5-1.1-2.5-2.5s1.1-2.5,2.5-2.5S417.3,572.9,417.3,574.3z"/>
		<path class="st1" d="M190.5,681c0,1.4-1.1,2.5-2.5,2.5s-2.5-1.1-2.5-2.5s1.1-2.5,2.5-2.5S190.5,679.6,190.5,681z"/>
		<path class="st1" d="M233.4,482.1c0,1.4-1.1,2.5-2.5,2.5s-2.5-1.1-2.5-2.5s1.1-2.5,2.5-2.5C232.3,479.6,233.4,480.7,233.4,482.1z"
			/>
		<circle class="st1" cx="236.6" cy="183.7" r="10"/>
		<circle class="st1" cx="188" cy="590" r="10"/>
		<path class="st1" d="M573.5,675.5c0,5.5-4.5,10-10,10s-10-4.5-10-10s4.5-10,10-10S573.5,669.9,573.5,675.5z"/>
		<circle class="st1" cx="547" cy="133.5" r="10"/>
		<path class="st1" d="M207.7,230.3l-15.4-6.9l-6-15.3c-0.1-0.2-0.3-0.3-0.5-0.3s-0.4,0.1-0.5,0.3l-6.6,15.3l-15.6,6
			c-0.2,0.1-0.3,0.3-0.3,0.5s0.1,0.4,0.3,0.5l16,6.5l5.4,15.7c0.1,0.2,0.3,0.3,0.5,0.4l0,0c0.2,0,0.4-0.1,0.5-0.3l6.2-14.4l16-6.9
			c0.2-0.1,0.3-0.3,0.3-0.5C208,230.6,207.9,230.4,207.7,230.3z"/>
		<path class="st1" d="M659.4,347.4l-15.4-6.9l-6-15.3c-0.1-0.2-0.3-0.3-0.5-0.3s-0.4,0.1-0.5,0.3l-6.6,15.3l-15.6,6
			c-0.2,0.1-0.3,0.3-0.3,0.5s0.1,0.4,0.3,0.5l16,6.5l5.4,15.7c0.1,0.2,0.3,0.3,0.5,0.4l0,0c0.2,0,0.4-0.1,0.5-0.3l6.2-14.4l16-6.9
			c0.2-0.1,0.3-0.3,0.3-0.5C659.7,347.7,659.6,347.5,659.4,347.4z"/>
		<path class="st1" d="M357.4,619.3l-15.4-6.9l-6-15.3c-0.1-0.2-0.3-0.3-0.5-0.3s-0.4,0.1-0.5,0.3l-6.6,15.3l-15.6,6
			c-0.2,0.1-0.3,0.3-0.3,0.5s0.1,0.4,0.3,0.5l16,6.5l5.4,15.7c0.1,0.2,0.3,0.3,0.5,0.4l0,0c0.2,0,0.4-0.1,0.5-0.3l6.2-14.4l16-6.9
			c0.2-0.1,0.3-0.3,0.3-0.5C357.7,619.5,357.6,619.4,357.4,619.3z"/>
	</g>
</g>
</svg>
