<svg width="40" height="40" viewBox="0 0 40 40" fill="none" xmlns="http://www.w3.org/2000/svg">
  <g clip-path="url(#clip0_6491_19295)">
    <rect width="40" height="40" rx="20" fill="#10BDFE" />
    <path fill-rule="evenodd" clip-rule="evenodd"
      d="M12.2452 29.7662C10.9563 28.6345 9.50956 27.1117 8.57027 26.0514C8.55914 26.0389 8.54771 26.0266 8.53597 26.0146C8.13369 25.6041 7.98654 25.204 7.96346 24.8209C7.93892 24.4135 8.05174 23.9481 8.30155 23.4407C8.8093 22.4095 9.76918 21.4356 10.5153 20.8629C10.5223 20.8576 10.5291 20.8522 10.536 20.8466C13.5817 18.3789 14.7822 15.7617 14.9294 13.4161C15.0708 11.1614 14.2304 9.27947 13.3531 8.17628C10.6909 3.41575 6.93504 1.9227 5.13262 1.83082L5.03081 3.82823C6.08234 3.88183 9.28037 4.94067 11.6458 9.22133C11.6754 9.27496 11.7099 9.32576 11.7489 9.37307C12.3667 10.1239 13.0424 11.5522 12.9333 13.2909C12.8269 14.9877 11.964 17.1121 9.28667 19.2848C8.39844 19.9687 7.19447 21.1615 6.50724 22.5573C6.15816 23.2663 5.91537 24.0829 5.96708 24.9412C6.0198 25.8163 6.37508 26.6588 7.089 27.3954C8.05805 28.4881 9.5574 30.0677 10.9256 31.2691C11.6051 31.8657 12.2997 32.4116 12.9058 32.7482C13.2007 32.9121 13.553 33.0715 13.9184 33.1222C14.1784 33.1583 14.515 33.1433 14.8266 32.9827C16.3358 32.8377 18.9883 31.7853 20.9336 28.6861C20.9417 28.6731 20.9495 28.66 20.9571 28.6467C22.5212 25.8801 24.9854 21.9902 27.299 19.2729C28.4732 17.8938 29.524 16.9197 30.3348 16.4945C30.736 16.2841 30.9592 16.2721 31.0521 16.2878C31.0925 16.2947 31.2037 16.3145 31.3567 16.5823C31.45 16.7455 31.5874 16.8792 31.7531 16.9679C32.4757 17.3545 33.3927 18.0745 33.8744 18.93C34.1066 19.3423 34.2209 19.7549 34.1993 20.1668C34.1781 20.5716 34.0216 21.0596 33.5721 21.6256L27.664 29.0649C27.1859 29.6669 26.6929 30.697 26.7778 31.8901C26.8666 33.1368 27.572 34.372 29.1388 35.3442L32.6157 38.1054L33.8595 36.5393L30.3356 33.7407C30.3031 33.7149 30.2691 33.6911 30.2337 33.6696C29.0844 32.9699 28.8091 32.2577 28.7728 31.7481C28.7317 31.1703 28.9827 30.6204 29.2302 30.3088L35.1383 22.8694C35.8083 22.0258 36.1506 21.1488 36.1966 20.2714C36.2422 19.4011 35.992 18.6144 35.6171 17.9487C34.9456 16.7561 33.824 15.8574 32.9327 15.3366C32.5585 14.8027 32.0422 14.4271 31.3862 14.3159C30.6834 14.1968 29.9964 14.4137 29.406 14.7233C28.2335 15.3382 26.975 16.5684 25.7762 17.9763C23.3498 20.8261 20.8199 24.828 19.2277 27.6418C17.482 30.4092 15.1897 30.9981 14.4743 31.0008C14.3294 31.0013 14.1883 31.0332 14.06 31.0923C14.0092 31.0698 13.9483 31.0395 13.877 30.9999C13.4631 30.77 12.898 30.3394 12.2452 29.7662Z"
      fill="#CFF248" />
  </g>
  <defs>
    <clipPath id="clip0_6491_19295">
      <rect width="40" height="40" rx="20" fill="white" />
    </clipPath>
  </defs>
</svg>
