<svg width="40" height="40" viewBox="0 0 40 40" fill="none" xmlns="http://www.w3.org/2000/svg">
  <g clip-path="url(#clip0_6491_19313)">
    <rect width="40" height="40" rx="20" fill="#FF7C02" />
    <path fill-rule="evenodd" clip-rule="evenodd"
      d="M15.271 23.1003C13.6818 21.9601 12.4088 20.2115 11.4157 17.9227C11.1231 17.2484 10.9038 16.5929 10.6712 15.8975C10.5687 15.5914 10.4637 15.2775 10.3487 14.9508C9.98507 13.9179 9.54372 12.8349 8.8161 11.7866C8.79634 11.7581 8.74819 11.6685 8.66342 11.4666C8.64104 11.4133 8.60858 11.3332 8.57238 11.2439C8.51565 11.1039 8.44973 10.9413 8.399 10.8235C8.30198 10.5982 8.17488 10.3256 8.01245 10.0861C7.86695 9.87159 7.58458 9.51758 7.11568 9.37617L2.29214 7.92157C1.76337 7.76211 1.20546 8.0615 1.046 8.59026C0.886547 9.11903 1.18593 9.67694 1.7147 9.8364L6.37934 11.2431C6.42812 11.3225 6.48822 11.443 6.56211 11.6146C6.61585 11.7394 6.65427 11.8351 6.69575 11.9384C6.73099 12.0262 6.76844 12.1196 6.81937 12.2409C6.90292 12.4399 7.02054 12.7072 7.1731 12.927C7.74888 13.7565 8.1197 14.6421 8.46222 15.615C8.55539 15.8796 8.64861 16.1581 8.74475 16.4453C8.9891 17.1751 9.25225 17.9612 9.58094 18.7187C10.6687 21.2258 12.1357 23.3123 14.1051 24.7254C16.0906 26.1499 18.5125 26.836 21.3958 26.6575C22.7767 26.5721 23.983 25.856 24.9344 25.014C25.8943 24.1646 26.6809 23.1123 27.2361 22.1815C27.3457 21.9978 27.4603 21.8 27.5805 21.5927C27.9306 20.9884 28.3274 20.3035 28.7824 19.6526C29.4174 18.7443 30.0043 18.151 30.4769 17.9612C32.1511 17.2889 33.5591 17.1995 35.3328 17.7344C35.5847 17.8104 35.9997 17.9033 36.4396 18.0017C36.4996 18.0152 36.56 18.0287 36.6205 18.0423C37.1527 18.1619 37.7546 18.2998 38.3269 18.4563C38.9084 18.6153 39.4134 18.7814 39.7667 18.9472C39.8988 19.0092 39.9857 19.0602 40.0382 19.0961C40.2148 19.515 40.6622 19.7728 41.1295 19.6922C41.6737 19.5983 42.0388 19.0811 41.945 18.5368C41.8659 18.0783 41.575 17.7699 41.3634 17.5932C41.1379 17.4048 40.8706 17.2559 40.6164 17.1367C40.1042 16.8963 39.4661 16.6944 38.8544 16.5272C38.2336 16.3574 37.5922 16.2108 37.0589 16.0909C37.0024 16.0782 36.9477 16.066 36.8947 16.0541C36.4213 15.9479 36.087 15.8729 35.9102 15.8196C33.6857 15.1487 31.8114 15.27 29.7316 16.1052C28.6616 16.5349 27.7857 17.5877 27.1433 18.5067C26.6341 19.2351 26.1718 20.0333 25.8158 20.648C25.706 20.8376 25.6064 21.0097 25.5185 21.1569C25.0388 21.9611 24.3759 22.8376 23.6089 23.5163C22.8334 24.2026 22.0356 24.6141 21.2723 24.6614C18.7999 24.8144 16.8443 24.2291 15.271 23.1003ZM6.32717 11.1695C6.32711 11.1699 6.33019 11.1738 6.33656 11.1802C6.3304 11.1723 6.32722 11.1692 6.32717 11.1695Z"
      fill="#CFF248" />
  </g>
  <defs>
    <clipPath id="clip0_6491_19313">
      <rect width="40" height="40" rx="20" fill="white" />
    </clipPath>
  </defs>
</svg>
