<svg width="40" height="40" viewBox="0 0 40 40" fill="none" xmlns="http://www.w3.org/2000/svg">
	<rect width="40" height="40" rx="20" fill="#EF528E" />
	<path fill-rule="evenodd" clip-rule="evenodd"
		d="M34.6232 9.80989C34.5081 11.7279 34.9742 14.1006 35.4578 15.7127L35.4616 15.7253C36.7106 20.0968 36.4785 23.9659 35.2555 26.7966C34.0343 29.6231 31.7606 31.5 29 31.5H25.0609C24.2472 31.5867 23.5697 31.2102 23.0663 30.708C22.5602 30.2032 22.1467 29.4985 21.7984 28.7215C21.0972 27.157 20.5331 25.0046 20.0811 22.6918C19.18 18.0814 18.677 12.5795 18.5051 9.12787C18.3486 8.41879 18.0365 8.08247 17.7039 7.89949C17.3157 7.68589 16.7465 7.59931 15.9963 7.68145C14.4885 7.84654 12.7074 8.64166 11.5145 9.35738L11.462 9.38885L11.4061 9.4137C10.1257 9.98277 9.48061 11.4022 9.33474 13.3616C9.19205 15.2783 9.56551 17.3786 9.95936 18.7177L9.98293 18.7978L9.99288 18.8807C11.2482 29.3418 5.61132 34.2858 2.33282 35.4429C1.81202 35.6267 1.24082 35.3535 1.05701 34.8327C0.873196 34.3119 1.14638 33.7407 1.66718 33.5569C4.0486 32.7164 9.12305 28.6808 8.01666 19.1997C7.58583 17.7024 7.17763 15.3976 7.34026 13.2131C7.50136 11.0491 8.26143 8.65729 10.5361 7.61218C11.8456 6.83377 13.8861 5.90054 15.7787 5.69333C16.741 5.58796 17.7781 5.65763 18.6679 6.14715C19.603 6.66153 20.2318 7.55964 20.4806 8.80377L20.4952 8.87679L20.4988 8.95116C20.664 12.3383 21.1603 17.7873 22.0439 22.3081C22.4877 24.5787 23.0174 26.5513 23.6235 27.9035C23.9288 28.5848 24.2224 29.0364 24.4787 29.292C24.7177 29.5305 24.8301 29.5142 24.8575 29.5102L24.9289 29.5H29C30.7394 29.5 32.4157 28.3269 33.4195 26.0034C34.421 23.6853 34.6892 20.3065 33.5402 16.2808C33.0244 14.5594 32.492 11.9359 32.6268 9.69011C32.6939 8.57244 32.9321 7.42847 33.5283 6.53758C34.167 5.58317 35.1662 5 36.5 5C37.0523 5 37.5 5.44772 37.5 6C37.5 6.55228 37.0523 7 36.5 7C35.8338 7 35.458 7.25016 35.1904 7.64992C34.8804 8.1132 34.6811 8.84422 34.6232 9.80989Z"
		fill="#CFF248" />
</svg>
