<svg width="40" height="40" viewBox="0 0 40 40" fill="none" xmlns="http://www.w3.org/2000/svg">
  <g clip-path="url(#clip0_6491_19301)">
    <rect width="40" height="40" rx="20" fill="#10BDFE" />
    <path fill-rule="evenodd" clip-rule="evenodd"
      d="M36.7179 33.4743C37.9223 34.5411 39.3639 34.74 40.2884 34.608L40.5712 36.5879C39.1624 36.7891 37.104 36.488 35.3918 34.9715C33.6587 33.4365 32.4298 30.792 32.4298 26.5979C32.4298 26.5629 32.4317 26.528 32.4353 26.4932C32.7641 23.3695 32.932 18.7352 32.39 14.9652C32.1173 13.0683 31.6778 11.4895 31.0584 10.4359C30.4585 9.41549 29.7964 9.03417 29.0065 9.09493C28.9442 9.09973 28.8815 9.09867 28.8194 9.09176C27.3974 8.93376 25.2597 8.93994 23.4725 9.4364C21.6922 9.93091 20.6078 10.7898 20.4347 12.1123C20.6809 15.0155 20.8677 18.5803 20.3167 21.7035C19.7629 24.8428 18.4038 27.8331 15.2888 29.0312C14.1302 29.4768 12.3086 29.9482 10.6148 29.859C9.76235 29.8142 8.86948 29.6237 8.10598 29.1484C7.31477 28.6558 6.72276 27.8927 6.45968 26.8404C6.44286 26.7731 6.43308 26.7042 6.43051 26.6349C6.34985 24.4571 5.88724 21.2374 4.79588 18.6489C3.68169 16.0062 2.12109 14.4439 0.00107193 14.5953L-0.141422 12.6004C3.33855 12.3518 5.44462 15.0395 6.63877 17.8719C7.83594 20.7114 8.32707 24.1255 8.42462 26.4466C8.56834 26.94 8.8315 27.2441 9.16305 27.4506C9.54226 27.6867 10.0681 27.8275 10.7199 27.8618C12.0344 27.931 13.5628 27.5523 14.5708 27.1645C16.6948 26.3476 17.8358 24.2546 18.3472 21.356C18.8551 18.4771 18.6831 15.0956 18.4335 12.1833C18.4282 12.1217 18.4286 12.0598 18.4348 11.9984C18.6977 9.36917 20.8553 8.08765 22.9372 7.50936C25.0106 6.9334 27.3726 6.92864 28.9514 7.09439C30.7098 6.99952 31.9622 8.02695 32.7825 9.42234C33.5986 10.8104 34.084 12.6942 34.3696 14.6806C34.9411 18.6553 34.7642 23.44 34.4299 26.6495C34.4398 30.4221 35.5396 32.4307 36.7179 33.4743Z"
      fill="#EF528E" />
  </g>
  <defs>
    <clipPath id="clip0_6491_19301">
      <rect width="40" height="40" rx="20" fill="white" />
    </clipPath>
  </defs>
</svg>
