<svg width="40" height="40" viewBox="0 0 40 40" fill="none" xmlns="http://www.w3.org/2000/svg">
  <g clip-path="url(#clip0_6491_19305)">
    <rect width="40" height="40" rx="20" fill="#10BDFE" />
    <path fill-rule="evenodd" clip-rule="evenodd"
      d="M1.45243 6.50115C2.00409 6.47488 2.4726 6.9008 2.49887 7.45246C2.66253 10.8893 3.37648 16.0288 4.96184 20.2753C5.75513 22.4001 6.74259 24.2353 7.93427 25.5243C9.11038 26.7964 10.4458 27.5 12 27.5H12.2166L12.4138 27.5897C13.7451 28.1948 17.7303 28.5729 21.0716 23.1026C21.6699 20.9103 22.6881 17.8815 24.2056 15.3595C25.7238 12.8363 27.9417 10.5 31 10.5H40.5C41.0523 10.5 41.5 10.9477 41.5 11.5C41.5 12.0523 41.0523 12.5 40.5 12.5H31C29.0583 12.5 27.3595 13.997 25.9194 16.3906C24.5105 18.732 23.5395 21.6285 22.9656 23.76L22.9293 23.8948L22.8575 24.0145C19.1213 30.2414 14.1983 30.46 11.7891 29.4969C9.63904 29.4336 7.87304 28.4042 6.46573 26.882C5.02824 25.3272 3.92821 23.2249 3.08816 20.9748C1.40685 16.4713 0.670807 11.1108 0.501132 7.54759C0.474862 6.99593 0.900775 6.52742 1.45243 6.50115Z"
      fill="#C651EF" />
  </g>
  <defs>
    <clipPath id="clip0_6491_19305">
      <rect width="40" height="40" rx="20" fill="white" />
    </clipPath>
  </defs>
</svg>
