<svg width="40" height="40" viewBox="0 0 40 40" fill="none" xmlns="http://www.w3.org/2000/svg">
  <g clip-path="url(#clip0_6491_19309)">
    <rect width="40" height="40" rx="20" fill="#FF7C02" />
    <path fill-rule="evenodd" clip-rule="evenodd"
      d="M26.6699 -2.74691C26.2496 -2.40972 26.1842 -1.79366 26.5238 -1.37088C28.6396 1.26297 31.4606 5.50493 33.0639 9.65316C33.8662 11.7289 34.3381 13.717 34.3055 15.4352C34.2733 17.131 33.755 18.5116 32.619 19.516L32.4607 19.656L32.3749 19.8494C31.7955 21.1549 29.1287 24.0085 23.1286 22.1438C21.2655 20.9178 18.5513 19.3479 15.8018 18.4734C13.0511 17.5985 9.91055 17.3133 7.67529 19.2897L0.731999 25.4291C0.328348 25.786 0.292329 26.4047 0.651546 26.8109C1.01076 27.2172 1.62919 27.2572 2.03284 26.9003L8.97614 20.7609C10.3952 19.5061 12.6105 19.5094 15.2199 20.3394C17.7726 21.1513 20.3662 22.6544 22.172 23.8514L22.2862 23.9271L22.4165 23.9688C29.1973 26.1347 32.9376 23.114 34.072 20.8487C35.6023 19.4126 36.2234 17.5141 36.2619 15.4849C36.3013 13.4122 35.7379 11.1549 34.8883 8.95685C33.188 4.55757 30.2393 0.138759 28.0458 -2.59194C27.7062 -3.01471 27.0902 -3.0841 26.6699 -2.74691Z"
      fill="#627EEA" />
  </g>
  <defs>
    <clipPath id="clip0_6491_19309">
      <rect width="40" height="40" rx="20" fill="white" />
    </clipPath>
  </defs>
</svg>
