<svg width="40" height="40" viewBox="0 0 40 40" fill="none" xmlns="http://www.w3.org/2000/svg">
	<g clip-path="url(#clip0_3754_33677)">
		<rect width="40" height="40" rx="20" fill="#C651EF" />
		<path fill-rule="evenodd" clip-rule="evenodd"
			d="M3.71197 33.4743C2.50749 34.5411 1.06589 34.74 0.141424 34.608L-0.141418 36.5879C1.26745 36.7891 3.32585 36.488 5.03804 34.9715C6.77112 33.4365 8 30.792 8 26.5979C8 26.5629 7.99817 26.528 7.99451 26.4932C7.6657 23.3695 7.49779 18.7352 8.03982 14.9652C8.31256 13.0683 8.75206 11.4895 9.37144 10.4359C9.97134 9.41549 10.6334 9.03417 11.4233 9.09493C11.4856 9.09973 11.5483 9.09867 11.6104 9.09176C13.0324 8.93376 15.1701 8.93994 16.9574 9.4364C18.7376 9.93091 19.822 10.7898 19.9951 12.1123C19.7489 15.0155 19.5621 18.5803 20.1131 21.7035C20.667 24.8428 22.026 27.8331 25.141 29.0312C26.2996 29.4768 28.1212 29.9482 29.8151 29.859C30.6675 29.8142 31.5604 29.6237 32.3239 29.1484C33.1151 28.6558 33.7071 27.8927 33.9701 26.8404C33.987 26.7731 33.9967 26.7042 33.9993 26.6349C34.08 24.4571 34.5426 21.2374 35.634 18.6489C36.7481 16.0062 38.3087 14.4439 40.4288 14.5953L40.5713 12.6004C37.0913 12.3518 34.9852 15.0395 33.7911 17.8719C32.5939 20.7114 32.1028 24.1255 32.0052 26.4466C31.8615 26.94 31.5983 27.2441 31.2668 27.4506C30.8876 27.6867 30.3617 27.8275 29.7099 27.8618C28.3955 27.931 26.8671 27.5523 25.859 27.1645C23.735 26.3476 22.5941 24.2546 22.0827 21.356C21.5748 18.4771 21.7467 15.0956 21.9964 12.1833C22.0016 12.1217 22.0012 12.0598 21.995 11.9984C21.7321 9.36917 19.5745 8.08765 17.4926 7.50936C15.4192 6.9334 13.0572 6.92864 11.4785 7.09439C9.72002 6.99952 8.46764 8.02695 7.64731 9.42234C6.83128 10.8104 6.34578 12.6942 6.06018 14.6806C5.48871 18.6553 5.66566 23.44 5.99994 26.6495C5.99 30.4221 4.89019 32.4307 3.71197 33.4743Z"
			fill="#CFF248" />
	</g>
	<defs>
		<clipPath id="clip0_3754_33677">
			<rect width="40" height="40" rx="20" fill="white" />
		</clipPath>
	</defs>
</svg>
