<svg width="40" height="40" viewBox="0 0 40 40" fill="none" xmlns="http://www.w3.org/2000/svg">
	<g clip-path="url(#clip0_3754_33684)">
		<rect width="40" height="40" rx="20" fill="#EF528E" />
		<path fill-rule="evenodd" clip-rule="evenodd"
			d="M7.23609 7.74474C8.34032 8.32318 9.0605 9.40534 9.32212 10.8554C9.76166 13.2914 9.866 14.1903 9.90298 15.2219C9.91199 15.4732 9.91701 15.7263 9.92265 16.0103C9.93937 16.8526 9.96149 17.9666 10.1089 20.1105C10.1441 20.6226 10.106 21.3486 10.0657 22.1147C10.0546 22.3268 10.0433 22.5419 10.0333 22.7565C9.98484 23.8005 9.95751 24.955 10.065 26.0865C10.2806 28.3565 11.0001 30.2119 12.8039 31.0409C12.9549 31.0716 13.1168 31.1075 13.2881 31.1456C14.3435 31.3799 15.7566 31.6937 17.1911 31.3481C18.0092 31.151 18.8206 30.7333 19.5367 29.9149C20.2396 29.1115 20.8917 27.8741 21.3282 25.9701L19.0116 11.6522C18.7386 9.87737 18.9672 8.39239 19.7177 7.30867C20.4851 6.20059 21.6791 5.68274 22.954 5.62785C25.4316 5.52118 28.3857 7.11491 30.48 9.81812C30.4928 9.83457 30.505 9.85142 30.5167 9.86863C31.4423 11.2311 31.7566 13.0711 31.9567 14.7752C32.0153 15.2736 32.0644 15.763 32.1125 16.2415C32.2386 17.4963 32.3572 18.6763 32.6168 19.7466C32.9695 21.2008 33.5188 22.1414 34.4317 22.6076C35.3773 23.0905 37.007 23.2186 39.8943 22.2844L40.51 24.1873C37.4509 25.1771 35.1797 25.2353 33.5221 24.3888C31.8318 23.5256 31.0757 21.8775 30.6732 20.218C30.3783 19.0024 30.2388 17.6123 30.1083 16.3119C30.0633 15.8631 30.0193 15.425 29.9704 15.0084C29.7697 13.2993 29.4872 11.9296 28.879 11.0173C27.0487 8.66895 24.6695 7.55585 23.0401 7.626C22.2585 7.65965 21.704 7.95342 21.362 8.44732C21.0034 8.96514 20.7618 9.87143 20.9878 11.3444C20.988 11.3457 20.9882 11.3469 20.9884 11.3481L23.3332 25.8404C23.3532 25.9639 23.3499 26.0901 23.3233 26.2124C22.8363 28.4547 22.0466 30.0834 21.0419 31.2318C20.0281 32.3905 18.8407 33.0079 17.6596 33.2924C15.7161 33.7607 13.7486 33.3083 12.7369 33.0757C12.5669 33.0366 12.4239 33.0037 12.3125 32.9824C12.2408 32.9687 12.1708 32.9472 12.1038 32.9183C9.18683 31.6597 8.31219 28.7838 8.07395 26.2756C7.95268 24.9989 7.98596 23.7299 8.03545 22.6637C8.04806 22.392 8.06118 22.1394 8.07332 21.9056C8.11127 21.1751 8.13973 20.6273 8.11363 20.2477C7.9624 18.0485 7.93906 16.8692 7.92238 16.0265C7.917 15.7548 7.91232 15.5182 7.90427 15.2936C7.87249 14.4073 7.78876 13.6206 7.3539 11.2105C7.17835 10.2375 6.75807 9.75213 6.30804 9.51638C5.82586 9.2638 5.12272 9.20052 4.23622 9.45062C2.45415 9.95337 0.315866 11.6322 -1.01101 14.2144L-2.7899 13.3003C-1.25333 10.31 1.29046 8.2036 3.69318 7.52575C4.89907 7.18555 6.164 7.18313 7.23609 7.74474Z"
			fill="#63DE38" />
	</g>
	<defs>
		<clipPath id="clip0_3754_33684">
			<rect width="40" height="40" rx="20" fill="white" />
		</clipPath>
	</defs>
</svg>
