<svg width="40" height="40" viewBox="0 0 40 40" fill="none" xmlns="http://www.w3.org/2000/svg">
	<g clip-path="url(#clip0_3754_33666)">
		<rect width="40" height="40" rx="20" fill="#EF528E" />
		<path fill-rule="evenodd" clip-rule="evenodd"
			d="M19.3619 9.36179C17.6487 9.44644 15.5688 9.73912 14.1738 9.98529C14.1573 9.98821 14.1407 9.9907 14.124 9.99278C13.5537 10.0641 13.1896 10.2859 12.9333 10.5715C12.6607 10.8753 12.4597 11.3099 12.3398 11.8626C12.096 12.9859 12.242 14.3455 12.4701 15.258C12.4723 15.2665 12.4743 15.275 12.4762 15.2836C13.3265 19.1102 12.6391 21.9063 11.2955 23.8347C10.0041 25.6882 8.17549 26.6393 6.80243 26.9576C1.75709 29.0299 -2.11265 27.8632 -3.58124 26.8142L-2.41876 25.1868C-1.56198 25.7988 1.60086 26.9585 6.11539 25.0774C6.17195 25.0539 6.23056 25.0355 6.29047 25.0227C7.24123 24.819 8.65863 24.1207 9.65451 22.6913C10.6264 21.2964 11.2719 19.0962 10.5265 15.7297C10.2563 14.6417 10.0553 12.9589 10.3852 11.4385C10.5528 10.6661 10.8705 9.87574 11.4448 9.23576C12.0303 8.58324 12.8325 8.14447 13.8497 8.01159C15.2881 7.75857 17.4446 7.45408 19.2631 7.36423C20.1663 7.3196 21.0497 7.32411 21.7337 7.43738C22.0666 7.49251 22.4416 7.58678 22.7593 7.7743C22.9853 7.9077 23.2396 8.12883 23.3837 8.44833C24.4754 9.50052 25.898 11.9742 25.4939 15.6109C25.4922 15.6262 25.4902 15.6413 25.4878 15.6565C24.9921 18.7957 24.5025 23.3744 24.6244 26.9411C24.6863 28.7513 24.9033 30.1676 25.2738 31.0048C25.4572 31.419 25.6244 31.5673 25.7069 31.6127C25.7428 31.6325 25.8423 31.6861 26.1286 31.5716C26.3032 31.5017 26.4939 31.4825 26.6789 31.5162C27.4851 31.6628 28.651 31.6692 29.5603 31.2989C29.9986 31.1204 30.3446 30.8684 30.5839 30.5324C30.819 30.2023 31 29.7228 31 29V19.5C31 18.7313 31.2546 17.618 32.063 16.7366C32.9079 15.8155 34.2285 15.2869 36.0601 15.5H40.5V17.5H36C35.9585 17.5 35.9171 17.4975 35.876 17.4923C34.5408 17.3254 33.8823 17.712 33.537 18.0885C33.1454 18.5154 33 19.1021 33 19.5V29C33 30.0773 32.7227 30.977 32.213 31.6926C31.7074 32.4025 31.0223 32.863 30.3147 33.1512C29.0471 33.6674 27.61 33.6737 26.5881 33.5272C25.963 33.7126 25.325 33.6856 24.7423 33.3647C24.1178 33.0209 23.7147 32.4238 23.4449 31.8141C22.9092 30.6035 22.6887 28.8574 22.6256 27.0094C22.4978 23.2687 23.0054 18.5615 23.5086 15.3679C23.8626 12.1151 22.4338 10.2283 21.8752 9.7813C21.7621 9.69077 21.6715 9.57804 21.6077 9.45191C21.5539 9.438 21.4874 9.42384 21.4069 9.41051C20.9398 9.33315 20.2295 9.31892 19.3619 9.36179Z"
			fill="#CFF248" />
	</g>
	<defs>
		<clipPath id="clip0_3754_33666">
			<rect width="40" height="40" rx="20" fill="white" />
		</clipPath>
	</defs>
</svg>
