<svg width="40" height="40" viewBox="0 0 40 40" fill="none" xmlns="http://www.w3.org/2000/svg">
  <g clip-path="url(#clip0_6491_19311)">
    <rect width="40" height="40" rx="20" fill="#FF7C02" />
    <path fill-rule="evenodd" clip-rule="evenodd"
      d="M6.32398 22.1578C6.22914 23.3242 6.66635 24.249 6.86316 24.4779L6.88954 24.5086L9.93917 28.6983C10.7335 29.7601 11.6486 30.1924 12.6349 30.2713C13.6735 30.3544 14.8731 30.0496 16.1677 29.4582C18.5261 28.3808 20.8713 26.5149 22.6319 25.114C22.8141 24.9691 22.9899 24.8292 23.1589 24.6956L23.1812 24.678L23.2045 24.6617C24.8417 23.5124 26.5209 23.303 28.1091 23.8059C29.637 24.2898 30.9871 25.4015 32.1311 26.7108C34.422 29.3327 36.1775 33.0852 37.1021 35.7202C37.2849 36.2414 37.0107 36.8121 36.4895 36.9949C35.9684 37.1778 35.3977 36.9035 35.2148 36.3824C34.3319 33.8659 32.6806 30.3793 30.625 28.0268C29.5959 26.8489 28.5379 26.0396 27.5052 25.7126C26.5392 25.4067 25.5127 25.4933 24.376 26.283C24.2171 26.4086 24.0491 26.5425 23.8727 26.6831C22.1391 28.0646 19.5968 30.0905 16.9988 31.2774C15.5546 31.9371 13.9943 32.3865 12.4754 32.2649C10.9057 32.1393 9.46695 31.4092 8.333 29.89L8.3258 29.8804L5.31684 25.7464C4.74108 25.0495 4.20009 23.6003 4.33056 21.9957C4.4706 20.2736 5.37775 18.3882 7.7085 16.9634L7.73746 16.9457L7.76755 16.93C10.2701 15.6244 13.9196 13.5333 16.745 11.5053C18.1665 10.485 19.3249 9.51898 20.0292 8.70705C20.385 8.29687 20.5715 7.98599 20.6452 7.77783C20.6689 7.71067 20.6764 7.66998 20.6781 7.64834L20.6227 7.5648L20.5812 7.44484C20.2242 6.41319 19.4351 4.78492 18.2596 3.34628C17.0785 1.90089 15.5968 0.753401 13.8711 0.458274C13.3267 0.365177 12.9609 -0.151603 13.054 -0.695987C13.1471 -1.24037 13.6638 -1.6062 14.2082 -1.5131C16.5989 -1.10425 18.4703 0.443322 19.8083 2.08078C21.1151 3.68005 21.9985 5.46677 22.4354 6.68909C22.7655 7.27634 22.7195 7.91132 22.5306 8.44507C22.3363 8.99391 21.9666 9.52579 21.54 10.0176C20.6794 11.0097 19.3679 12.0846 17.9112 13.1301C14.9922 15.2253 11.2705 17.3568 8.72369 18.6869C6.95301 19.7796 6.41105 21.087 6.32398 22.1578ZM20.6772 7.62826C20.6778 7.62785 20.6788 7.63153 20.6785 7.6405C20.6765 7.63313 20.6766 7.62866 20.6772 7.62826Z"
      fill="#63DE38" />
  </g>
  <defs>
    <clipPath id="clip0_6491_19311">
      <rect width="40" height="40" rx="20" fill="white" />
    </clipPath>
  </defs>
</svg>
