<svg width="40" height="40" viewBox="0 0 40 40" fill="none" xmlns="http://www.w3.org/2000/svg">
	<g clip-path="url(#clip0_3754_33662)">
		<rect width="40" height="40" rx="20" fill="#627EEA" />
		<path fill-rule="evenodd" clip-rule="evenodd"
			d="M11.2828 10.601C10.819 10.8136 10.511 11.0227 10.3661 11.1676C10.2284 11.3053 10.0628 11.5676 9.90108 11.9856C9.74411 12.3913 9.61506 12.8796 9.51381 13.4055C9.31097 14.4593 9.23742 15.57 9.23742 16.2706C9.23742 17.2051 9.11177 18.7222 8.79231 20.1685C8.63229 20.893 8.41729 21.6293 8.1297 22.2778C7.84923 22.9103 7.46043 23.5501 6.90437 23.9825C6.35304 24.4114 5.64786 24.5983 5.00033 24.687C4.33394 24.7783 3.60372 24.7808 2.9057 24.751C2.24615 24.7229 1.57914 24.6638 0.987045 24.6114C0.949965 24.6081 0.913179 24.6049 0.876708 24.6017C0.238245 24.5453 -0.28 24.5022 -0.663086 24.5022C-1.21537 24.5022 -1.66309 24.0545 -1.66309 23.5022C-1.66309 22.95 -1.21537 22.5022 -0.663086 22.5022C-0.173653 22.5022 0.44031 22.5553 1.05268 22.6094C1.08586 22.6123 1.11913 22.6153 1.15246 22.6182C1.75395 22.6715 2.37875 22.7267 2.99097 22.7529C3.63997 22.7806 4.23431 22.7732 4.72897 22.7055C5.2425 22.6352 5.53486 22.514 5.67649 22.4038C5.85632 22.264 6.07884 21.969 6.30141 21.4671C6.51686 20.9812 6.69663 20.3835 6.83938 19.7372C7.12546 18.4419 7.23742 17.0701 7.23742 16.2706C7.23742 15.4634 7.31949 14.2242 7.54986 13.0275C7.66522 12.4282 7.82217 11.8161 8.03585 11.2639C8.24476 10.724 8.53443 10.1709 8.95192 9.75342C9.33687 9.36847 9.88703 9.04065 10.4495 8.78284C11.0283 8.51758 11.6936 8.29313 12.3639 8.14637C13.0291 8.00074 13.74 7.92265 14.3996 7.97968C15.042 8.03523 15.7668 8.2315 16.2998 8.76448C16.8372 9.3019 17.1359 10.1329 17.3309 10.9508C17.5363 11.8118 17.6686 12.8524 17.757 13.9791C17.9339 16.2334 17.9444 18.9745 17.9526 21.5869L17.9529 21.6653C17.9611 24.2761 17.9689 26.7419 18.126 28.5718C18.206 29.5042 18.3197 30.1988 18.4633 30.6413C18.4941 30.7362 18.5224 30.807 18.5459 30.8586C19.7394 30.8931 20.5693 30.6355 21.1651 30.2437C21.8031 29.8242 22.2719 29.1854 22.6115 28.3411C23.3135 26.596 23.3696 24.237 23.3696 21.957C23.3696 21.6162 23.3615 21.2401 23.353 20.8443C23.3355 20.029 23.3161 19.1299 23.3619 18.2825C23.4317 16.9906 23.6538 15.611 24.3298 14.3942C25.1487 12.9203 26.007 12.0076 27.2298 11.5894C28.305 11.2217 29.5583 11.2919 30.9469 11.3696C30.9979 11.3724 31.0491 11.3753 31.1004 11.3782C32.5038 11.4561 33.3492 12.3977 33.8126 13.4675C34.2619 14.5048 34.4348 15.8144 34.4919 17.0791C34.55 18.364 34.4915 19.7049 34.4213 20.8522C34.3986 21.2242 34.3753 21.569 34.3539 21.8841C34.3072 22.5749 34.2701 23.1229 34.2701 23.5022C34.2701 23.9912 34.2971 24.4286 34.3639 24.7882C34.4332 25.161 34.5294 25.3603 34.6013 25.4503C34.6374 25.4955 34.6583 25.5167 34.7613 25.5179C34.9231 25.5199 35.2623 25.4545 35.844 25.1314C36.691 24.6608 37.4374 24.2698 38.255 24.0066C39.0898 23.7379 39.9566 23.6148 41.058 23.6148C41.6103 23.6148 42.058 24.0625 42.058 24.6148C42.058 25.1671 41.6103 25.6148 41.058 25.6148C40.1184 25.6148 39.4649 25.7182 38.8678 25.9104C38.2534 26.1082 37.6561 26.4125 36.8153 26.8797C36.0907 27.2822 35.3942 27.5257 34.7374 27.5178C34.0218 27.5092 33.4411 27.2021 33.0389 26.6988C32.6725 26.2403 32.4937 25.671 32.3976 25.1536C32.2989 24.6229 32.2701 24.0485 32.2701 23.5022C32.2701 23.052 32.3147 22.3918 32.3645 21.6562C32.3847 21.357 32.4058 21.0453 32.4251 20.7302C32.4941 19.5999 32.5471 18.3448 32.494 17.1694C32.44 15.9739 32.2792 14.9592 31.9774 14.2624C31.6897 13.5982 31.3667 13.396 30.9895 13.3751C29.3918 13.2863 28.5397 13.2552 27.877 13.4818C27.3224 13.6715 26.784 14.0951 26.0782 15.3655C25.6173 16.1951 25.4222 17.2215 25.359 18.3904C25.317 19.1682 25.3338 19.9212 25.3509 20.687C25.3602 21.1045 25.3696 21.5258 25.3696 21.957C25.3696 24.1609 25.3384 26.9214 24.467 29.0875C24.0199 30.1988 23.3305 31.2135 22.2639 31.9148C21.1936 32.6186 19.8424 32.9418 18.1918 32.8447C17.6707 32.8141 17.2917 32.5273 17.0493 32.2251C16.8193 31.9384 16.6685 31.59 16.5609 31.2586C16.3443 30.5907 16.2163 29.7095 16.1333 28.7429C15.9691 26.8297 15.9611 24.2964 15.9531 21.7399L15.9526 21.5932C15.9443 18.9598 15.933 16.2998 15.7632 14.1355C15.6782 13.0528 15.556 12.1296 15.3855 11.4147C15.2047 10.6567 15.0064 10.2995 14.8856 10.1787C14.8246 10.1177 14.6432 10.0082 14.2273 9.97225C13.8285 9.93777 13.329 9.98247 12.7917 10.1001C12.2596 10.2166 11.7304 10.3959 11.2828 10.601Z"
			fill="#CFF248" />
	</g>
	<defs>
		<clipPath id="clip0_3754_33662">
			<rect width="40" height="40" rx="20" fill="white" />
		</clipPath>
	</defs>
</svg>
