<svg width="40" height="40" viewBox="0 0 40 40" fill="none" xmlns="http://www.w3.org/2000/svg">
	<g clip-path="url(#clip0_3754_33692)">
		<rect width="40" height="40" rx="20" fill="#CFF248" />
		<path fill-rule="evenodd" clip-rule="evenodd"
			d="M26.7929 29.6448C28.0928 29.5377 29.3699 29.1664 30.1286 28.8629C30.2467 28.8157 30.3728 28.7914 30.5 28.7914C30.6161 28.7914 30.76 28.75 30.9564 28.5068C31.1689 28.2438 31.3723 27.8204 31.5422 27.2541C31.8796 26.1292 32 24.7342 32 23.7914V18C32 15.7627 33.4739 13.779 35.1612 12.5498C36.0221 11.9226 36.9949 11.4468 37.9692 11.2124C38.937 10.9795 39.9755 10.9701 40.9008 11.3749L40.0992 13.2072C39.6912 13.0287 39.1255 12.9912 38.4371 13.1569C37.7551 13.321 37.0196 13.6704 36.3388 14.1663C34.9428 15.1833 34 16.6374 34 18V23.7914C34 24.8486 33.8704 26.4536 33.4578 27.8288C33.2527 28.5124 32.9561 29.214 32.5123 29.7635C32.0897 30.2867 31.4909 30.7163 30.7107 30.7825C29.7953 31.131 28.4031 31.5189 26.9571 31.638C25.4609 31.7612 23.679 31.6152 22.3753 30.5723C22.1995 30.4316 22.0762 30.2357 22.0256 30.0163C21.5276 27.8581 20.5 22.7201 20.5 19.7911C20.5 18.5023 20.3857 16.8536 20.0957 15.4768C19.9501 14.7855 19.7694 14.208 19.5624 13.7901C19.3422 13.3455 19.1695 13.2359 19.1287 13.2196C19.1 13.2081 19.0712 13.1966 19.0426 13.1851C18.4289 12.9396 17.8375 12.7029 17.2626 12.5575C16.6559 12.4041 16.1983 12.389 15.8636 12.4947C15.5833 12.5832 15.2691 12.7927 15.0001 13.3994C14.7165 14.0391 14.5041 15.0847 14.5001 16.7423C14.6676 18.4517 14.7448 20.9915 14.4128 23.0968C14.2473 24.1464 13.9645 25.1972 13.4608 25.9836C13.2028 26.3864 12.861 26.7604 12.4076 27.0103C11.962 27.2558 11.4622 27.3511 10.9367 27.2911H7.5C6.85822 27.2911 6.38993 26.8605 6.10119 26.4686C5.78741 26.0428 5.51664 25.4462 5.29019 24.6717C4.85299 23.1765 4.52595 20.824 4.50147 17.2279C4.49674 17.2262 4.49194 17.2244 4.48706 17.2226C4.17223 17.106 3.66626 16.9908 3.0184 16.9377C1.7266 16.832 0.0248451 16.9854 -1.59386 17.7049L-2.40614 15.8772C-0.424843 14.9967 1.6234 14.8168 3.1816 14.9444C3.95874 15.008 4.65277 15.1512 5.18169 15.3471C5.44061 15.443 5.70742 15.5687 5.92962 15.7372C6.10569 15.8707 6.5 16.2178 6.5 16.7911C6.5 20.5474 6.83114 22.8154 7.20981 24.1104C7.40002 24.7609 7.58759 25.1143 7.71131 25.2822C7.71354 25.2853 7.71573 25.2882 7.71787 25.2911H11C11.0473 25.2911 11.0946 25.2944 11.1414 25.3011C11.2873 25.3219 11.3736 25.2965 11.4424 25.2586C11.5254 25.2128 11.643 25.1134 11.7767 24.9048C12.0564 24.4682 12.286 23.7441 12.4372 22.7853C12.7353 20.8949 12.6673 18.5143 12.505 16.8906C12.5017 16.8575 12.5 16.8243 12.5 16.7911C12.5 14.9768 12.7238 13.599 13.1718 12.5887C13.6371 11.5392 14.3542 10.8739 15.2614 10.5875C16.1142 10.3182 17.0003 10.4282 17.753 10.6185C18.4622 10.7979 19.169 11.0811 19.7531 11.3152C19.7931 11.3312 19.8325 11.347 19.8713 11.3625C20.5961 11.6524 21.0563 12.3 21.3546 12.9024C21.6662 13.5315 21.8898 14.2908 22.0528 15.0646C22.38 16.618 22.5 18.4132 22.5 19.7911C22.5 22.3184 23.3707 26.8678 23.8896 29.1927C24.5921 29.6077 25.6138 29.7419 26.7929 29.6448ZM7.79145 25.3743C7.79141 25.3747 7.78732 25.3718 7.77932 25.3639C7.7875 25.3698 7.7915 25.3738 7.79145 25.3743Z"
			fill="#C651EF" />
	</g>
	<defs>
		<clipPath id="clip0_3754_33692">
			<rect width="40" height="40" rx="20" fill="white" />
		</clipPath>
	</defs>
</svg>
