<svg width="40" height="40" viewBox="0 0 40 40" fill="none" xmlns="http://www.w3.org/2000/svg">
	<g clip-path="url(#clip0_3754_33670)">
		<rect width="40" height="40" rx="20" fill="#627EEA" />
		<path fill-rule="evenodd" clip-rule="evenodd"
			d="M19.4215 9.94127L22.6123 21.895C23.5486 24.6208 23.7934 26.6786 23.6737 28.1782C23.5574 29.6349 23.078 30.7156 22.3843 31.2335C22.2824 31.3097 22.1669 31.3656 22.0439 31.3984L13.8315 33.5905C12.5491 33.9328 11.4702 33.2968 10.691 32.4708C9.91333 31.6463 9.26005 30.4691 8.71818 29.2227C7.63352 26.728 6.86154 23.6383 6.47518 21.5417C6.15487 20.365 5.67369 19.6943 5.1845 19.3131C4.69286 18.9299 4.09607 18.7633 3.40992 18.771C1.98104 18.7869 0.352182 19.5624 -0.728885 20.3335L-1.89033 18.7053C-0.652833 17.8226 1.37668 16.7935 3.38759 16.7711C4.42133 16.7595 5.48979 17.0153 6.41395 17.7356C7.33544 18.4538 8.01566 19.5575 8.41753 21.0631C8.4244 21.0888 8.43023 21.1148 8.43502 21.1409C8.80371 23.1554 9.54399 26.1061 10.5523 28.4253C11.0605 29.594 11.6034 30.5233 12.1459 31.0984C12.6869 31.6719 13.0522 31.7285 13.3157 31.6582L21.2652 29.5363C21.3041 29.4796 21.3541 29.3938 21.4074 29.2696C21.5217 29.003 21.6339 28.5961 21.68 28.019C21.7723 26.8633 21.5945 25.0779 20.7099 22.5132C20.7021 22.4907 20.6952 22.4679 20.689 22.445L17.4653 10.3678C17.4511 10.3146 17.4413 10.2603 17.4361 10.2055C17.3724 9.5416 17.4699 8.54963 17.9917 7.65554C18.5348 6.72514 19.5 5.97276 20.9862 5.80545L24.2921 4.92304C24.3378 4.91084 24.3843 4.9019 24.4312 4.89628C25.112 4.81489 25.786 5.13495 26.3664 5.60805C26.9704 6.10036 27.6058 6.86154 28.2529 7.94017C29.5479 10.0988 30.9768 13.676 32.2914 19.3837C32.2948 19.3984 32.2979 19.4132 32.3006 19.4281C32.6683 21.4372 33.4302 24.3716 34.503 26.6613C35.043 27.8138 35.6254 28.7229 36.2151 29.2794C36.787 29.8192 37.2445 29.9287 37.6644 29.8166L42.0122 28.6561L42.528 30.5885L38.1802 31.749C36.861 32.1011 35.7174 31.5599 34.8423 30.7339C33.9849 29.9247 33.2744 28.753 32.6919 27.5098C31.5239 25.0169 30.7238 21.9131 30.3374 19.8107C29.0483 14.2206 27.681 10.8746 26.5378 8.96904C25.965 8.01431 25.4703 7.45782 25.1028 7.15829C24.869 6.96772 24.7254 6.9104 24.6682 6.89268L21.4263 7.75802C21.373 7.77223 21.3187 7.78201 21.2639 7.78728C20.3774 7.87238 19.9527 8.26344 19.719 8.66372C19.4717 9.0874 19.4029 9.59471 19.4215 9.94127Z"
			fill="#63DE38" />
	</g>
	<defs>
		<clipPath id="clip0_3754_33670">
			<rect width="40" height="40" rx="20" fill="white" />
		</clipPath>
	</defs>
</svg>
