<svg width="295" height="297" viewBox="0 0 295 297" fill="none" xmlns="http://www.w3.org/2000/svg">
<g clip-path="url(#clip0_113_100)">
<path d="M147.504 40.0039C211.843 40.0039 264 92.161 264 156.5C264 220.839 211.843 272.996 147.504 272.996C83.1649 272.996 31.0078 220.839 31.0078 156.5C31.0078 92.161 83.1649 40.0039 147.504 40.0039Z" fill="#2E3148"/>
<path d="M147.504 88.9034C184.836 88.9034 215.101 119.167 215.101 156.5C215.101 193.833 184.836 224.097 147.504 224.097C110.171 224.097 79.9073 193.833 79.9073 156.5C79.9073 119.167 110.171 88.9034 147.504 88.9034Z" fill="#1B1E36"/>
<path d="M147.743 258.134C135.168 258.134 124.972 212.523 124.972 156.26C124.972 99.9957 135.168 54.3852 147.743 54.3852C160.318 54.3852 170.515 99.9957 170.515 156.26C170.515 212.523 160.318 258.134 147.743 258.134ZM149.316 60.1345C147.878 58.2165 146.44 59.6554 146.44 59.6554C140.648 66.3656 137.753 78.8316 137.753 78.8316C127.623 111.431 130.034 181.425 130.034 181.425C134.795 236.992 143.454 250.119 146.401 253.033C146.702 253.331 147.099 253.513 147.52 253.547C147.942 253.581 148.362 253.465 148.707 253.22C152.983 250.19 156.569 237.519 156.569 237.519C167.159 198.208 166.2 161.293 166.2 161.293C167.159 129.173 160.893 93.2175 160.893 93.2175C156.071 65.8922 149.316 60.1345 149.316 60.1345Z" fill="#6F7390"/>
<path d="M236.108 206.958C229.847 217.869 185.214 204.015 136.387 176.016C87.5606 148.018 53.1188 116.474 59.3751 105.567C65.6314 94.6602 110.269 108.51 159.096 136.508C207.923 164.507 242.364 196.051 236.108 206.958ZM65.1514 107.064C62.7544 107.366 63.2959 109.336 63.2959 109.336C66.2362 117.697 75.5932 126.412 75.5932 126.412C98.8393 151.423 160.756 184.162 160.756 184.162C211.319 207.687 227.024 206.694 231.008 205.597C231.417 205.483 231.773 205.228 232.011 204.877C232.25 204.526 232.357 204.101 232.313 203.679C231.834 198.46 222.605 189.047 222.605 189.047C193.796 160.288 161.297 142.746 161.297 142.746C133.913 125.924 99.6073 113.474 99.6073 113.474C73.5037 104.068 65.1524 107.064 65.1524 107.064H65.1514Z" fill="#6F7390"/>
<path d="M235.887 105.204C242.197 116.086 207.841 147.775 159.186 175.984C110.531 204.193 65.9035 218.219 59.5997 207.318C53.2959 196.416 87.6454 164.746 136.329 136.537C185.012 108.328 229.583 94.3014 235.887 105.204ZM63.7805 203.113C62.8485 205.322 64.8159 205.854 64.8159 205.854C73.5261 207.499 85.761 203.751 85.761 203.751C119.046 196.171 178.399 158.993 178.399 158.993C224.096 127.016 231.104 112.931 232.155 108.933C232.261 108.523 232.22 108.089 232.038 107.706C231.855 107.324 231.543 107.018 231.157 106.843C226.392 104.661 213.63 107.912 213.63 107.912C174.294 118.459 142.836 137.783 142.836 137.783C114.57 153.029 86.6203 176.486 86.6203 176.486C65.3826 194.368 63.787 203.088 63.787 203.088L63.7805 203.113Z" fill="#6F7390"/>
<path d="M147.504 144.515C154.123 144.515 159.489 149.881 159.489 156.5C159.489 163.119 154.123 168.485 147.504 168.485C140.885 168.485 135.519 163.119 135.519 156.5C135.519 149.881 140.885 144.515 147.504 144.515Z" fill="#B7B9C8"/>
<path d="M196.643 195.332C200.482 195.332 203.594 198.552 203.594 202.523C203.594 206.495 200.482 209.714 196.643 209.714C192.804 209.714 189.691 206.495 189.691 202.523C189.691 198.552 192.804 195.332 196.643 195.332Z" fill="#B7B9C8"/>
<path d="M82.5438 170.882C86.3831 170.882 89.4954 174.102 89.4954 178.073C89.4954 182.045 86.3831 185.264 82.5438 185.264C78.7046 185.264 75.5923 182.045 75.5923 178.073C75.5923 174.102 78.7046 170.882 82.5438 170.882Z" fill="#B7B9C8"/>
<path d="M133.361 82.6713C137.201 82.6713 140.313 85.8909 140.313 89.8624C140.313 93.8339 137.201 97.0535 133.361 97.0535C129.522 97.0535 126.41 93.8339 126.41 89.8624C126.41 85.8909 129.522 82.6713 133.361 82.6713Z" fill="#B7B9C8"/>
</g>
<mask id="mask0_113_100" style="mask-type:alpha" maskUnits="userSpaceOnUse" x="0" y="0" width="295" height="297">
<path d="M295 148.5C295 230.514 228.962 297 147.5 297C66.038 297 0 230.514 0 148.5C0 66.4857 66.038 0 147.5 0C228.962 0 295 66.4857 295 148.5Z" fill="url(#paint0_linear_113_100)"/>
</mask>
<g mask="url(#mask0_113_100)">
<mask id="mask1_113_100" style="mask-type:alpha" maskUnits="userSpaceOnUse" x="-35" y="-24" width="366" height="365">
<path d="M147.5 316C234.782 316 305 245.782 305 158.5C305 71.2182 234.782 1 147.5 1C60.2184 1 -9.99982 71.2182 -9.99982 158.5C-9.99982 245.782 60.2184 316 147.5 316Z" stroke="black" stroke-width="50"/>
</mask>
<g mask="url(#mask1_113_100)">
<mask id="mask2_113_100" style="mask-type:alpha" maskUnits="userSpaceOnUse" x="-71" y="-62" width="525" height="426">
<path d="M-70.5 363.001C-74.1 358.602 -27.8267 109.834 -5.99339 -13.9996C138.673 -30.8326 427.107 -63.7986 423.507 -60.9986C419.907 -58.1986 442.007 123.501 453.507 214.001L367.007 363.001C367.007 363.001 286 226 248.5 256C211 286 210.5 279 237.5 256C264.5 233 197.506 120.001 197.506 120.001H113.5C113.5 120.001 31.5 235 57.5 256C83.5 277 84 287 46.5 256C9 225 -66.9 367.401 -70.5 363.001Z" fill="#D9D9D9"/>
</mask>
<g mask="url(#mask2_113_100)">
<path d="M295 147.5C295 229.514 228.962 296 147.5 296C66.038 296 0 229.514 0 147.5C0 65.4857 66.038 -1 147.5 -1C228.962 -1 295 65.4857 295 147.5Z" fill="url(#paint1_linear_113_100)"/>
</g>
</g>
</g>
<defs>
<linearGradient id="paint0_linear_113_100" x1="146.987" y1="297" x2="146.987" y2="1.3919e-06" gradientUnits="userSpaceOnUse">
<stop stop-color="white"/>
<stop offset="0.332589" stop-color="#6DA1F7"/>
<stop offset="0.561755" stop-color="#4861CE"/>
<stop offset="1" stop-color="#162335"/>
</linearGradient>
<linearGradient id="paint1_linear_113_100" x1="146.987" y1="296" x2="146.987" y2="-0.999999" gradientUnits="userSpaceOnUse">
<stop stop-color="white"/>
<stop offset="0.332589" stop-color="#6DA1F7"/>
<stop offset="0.561755" stop-color="#4861CE"/>
<stop offset="1" stop-color="#162335"/>
</linearGradient>
<clipPath id="clip0_113_100">
<rect width="232.992" height="232.992" fill="white" transform="matrix(1 0 0 -1 31.0078 272.996)"/>
</clipPath>
</defs>
</svg>
