<?xml version="1.0" encoding="UTF-8" standalone="no"?>
<svg
   viewBox="0 0 100 100"
   version="1.1"
   id="svg8"
   sodipodi:docname="neok.svg"
   inkscape:version="1.3 (0e150ed, 2023-07-21)"
   xmlns:inkscape="http://www.inkscape.org/namespaces/inkscape"
   xmlns:sodipodi="http://sodipodi.sourceforge.net/DTD/sodipodi-0.dtd"
   xmlns="http://www.w3.org/2000/svg"
   xmlns:svg="http://www.w3.org/2000/svg">
  <sodipodi:namedview
     id="namedview8"
     pagecolor="#ffffff"
     bordercolor="#000000"
     borderopacity="0.25"
     inkscape:showpageshadow="2"
     inkscape:pageopacity="0.0"
     inkscape:pagecheckerboard="0"
     inkscape:deskcolor="#d1d1d1"
     inkscape:zoom="2.8284271"
     inkscape:cx="135.94128"
     inkscape:cy="56.922096"
     inkscape:window-width="2544"
     inkscape:window-height="1367"
     inkscape:window-x="10"
     inkscape:window-y="35"
     inkscape:window-maximized="0"
     inkscape:current-layer="svg8" />
  <defs
     id="defs2">
    <linearGradient
       id="a"
       x1="785.27"
       y1="100.39"
       x2="881.27"
       y2="100.39"
       gradientTransform="matrix(1.0416667,0,0,1.0416667,-817.98958,-154.57292)"
       gradientUnits="userSpaceOnUse">
      <stop
         offset="0.14"
         stop-color="#ff1361"
         id="stop1" />
      <stop
         offset="0.92"
         stop-color="#44107a"
         id="stop2" />
    </linearGradient>
  </defs>
  <rect
     x="0"
     y="-100"
     width="100"
     height="100"
     rx="50"
     transform="rotate(90)"
     fill="url(#a)"
     id="rect2"
     style="fill:url(#a);stroke-width:1.04167" />
  <path
     d="m 41.833335,56.708333 h 6 V 50.71875 a 2.5625,2.5625 0 0 0 -2.5625,-2.5625 h -6 v 6.010417 a 2.5625,2.5625 0 0 0 2.5625,2.541666 z"
     fill="#ffffff"
     id="path2"
     style="stroke-width:1.04167" />
  <path
     d="m 36.687502,39.583333 h -5.979166 v 8.53125 h 8.562499 v -5.96875 a 2.5625,2.5625 0 0 0 -2.583333,-2.5625 z"
     fill="#ffffff"
     id="path3"
     style="stroke-width:1.04167" />
  <path
     d="m 30.708336,52.416666 v 0 -4.260416 h -8.562501 v 4.260416 c 0,4.166667 1.25,25.052084 25.677083,33.09375 v -9.104166 0 C 31.989586,69.875 30.708336,56.572916 30.708336,52.416666 Z"
     fill="#ffffff"
     id="path4"
     style="stroke-width:1.04167" />
  <path
     d="M 69.322919,48.124999 V 42.135417 A 2.5625,2.5625 0 0 0 66.812502,39.583333 H 52.229169 v 14.583334 a 2.5625,2.5625 0 0 0 2.552083,2.5625 h 5.979166 V 48.15625 h 8.531251 V 53.125 c 0,4.041666 -1.302083,17.020833 -17.135417,23.416666 V 85.625 c 18.9375,-6.229167 25.697917,-20.822916 25.697917,-32.5 v -4.96875 z"
     fill="#ffffff"
     id="path5"
     style="stroke-width:1.04167" />
  <path
     d="M 60.687502,20.833333 A 2.5833334,2.5833334 0 0 0 58.114585,18.25 h -6.03125 v 8.552084 h 8.562501 z"
     fill="#ffffff"
     id="path6"
     style="stroke-width:1.04167" />
  <path
     d="m 63.250002,35.3125 h 5.989583 L 73.510419,26.75 h 4.260416 V 18.197916 H 69.250002 L 64.958335,26.75 h -4.270833 v 6 a 2.5625,2.5625 0 0 0 2.5625,2.5625 z"
     fill="#ffffff"
     id="path7"
     style="stroke-width:1.04167" />
  <path
     d="M 30.697919,35.322916 H 47.843752 V 20.739584 a 2.5625,2.5625 0 0 0 -2.5625,-2.5625 h -6 v 8.562499 h -4.270834 l -4.291666,-8.562499 h -8.572917 v 8.552083 h 4.291667 z"
     fill="#ffffff"
     id="path8"
     style="stroke-width:1.04167" />
</svg>
