<svg width="295" height="297" viewBox="0 0 295 297" fill="none" xmlns="http://www.w3.org/2000/svg">
<path d="M61.6368 81.4167C63.0618 79.6497 64.5438 77.9397 66.0258 76.2297C66.0828 76.1727 66.2538 76.1157 66.3108 76.0587C66.4248 75.8877 66.6528 75.7737 66.8238 75.6027L66.9378 75.4317C67.9638 74.4627 69.1038 73.4367 70.3578 72.4677C74.9178 69.0477 79.5918 66.4257 84.5508 64.6587C100.511 59.0726 118.238 62.4926 132.146 75.6597C151.583 93.8427 149.816 123.198 134.312 142.692C114.704 171.762 81.0738 212.289 127.643 248.598C136.022 255.153 142.235 260.511 168.626 268.149C151.355 271.341 135.338 270.315 117.554 265.812C104.957 258.687 85.1208 243.468 78.3948 222.891C68.1918 191.712 96.3499 145.029 109.916 127.074C128.555 102.222 98.4019 75.3177 76.1148 105.357C64.6008 121.032 44.2518 165.321 51.3198 198.21C55.4238 216.849 60.9528 230.415 82.7838 249.111C78.7368 246.717 74.8038 244.038 70.9848 240.96C20.3118 193.707 26.1828 120.633 61.6368 81.4167Z" fill="url(#paint0_linear_301_26)"/>
<path d="M234.347 230.643C232.922 232.41 231.44 234.12 229.958 235.83C229.901 235.887 229.73 235.944 229.673 236.001C229.559 236.172 229.331 236.286 229.16 236.457L229.046 236.628C228.02 237.597 226.88 238.623 225.626 239.535C221.066 242.955 216.392 245.577 211.433 247.344C195.473 252.93 177.746 249.51 163.838 236.343C144.401 218.16 146.168 188.805 161.672 169.311C181.28 140.241 214.91 99.714 168.341 63.405C159.962 56.85 153.749 51.492 127.358 43.854C144.629 40.662 160.646 41.688 178.43 46.191C191.027 53.316 210.863 68.535 217.589 89.112C227.792 120.291 199.634 166.974 186.068 184.929C167.429 209.781 197.582 236.685 219.869 206.646C231.497 190.971 251.846 146.682 244.778 113.793C240.674 95.154 235.145 81.588 213.314 62.892C217.361 65.286 221.294 67.965 225.113 71.043C275.672 118.353 269.801 191.427 234.347 230.643Z" fill="url(#paint1_linear_301_26)"/>
<mask id="mask0_301_26" style="mask-type:alpha" maskUnits="userSpaceOnUse" x="0" y="0" width="295" height="297">
<path d="M295 148.5C295 230.514 228.962 297 147.5 297C66.038 297 0 230.514 0 148.5C0 66.4857 66.038 0 147.5 0C228.962 0 295 66.4857 295 148.5Z" fill="url(#paint2_linear_301_26)"/>
</mask>
<g mask="url(#mask0_301_26)">
<mask id="mask1_301_26" style="mask-type:alpha" maskUnits="userSpaceOnUse" x="-35" y="-24" width="366" height="365">
<path d="M147.5 316C234.782 316 305 245.782 305 158.5C305 71.2182 234.782 1 147.5 1C60.2184 1 -9.99982 71.2182 -9.99982 158.5C-9.99982 245.782 60.2184 316 147.5 316Z" stroke="black" stroke-width="50"/>
</mask>
<g mask="url(#mask1_301_26)">
<mask id="mask2_301_26" style="mask-type:alpha" maskUnits="userSpaceOnUse" x="-71" y="-62" width="525" height="426">
<path d="M-70.5 363.001C-74.1 358.602 -27.8267 109.834 -5.99341 -13.9996C138.673 -30.8326 427.107 -63.7986 423.507 -60.9986C419.907 -58.1986 442.007 123.501 453.507 214.001L367.007 363.001C367.007 363.001 286 226 248.5 256C211 286 210.5 279 237.5 256C264.5 233 197.506 120.001 197.506 120.001H113.5C113.5 120.001 31.5 235 57.5 256C83.5 277 84 287 46.5 256C8.99998 225 -66.9 367.401 -70.5 363.001Z" fill="#D9D9D9"/>
</mask>
<g mask="url(#mask2_301_26)">
<path d="M295 147.5C295 229.514 228.962 296 147.5 296C66.038 296 -1.52588e-05 229.514 -1.52588e-05 147.5C-1.52588e-05 65.4857 66.038 -1 147.5 -1C228.962 -1 295 65.4857 295 147.5Z" fill="url(#paint3_linear_301_26)"/>
</g>
</g>
</g>
<defs>
<linearGradient id="paint0_linear_301_26" x1="33.9918" y1="166.083" x2="261.992" y2="166.083" gradientUnits="userSpaceOnUse">
<stop stop-color="#0082FA"/>
<stop offset="1" stop-color="#00F2FE"/>
</linearGradient>
<linearGradient id="paint1_linear_301_26" x1="33.9918" y1="145.977" x2="261.992" y2="145.977" gradientUnits="userSpaceOnUse">
<stop stop-color="#0082FA"/>
<stop offset="1" stop-color="#00F2FE"/>
</linearGradient>
<linearGradient id="paint2_linear_301_26" x1="146.987" y1="297" x2="146.987" y2="1.3919e-06" gradientUnits="userSpaceOnUse">
<stop stop-color="white"/>
<stop offset="0.332589" stop-color="#6DA1F7"/>
<stop offset="0.561755" stop-color="#4861CE"/>
<stop offset="1" stop-color="#162335"/>
</linearGradient>
<linearGradient id="paint3_linear_301_26" x1="146.986" y1="296" x2="146.986" y2="-0.999999" gradientUnits="userSpaceOnUse">
<stop stop-color="white"/>
<stop offset="0.332589" stop-color="#6DA1F7"/>
<stop offset="0.561755" stop-color="#4861CE"/>
<stop offset="1" stop-color="#162335"/>
</linearGradient>
</defs>
</svg>
