<svg width="295" height="297" viewBox="0 0 295 297" fill="none" xmlns="http://www.w3.org/2000/svg">
<g clip-path="url(#clip0_202_9)">
<path d="M148.5 42C85.2662 42 34 93.2662 34 156.5C34 219.734 85.2685 271 148.5 271C211.731 271 263 219.748 263 156.5C263 93.2525 211.741 42 148.5 42Z" fill="#53AE94"/>
<path d="M134.368 141.244V124.211H95.4178V98.2585H201.481V124.211H162.526V141.23C194.186 142.685 217.99 148.955 217.99 156.466C217.99 163.977 194.174 170.247 162.526 171.71V226.27H134.359V171.706C102.757 170.247 79.0008 163.982 79.0008 156.477C79.0008 148.973 102.757 142.707 134.359 141.249M134.359 167.084V167.071C135.154 167.121 139.237 167.366 148.328 167.366C155.597 167.366 160.71 167.16 162.513 167.066V167.089C190.483 165.85 211.361 160.979 211.361 155.151C211.361 149.323 190.48 144.459 162.513 143.218V162.237C160.681 162.363 155.441 162.672 148.209 162.672C139.523 162.672 135.156 162.31 134.355 162.237V143.218C106.44 144.462 85.6097 149.337 85.6097 155.144C85.6097 160.952 106.449 165.83 134.355 167.073" fill="white"/>
</g>
<mask id="mask0_202_9" style="mask-type:alpha" maskUnits="userSpaceOnUse" x="0" y="0" width="295" height="297">
<path d="M295 148.5C295 230.514 228.962 297 147.5 297C66.038 297 0 230.514 0 148.5C0 66.4857 66.038 0 147.5 0C228.962 0 295 66.4857 295 148.5Z" fill="url(#paint0_linear_202_9)"/>
</mask>
<g mask="url(#mask0_202_9)">
<mask id="mask1_202_9" style="mask-type:alpha" maskUnits="userSpaceOnUse" x="-35" y="-24" width="366" height="365">
<path d="M147.5 316C234.782 316 305 245.782 305 158.5C305 71.2182 234.782 1 147.5 1C60.2184 1 -9.99982 71.2182 -9.99982 158.5C-9.99982 245.782 60.2184 316 147.5 316Z" stroke="black" stroke-width="50"/>
</mask>
<g mask="url(#mask1_202_9)">
<mask id="mask2_202_9" style="mask-type:alpha" maskUnits="userSpaceOnUse" x="-71" y="-62" width="525" height="426">
<path d="M-70.5 363.001C-74.1 358.602 -27.8267 109.834 -5.99339 -13.9996C138.673 -30.8326 427.107 -63.7986 423.507 -60.9986C419.907 -58.1986 442.007 123.501 453.507 214.001L367.007 363.001C367.007 363.001 286 226 248.5 256C211 286 210.5 279 237.5 256C264.5 233 197.506 120.001 197.506 120.001H113.5C113.5 120.001 31.5 235 57.5 256C83.5 277 84 287 46.5 256C9 225 -66.9 367.401 -70.5 363.001Z" fill="#D9D9D9"/>
</mask>
<g mask="url(#mask2_202_9)">
<path d="M295 147.5C295 229.514 228.962 296 147.5 296C66.038 296 0 229.514 0 147.5C0 65.4857 66.038 -1 147.5 -1C228.962 -1 295 65.4857 295 147.5Z" fill="url(#paint1_linear_202_9)"/>
</g>
</g>
</g>
<defs>
<linearGradient id="paint0_linear_202_9" x1="146.987" y1="297" x2="146.987" y2="1.3919e-06" gradientUnits="userSpaceOnUse">
<stop stop-color="white"/>
<stop offset="0.332589" stop-color="#6DA1F7"/>
<stop offset="0.561755" stop-color="#4861CE"/>
<stop offset="1" stop-color="#162335"/>
</linearGradient>
<linearGradient id="paint1_linear_202_9" x1="146.987" y1="296" x2="146.987" y2="-0.999999" gradientUnits="userSpaceOnUse">
<stop stop-color="white"/>
<stop offset="0.332589" stop-color="#6DA1F7"/>
<stop offset="0.561755" stop-color="#4861CE"/>
<stop offset="1" stop-color="#162335"/>
</linearGradient>
<clipPath id="clip0_202_9">
<rect width="229" height="229" fill="white" transform="matrix(-1 0 0 1 263 42)"/>
</clipPath>
</defs>
</svg>
