<svg width="295" height="297" viewBox="0 0 295 297" fill="none" xmlns="http://www.w3.org/2000/svg">
<path d="M148 271C211.513 271 263 219.513 263 156C263 92.4873 211.513 41 148 41C84.4873 41 33 92.4873 33 156C33 219.513 84.4873 271 148 271Z" fill="white"/>
<path d="M148.06 51.5951L146.675 56.3045V192.948L148.06 194.331L211.435 156.839L148.06 51.5951Z" fill="#343434"/>
<path d="M147.996 51.5951L84.5581 156.839L147.996 194.331V128.008V51.5951Z" fill="#8C8C8C"/>
<path d="M148.784 206.898L147.996 207.856V256.797L148.784 259.091L212.756 169.22L148.784 206.898Z" fill="#3C3C3B"/>
<path d="M147.996 259.091V206.898L84.5581 169.22L147.996 259.091Z" fill="#8C8C8C"/>
<path d="M147.996 194.331L211.434 156.975L147.996 128.25V194.331Z" fill="#141414"/>
<path d="M84.5581 156.975L147.996 194.331V128.25L84.5581 156.975Z" fill="#393939"/>
<mask id="mask0_653_26" style="mask-type:alpha" maskUnits="userSpaceOnUse" x="0" y="0" width="295" height="297">
<path d="M295 148.5C295 230.514 228.962 297 147.5 297C66.038 297 0 230.514 0 148.5C0 66.4857 66.038 0 147.5 0C228.962 0 295 66.4857 295 148.5Z" fill="url(#paint0_linear_653_26)"/>
</mask>
<g mask="url(#mask0_653_26)">
<mask id="mask1_653_26" style="mask-type:alpha" maskUnits="userSpaceOnUse" x="-35" y="-24" width="366" height="365">
<path d="M147.5 316C234.782 316 305 245.782 305 158.5C305 71.2182 234.782 1 147.5 1C60.2185 1 -9.99976 71.2182 -9.99976 158.5C-9.99976 245.782 60.2185 316 147.5 316Z" stroke="black" stroke-width="50"/>
</mask>
<g mask="url(#mask1_653_26)">
<mask id="mask2_653_26" style="mask-type:alpha" maskUnits="userSpaceOnUse" x="-71" y="-62" width="525" height="426">
<path d="M-70.4999 363.001C-74.1 358.602 -27.8267 109.834 -5.99333 -13.9996C138.673 -30.8326 427.107 -63.7986 423.507 -60.9986C419.907 -58.1986 442.007 123.501 453.507 214.001L367.007 363.001C367.007 363.001 286 226 248.5 256C211 286 210.5 279 237.5 256C264.5 233 197.507 120.001 197.507 120.001H113.5C113.5 120.001 31.5001 235 57.5001 256C83.5001 277 84.0001 287 46.5001 256C9.00006 225 -66.8999 367.401 -70.4999 363.001Z" fill="#D9D9D9"/>
</mask>
<g mask="url(#mask2_653_26)">
<path d="M295 147.5C295 229.514 228.962 296 147.5 296C66.038 296 0 229.514 0 147.5C0 65.4857 66.038 -1 147.5 -1C228.962 -1 295 65.4857 295 147.5Z" fill="url(#paint1_linear_653_26)"/>
</g>
</g>
</g>
<defs>
<linearGradient id="paint0_linear_653_26" x1="146.987" y1="297" x2="146.987" y2="1.3919e-06" gradientUnits="userSpaceOnUse">
<stop stop-color="white"/>
<stop offset="0.332589" stop-color="#6DA1F7"/>
<stop offset="0.561755" stop-color="#4861CE"/>
<stop offset="1" stop-color="#162335"/>
</linearGradient>
<linearGradient id="paint1_linear_653_26" x1="146.987" y1="296" x2="146.987" y2="-0.999999" gradientUnits="userSpaceOnUse">
<stop stop-color="white"/>
<stop offset="0.332589" stop-color="#6DA1F7"/>
<stop offset="0.561755" stop-color="#4861CE"/>
<stop offset="1" stop-color="#162335"/>
</linearGradient>
</defs>
</svg>
