<?xml version="1.0" encoding="utf-8"?>
<!-- Generator: Adobe Illustrator 25.0.0, SVG Export Plug-In . SVG Version: 6.00 Build 0)  -->
<svg version="1.1" id="图层_1" xmlns="http://www.w3.org/2000/svg" xmlns:xlink="http://www.w3.org/1999/xlink" x="0px" y="0px"
	 viewBox="0 0 800 800" style="enable-background:new 0 0 800 800;" xml:space="preserve">
<style type="text/css">
	.st0{clip-path:url(#SVGID_2_);fill:url(#SVGID_3_);}
	.st1{fill:#FFFFFF;}
</style>
<g>
	<g>
		<g>
			<defs>
				<path id="SVGID_1_" d="M400,0L400,0c220.9,0,400,179.1,400,400v0c0,220.9-179.1,400-400,400h0C179.1,800,0,620.9,0,400v0
					C0,179.1,179.1,0,400,0z"/>
			</defs>
			<clipPath id="SVGID_2_">
				<use xlink:href="#SVGID_1_"  style="overflow:visible;"/>
			</clipPath>
			<linearGradient id="SVGID_3_" gradientUnits="userSpaceOnUse" x1="400" y1="962.9091" x2="400" y2="-180.9572">
				<stop  offset="9.950249e-03" style="stop-color:#00D099"/>
				<stop  offset="1" style="stop-color:#007090"/>
			</linearGradient>
			<path class="st0" d="M618.6,875.9H181.4c-142.1,0-257.3-115.2-257.3-257.3V181.4c0-142.1,115.2-257.3,257.3-257.3h437.2
				c142.1,0,257.3,115.2,257.3,257.3v437.2C875.9,760.7,760.7,875.9,618.6,875.9z"/>
		</g>
	</g>
</g>
<g>
	<path class="st1" d="M492.5,433.2c20,4.9,36.8,11.6,47.7,20.5c3.8,3.1,8.3,4.6,12.9,4.6c5.9,0,11.8-2.6,15.9-7.5
		c7.1-8.8,5.8-21.6-2.9-28.7c-17.3-14.1-43.6-24.2-74.1-30.6c3.6-69.6,32.1-134.7,81.9-184.4c8-8,8-20.9,0-28.9s-20.9-8-28.9,0
		c-57.7,57.5-88.6,131.7-93.4,207.2c-31.3-3.2-64.5-3.2-95.8-0.5c-4.9-75.4-35.8-149.3-93.4-206.7c-8-8-20.9-8-28.9,0
		s-8,20.9,0,28.9c49.5,49.4,78,113.9,81.8,183.1c-36.5,6.6-67.2,17.3-84.1,31.7c-8.6,7.3-9.6,20.2-2.3,28.8
		c7.3,8.6,20.2,9.6,28.8,2.3c11-9.4,31.7-16.7,57.2-21.7c-5.8,65.3-34,126-80.9,173.1c-8,8-8,20.9,0,28.9c4,4,9.2,6,14.4,6
		s10.5-2,14.5-6c57.6-57.7,88.3-132,92.9-207.6c31.1-2.8,64.9-2.7,95.7,0.6c4.7,75.4,35.5,149.4,92.9,207c4,4,9.2,6,14.5,6
		c5.2,0,10.4-2,14.4-6c8-8,8-20.9,0-28.9C526.8,557.8,498.7,497.8,492.5,433.2z"/>
	<g>
		<path class="st1" d="M459.9,159.6l-15.2-6.8l-5.9-15.1c-0.1-0.2-0.3-0.3-0.5-0.3s-0.4,0.1-0.5,0.3l-6.5,15.1l-15.4,6
			c-0.2,0.1-0.3,0.3-0.3,0.5s0.1,0.4,0.3,0.5l15.8,6.4l5.3,15.5c0.1,0.2,0.3,0.3,0.5,0.4l0,0c0.2,0,0.4-0.1,0.5-0.3l6.1-14.3
			l15.9-6.9c0.2-0.1,0.3-0.3,0.3-0.5C460.2,159.9,460,159.7,459.9,159.6z"/>
		<path class="st1" d="M167.5,369.4l-15.2-6.8l-5.9-15.1c-0.1-0.2-0.3-0.3-0.5-0.3s-0.4,0.1-0.5,0.3l-6.5,15.1l-15.4,6
			c-0.2,0.1-0.3,0.3-0.3,0.5s0.1,0.4,0.3,0.5l15.8,6.4l5.3,15.5c0.1,0.2,0.3,0.3,0.5,0.4l0,0c0.2,0,0.4-0.1,0.5-0.3l6.1-14.3
			l15.9-6.9c0.2-0.1,0.3-0.3,0.3-0.5C167.8,369.7,167.7,369.5,167.5,369.4z"/>
		<path class="st1" d="M658,544.5l-15.2-6.8l-5.9-15.1c-0.1-0.2-0.3-0.3-0.5-0.3s-0.4,0.1-0.5,0.3l-6.5,15.1l-15.4,6
			c-0.2,0.1-0.3,0.3-0.3,0.5s0.1,0.4,0.3,0.5l15.8,6.4l5.3,15.5c0.1,0.2,0.3,0.3,0.5,0.4l0,0c0.2,0,0.4-0.1,0.5-0.3l6.1-14.3
			l15.9-6.9c0.2-0.1,0.3-0.3,0.3-0.5C658.3,544.7,658.2,544.5,658,544.5z"/>
		<path class="st1" d="M684.4,278.2c-3,0.5-5.8-1.5-6.2-4.5c-0.5-3,1.5-5.8,4.5-6.2c3-0.5,5.8,1.5,6.2,4.5
			C689.4,274.9,687.4,277.7,684.4,278.2z"/>
		<path class="st1" d="M495.8,125.6c-3,0.5-5.8-1.5-6.2-4.5c-0.5-3,1.5-5.8,4.5-6.2c3-0.5,5.8,1.5,6.2,4.5
			C500.8,122.3,498.8,125.1,495.8,125.6z"/>
		<path class="st1" d="M381.9,258.3c-3,0.5-5.8-1.5-6.2-4.5c-0.5-3,1.5-5.8,4.5-6.2c3-0.5,5.8,1.5,6.2,4.5
			C386.8,255,384.8,257.8,381.9,258.3z"/>
		<path class="st1" d="M393.5,490.2c-3,0.5-5.8-1.5-6.2-4.5c-0.5-3,1.5-5.8,4.5-6.2c3-0.5,5.8,1.5,6.2,4.5
			C398.5,486.9,396.4,489.7,393.5,490.2z"/>
		<path class="st1" d="M276.3,678.7c-3,0.5-5.8-1.5-6.2-4.5c-0.5-3,1.5-5.8,4.5-6.2c3-0.5,5.8,1.5,6.2,4.5
			C281.3,675.5,279.2,678.2,276.3,678.7z"/>
		<path class="st1" d="M569.1,680.9c-3,0.5-5.8-1.5-6.2-4.5c-0.5-3,1.5-5.8,4.5-6.2c3-0.5,5.8,1.5,6.2,4.5
			C574.1,677.7,572.1,680.5,569.1,680.9z"/>
		<path class="st1" d="M113.1,567.5c-3,0.5-5.8-1.5-6.2-4.5c-0.5-3,1.5-5.8,4.5-6.2c3-0.5,5.8,1.5,6.2,4.5
			C118,564.3,116,567.1,113.1,567.5z"/>
		<path class="st1" d="M243.5,535.1c-3,0.5-5.8-1.5-6.2-4.5c-0.5-3,1.5-5.8,4.5-6.2c3-0.5,5.8,1.5,6.2,4.5
			C248.5,531.9,246.4,534.7,243.5,535.1z"/>
		<path class="st1" d="M641.4,451.6c-3,0.5-5.8-1.5-6.2-4.5c-0.5-3,1.5-5.8,4.5-6.2c3-0.5,5.8,1.5,6.2,4.5
			C646.4,448.3,644.3,451.1,641.4,451.6z"/>
		<path class="st1" d="M337.9,604.4c-3,0.5-5.8-1.5-6.2-4.5c-0.5-3,1.5-5.8,4.5-6.2c3-0.5,5.8,1.5,6.2,4.5
			C342.9,601.1,340.9,603.9,337.9,604.4z"/>
		<path class="st1" d="M88.8,349.7c-3,0.5-5.8-1.5-6.2-4.5c-0.5-3,1.5-5.8,4.5-6.2c3-0.5,5.8,1.5,6.2,4.5
			C93.8,346.4,91.8,349.2,88.8,349.7z"/>
		<path class="st1" d="M136.4,154.3c-3,0.5-5.8-1.5-6.2-4.5c-0.5-3,1.5-5.8,4.5-6.2c3-0.5,5.8,1.5,6.2,4.5
			C141.3,151,139.3,153.8,136.4,154.3z"/>
		<path class="st1" d="M545.9,293.3c-2.1,0.3-4-1.1-4.3-3.1c-0.3-2.1,1.1-4,3.1-4.3c2.1-0.3,4,1.1,4.3,3.1
			C549.4,291,548,292.9,545.9,293.3z"/>
		<path class="st1" d="M639.3,128.4c-2.1,0.3-4-1.1-4.3-3.1c-0.3-2.1,1.1-4,3.1-4.3c2.1-0.3,4,1.1,4.3,3.1
			C642.8,126.1,641.4,128,639.3,128.4z"/>
		<path class="st1" d="M639.3,625.1c-2.1,0.3-4-1.1-4.3-3.1c-0.3-2.1,1.1-4,3.1-4.3c2.1-0.3,4,1.1,4.3,3.1
			C642.8,622.8,641.4,624.7,639.3,625.1z"/>
		<path class="st1" d="M693.4,567.1c-2.1,0.3-4-1.1-4.3-3.1c-0.3-2.1,1.1-4,3.1-4.3c2.1-0.3,4,1.1,4.3,3.1
			C696.9,564.8,695.5,566.8,693.4,567.1z"/>
		<path class="st1" d="M148.5,428.9c-2.1,0.3-4-1.1-4.3-3.1c-0.3-2.1,1.1-4,3.1-4.3c2.1-0.3,4,1.1,4.3,3.1
			C151.9,426.6,150.5,428.6,148.5,428.9z"/>
		<path class="st1" d="M314.2,179.4c-2.1,0.3-4-1.1-4.3-3.1c-0.3-2.1,1.1-4,3.1-4.3c2.1-0.3,4,1.1,4.3,3.1
			C317.7,177.1,316.3,179,314.2,179.4z"/>
		<path class="st1" d="M501,643c-2.1,0.3-4-1.1-4.3-3.1c-0.3-2.1,1.1-4,3.1-4.3c2.1-0.3,4,1.1,4.3,3.1
			C504.5,640.8,503,642.7,501,643z"/>
		<path class="st1" d="M282.8,369.4c-2.1,0.3-4-1.1-4.3-3.1c-0.3-2.1,1.1-4,3.1-4.3c2.1-0.3,4,1.1,4.3,3.1
			C286.3,367.1,284.8,369.1,282.8,369.4z"/>
		<path class="st1" d="M604.1,385.6c-2.1,0.3-4-1.1-4.3-3.1c-0.3-2.1,1.1-4,3.1-4.3c2.1-0.3,4,1.1,4.3,3.1
			C607.6,383.3,606.1,385.3,604.1,385.6z"/>
		<path class="st1" d="M206.8,512.6c-2.1,0.3-4-1.1-4.3-3.1c-0.3-2.1,1.1-4,3.1-4.3c2.1-0.3,4,1.1,4.3,3.1
			C210.2,510.3,208.8,512.2,206.8,512.6z"/>
		<path class="st1" d="M567.2,157.2c-1.4,0.2-2.6-0.7-2.9-2.1c-0.2-1.4,0.7-2.6,2.1-2.9c1.4-0.2,2.6,0.7,2.9,2.1
			C569.5,155.7,568.6,157,567.2,157.2z"/>
		<path class="st1" d="M629.1,354.7c-1.4,0.2-2.6-0.7-2.9-2.1c-0.2-1.4,0.7-2.6,2.1-2.9c1.4-0.2,2.6,0.7,2.9,2.1
			S630.4,354.5,629.1,354.7z"/>
		<path class="st1" d="M601.4,571.3c-1.4,0.2-2.6-0.7-2.9-2.1c-0.2-1.4,0.7-2.6,2.1-2.9s2.6,0.7,2.9,2.1
			C603.7,569.8,602.7,571,601.4,571.3z"/>
		<path class="st1" d="M666.8,641.4c-1.4,0.2-2.6-0.7-2.9-2.1c-0.2-1.4,0.7-2.6,2.1-2.9c1.4-0.2,2.6,0.7,2.9,2.1
			C669.1,639.9,668.2,641.2,666.8,641.4z"/>
		<path class="st1" d="M505.6,713.1c-1.4,0.2-2.6-0.7-2.9-2.1c-0.2-1.4,0.7-2.6,2.1-2.9c1.4-0.2,2.6,0.7,2.9,2.1
			C507.9,711.6,507,712.9,505.6,713.1z"/>
		<path class="st1" d="M395.2,718.5c-1.4,0.2-2.6-0.7-2.9-2.1c-0.2-1.4,0.7-2.6,2.1-2.9c1.4-0.2,2.6,0.7,2.9,2.1
			S396.6,718.3,395.2,718.5z"/>
		<path class="st1" d="M423.8,623.8c-1.4,0.2-2.6-0.7-2.9-2.1c-0.2-1.4,0.7-2.6,2.1-2.9c1.4-0.2,2.6,0.7,2.9,2.1
			C426.1,622.3,425.2,623.6,423.8,623.8z"/>
		<path class="st1" d="M356.9,688.8c-1.4,0.2-2.6-0.7-2.9-2.1c-0.2-1.4,0.7-2.6,2.1-2.9c1.4-0.2,2.6,0.7,2.9,2.1
			C359.2,687.3,358.3,688.6,356.9,688.8z"/>
		<path class="st1" d="M244.1,706.1c-1.4,0.2-2.6-0.7-2.9-2.1c-0.2-1.4,0.7-2.6,2.1-2.9c1.4-0.2,2.6,0.7,2.9,2.1
			C246.4,704.6,245.5,705.9,244.1,706.1z"/>
		<path class="st1" d="M227.8,557.4c-1.4,0.2-2.6-0.7-2.9-2.1c-0.2-1.4,0.7-2.6,2.1-2.9c1.4-0.2,2.6,0.7,2.9,2.1
			C230.1,555.9,229.2,557.2,227.8,557.4z"/>
		<path class="st1" d="M126.8,411.4c-1.4,0.2-2.6-0.7-2.9-2.1c-0.2-1.4,0.7-2.6,2.1-2.9c1.4-0.2,2.6,0.7,2.9,2.1
			C129.1,409.9,128.2,411.2,126.8,411.4z"/>
		<path class="st1" d="M208.1,346.2c-1.4,0.2-2.6-0.7-2.9-2.1c-0.2-1.4,0.7-2.6,2.1-2.9c1.4-0.2,2.6,0.7,2.9,2.1
			S209.5,346,208.1,346.2z"/>
		<path class="st1" d="M156.6,278.9c-1.4,0.2-2.6-0.7-2.9-2.1c-0.2-1.4,0.7-2.6,2.1-2.9c1.4-0.2,2.6,0.7,2.9,2.1
			C158.9,277.4,157.9,278.7,156.6,278.9z"/>
		<path class="st1" d="M129.7,511c-1.4,0.2-2.6-0.7-2.9-2.1c-0.2-1.4,0.7-2.6,2.1-2.9c1.4-0.2,2.6,0.7,2.9,2.1S131,510.7,129.7,511z
			"/>
		<path class="st1" d="M381.4,506.5c-1.4,0.2-2.6-0.7-2.9-2.1c-0.2-1.4,0.7-2.6,2.1-2.9c1.4-0.2,2.6,0.7,2.9,2.1
			C383.7,505,382.7,506.3,381.4,506.5z"/>
		<path class="st1" d="M378.2,338.2c-1.4,0.2-2.6-0.7-2.9-2.1c-0.2-1.4,0.7-2.6,2.1-2.9c1.4-0.2,2.6,0.7,2.9,2.1
			C380.5,336.7,379.5,338,378.2,338.2z"/>
		<path class="st1" d="M433.9,364.3c-1.4,0.2-2.6-0.7-2.9-2.1c-0.2-1.4,0.7-2.6,2.1-2.9c1.4-0.2,2.6,0.7,2.9,2.1
			C436.2,362.8,435.3,364.1,433.9,364.3z"/>
		<path class="st1" d="M410.1,532.2c-1.4,0.2-2.6-0.7-2.9-2.1s0.7-2.6,2.1-2.9c1.4-0.2,2.6,0.7,2.9,2.1S411.5,532,410.1,532.2z"/>
		<path class="st1" d="M419.5,236.4c-1.4,0.2-2.6-0.7-2.9-2.1c-0.2-1.4,0.7-2.6,2.1-2.9c1.4-0.2,2.6,0.7,2.9,2.1
			C421.8,234.9,420.9,236.2,419.5,236.4z"/>
		<path class="st1" d="M339.9,120.2c-1.4,0.2-2.6-0.7-2.9-2.1s0.7-2.6,2.1-2.9c1.4-0.2,2.6,0.7,2.9,2.1
			C342.2,118.7,341.3,120,339.9,120.2z"/>
		<path class="st1" d="M188.2,153c-1.4,0.2-2.6-0.7-2.9-2.1c-0.2-1.4,0.7-2.6,2.1-2.9c1.4-0.2,2.6,0.7,2.9,2.1
			C190.5,151.5,189.6,152.8,188.2,153z"/>
		<path class="st1" d="M456.6,98.7c-1.4,0.2-2.6-0.7-2.9-2.1c-0.2-1.4,0.7-2.6,2.1-2.9c1.4-0.2,2.6,0.7,2.9,2.1
			C458.9,97.2,458,98.5,456.6,98.7z"/>
		<path class="st1" d="M715.4,436.7c-1.4,0.2-2.6-0.7-2.9-2.1c-0.2-1.4,0.7-2.6,2.1-2.9c1.4-0.2,2.6,0.7,2.9,2.1
			C717.7,435.2,716.8,436.5,715.4,436.7z"/>
		<path class="st1" d="M652.9,495.4c-1.4,0.2-2.6-0.7-2.9-2.1c-0.2-1.4,0.7-2.6,2.1-2.9c1.4-0.2,2.6,0.7,2.9,2.1
			C655.2,493.9,654.3,495.2,652.9,495.4z"/>
		<path class="st1" d="M542.6,497.9c-1.4,0.2-2.6-0.7-2.9-2.1c-0.2-1.4,0.7-2.6,2.1-2.9c1.4-0.2,2.6,0.7,2.9,2.1
			C544.9,496.4,543.9,497.7,542.6,497.9z"/>
		<path class="st1" d="M141.3,656.1c-1.4,0.2-2.6-0.7-2.9-2.1c-0.2-1.4,0.7-2.6,2.1-2.9c1.4-0.2,2.6,0.7,2.9,2.1
			C143.6,654.6,142.7,655.9,141.3,656.1z"/>
		<path class="st1" d="M94.7,251.8c-1.4,0.2-2.6-0.7-2.9-2.1c-0.2-1.4,0.7-2.6,2.1-2.9c1.4-0.2,2.6,0.7,2.9,2.1
			C96.9,250.3,96,251.6,94.7,251.8z"/>
		<path class="st1" d="M282.6,86.4c-1.4,0.2-2.6-0.7-2.9-2.1s0.7-2.6,2.1-2.9c1.4-0.2,2.6,0.7,2.9,2.1
			C284.9,84.9,283.9,86.2,282.6,86.4z"/>
		<path class="st1" d="M447.9,592.6c-5.4,0.9-10.5-2.8-11.3-8.2c-0.9-5.4,2.8-10.5,8.2-11.3c5.4-0.9,10.5,2.8,11.3,8.2
			C457,586.6,453.3,591.7,447.9,592.6z"/>
		<ellipse class="st1" cx="189.6" cy="246.4" rx="9.9" ry="9.9"/>
		<path class="st1" d="M160.1,625.1c-5.4,0.9-10.5-2.8-11.3-8.2c-0.9-5.4,2.8-10.5,8.2-11.3c5.4-0.9,10.5,2.8,11.3,8.2
			C169.2,619.2,165.5,624.3,160.1,625.1z"/>
		<path class="st1" d="M620.3,266.8c-5.4,0.9-10.5-2.8-11.3-8.2c-0.9-5.4,2.8-10.5,8.2-11.3c5.4-0.9,10.5,2.8,11.3,8.2
			C629.4,260.9,625.7,266,620.3,266.8z"/>
	</g>
</g>
</svg>
