<svg width="3200" height="3200" viewBox="0 0 3200 3200" fill="none" xmlns="http://www.w3.org/2000/svg">
  <circle cx="1600" cy="1600" r="1600" fill="url(#paint0_linear_5687_42599)" />
  <path
    d="M1803.16 1106.67L2014.12 805.295C2030.86 779.946 2074.39 765.863 2144.71 765.863C2188.24 765.863 2228.42 771.496 2265.26 782.763C2298.74 796.845 2308.79 813.745 2292.05 833.461C2094.48 1103.85 1913.66 1374.24 1726.14 1647.44C1880.17 1909.38 2057.65 2165.69 2258.56 2419.18C2275.3 2438.89 2268.61 2455.79 2231.77 2467.06C2198.29 2481.14 2158.1 2486.78 2111.22 2486.78C2044.25 2486.78 2000.72 2475.51 1980.63 2450.16C1833.29 2261.45 1702.7 2072.74 1572.1 1878.4L1377.89 2174.14C1314.27 2272.72 1247.29 2371.3 1183.67 2472.69C1166.93 2498.04 1123.4 2512.12 1053.08 2512.12C1009.55 2512.12 969.363 2506.49 935.877 2495.23C902.392 2481.14 892.346 2464.24 905.74 2441.71C1076.52 2174.14 1250.64 1909.38 1428.12 1647.44C1257.34 1351.71 1116.7 1058.78 999.5 763.047C989.455 737.698 999.5 717.982 1036.33 703.899C1069.82 692.633 1106.65 687 1146.84 687C1183.67 687 1267.39 695.45 1277.43 732.065C1367.84 965.838 1475 1182.71 1592.2 1408.04L1803.16 1106.67Z"
    fill="#111111" />
  <defs>
    <linearGradient id="paint0_linear_5687_42599" x1="1692.5" y1="1881.5" x2="-764.5" y2="-1201.5"
      gradientUnits="userSpaceOnUse">
      <stop stop-color="#E3BC3E" />
      <stop offset="1" stop-color="#E3BC3E" stop-opacity="0" />
    </linearGradient>
  </defs>
</svg>
