<?xml version="1.0" encoding="utf-8"?>
<!-- Generator: Adobe Illustrator 25.0.0, SVG Export Plug-In . SVG Version: 6.00 Build 0)  -->
<svg version="1.1" id="图层_1" xmlns="http://www.w3.org/2000/svg" xmlns:xlink="http://www.w3.org/1999/xlink" x="0px" y="0px"
	 viewBox="0 0 800 800" style="enable-background:new 0 0 800 800;" xml:space="preserve">
<style type="text/css">
	.st0{clip-path:url(#SVGID_2_);fill:url(#SVGID_3_);}
	.st1{fill:#FFFFFF;}
</style>
<g>
	<g>
		<g>
			<defs>
				<path id="SVGID_1_" d="M400,0L400,0c220.9,0,400,179.1,400,400v0c0,220.9-179.1,400-400,400h0C179.1,800,0,620.9,0,400v0
					C0,179.1,179.1,0,400,0z"/>
			</defs>
			<clipPath id="SVGID_2_">
				<use xlink:href="#SVGID_1_"  style="overflow:visible;"/>
			</clipPath>
			<linearGradient id="SVGID_3_" gradientUnits="userSpaceOnUse" x1="399.95" y1="919.2" x2="399.95" y2="-119.2">
				<stop  offset="0" style="stop-color:#52C3F3"/>
				<stop  offset="1" style="stop-color:#C26AFC"/>
			</linearGradient>
			<path class="st0" d="M611.7,919.2H188.3c-137.6,0-249.1-125.7-249.1-280.7v-477c0-155,111.5-280.7,249.1-280.7h423.3
				c137.6,0,249.1,125.7,249.1,280.7v477C860.8,793.5,749.3,919.2,611.7,919.2z"/>
		</g>
	</g>
</g>
<g>
	<path class="st1" d="M603,214.8c-0.4-5.5-3-10.6-7.2-14.1s-9.6-5.2-15.1-4.6l-237,24.8c-11.1,1.2-19.2,11.1-18,22.3
		c1.2,11.1,10.9,19,22.3,18l189.3-19.8L339.9,476.5l-85.5-71.8c-8.6-7.2-21.4-6.1-28.5,2.5c-7.2,8.6-6.1,21.3,2.5,28.5l85.5,71.8
		l-89,106c-7.2,8.6-6.1,21.3,2.5,28.5c3.8,3.2,8.4,4.7,13,4.7c5.8,0,11.5-2.5,15.5-7.2l89-106l85.5,71.8c3.8,3.2,8.4,4.7,13,4.7
		c5.8,0,11.5-2.5,15.5-7.2c7.2-8.6,6.1-21.3-2.5-28.5L371,502.5l195.3-232.7l13.1,185.5c0.8,10.7,9.6,18.8,20.2,18.8
		c0.5,0,1,0,1.5-0.1c11.2-0.8,19.6-10.5,18.8-21.6L603,214.8z"/>
	<g>
		<path class="st1" d="M277.9,108.2c3,0.1,5.4-2.3,5.5-5.3s-2.3-5.4-5.3-5.5s-5.4,2.3-5.5,5.3S274.9,108.2,277.9,108.2z"/>
		<path class="st1" d="M449.3,280c3,0.1,5.4-2.3,5.5-5.3s-2.3-5.4-5.3-5.5s-5.4,2.3-5.5,5.3C444,277.5,446.3,279.9,449.3,280z"/>
		<path class="st1" d="M484.2,702.4c3,0.1,5.4-2.3,5.5-5.3s-2.3-5.4-5.3-5.5s-5.4,2.3-5.5,5.3C478.9,699.9,481.2,702.4,484.2,702.4z
			"/>
		<path class="st1" d="M277.9,684.7c3,0.1,5.4-2.3,5.5-5.3s-2.3-5.4-5.3-5.5s-5.4,2.3-5.5,5.3S274.9,684.7,277.9,684.7z"/>
		<path class="st1" d="M703.1,532.3c3,0.1,5.4-2.3,5.5-5.3s-2.3-5.4-5.3-5.5s-5.4,2.3-5.5,5.3C697.8,529.8,700.1,532.2,703.1,532.3z
			"/>
		<path class="st1" d="M525.7,462.1c3,0.1,5.4-2.3,5.5-5.3s-2.3-5.4-5.3-5.5s-5.4,2.3-5.5,5.3C520.3,459.6,522.7,462.1,525.7,462.1z
			"/>
		<path class="st1" d="M196.1,353c3,0.1,5.4-2.3,5.5-5.3s-2.3-5.4-5.3-5.5s-5.4,2.3-5.5,5.3S193.1,353,196.1,353z"/>
		<path class="st1" d="M594.7,681c3,0.1,5.4-2.3,5.5-5.3s-2.3-5.4-5.3-5.5s-5.4,2.3-5.5,5.3C589.4,678.4,591.7,680.9,594.7,681z"/>
		<path class="st1" d="M712,332.6c3,0.1,5.4-2.3,5.5-5.3s-2.3-5.4-5.3-5.5s-5.4,2.3-5.5,5.3C706.7,330.1,709,332.6,712,332.6z"/>
		<path class="st1" d="M648.9,266.7c3,0.1,5.4-2.3,5.5-5.3s-2.3-5.4-5.3-5.5s-5.4,2.3-5.5,5.3C643.6,264.2,646,266.6,648.9,266.7z"
			/>
		<path class="st1" d="M505.7,150.5c3,0.1,5.4-2.3,5.5-5.3s-2.3-5.4-5.3-5.5s-5.4,2.3-5.5,5.3C500.3,148,502.7,150.4,505.7,150.5z"
			/>
		<path class="st1" d="M310.2,292.5c2.1,0,3.8-1.6,3.8-3.7s-1.6-3.8-3.7-3.8s-3.8,1.6-3.8,3.7C306.5,290.7,308.1,292.4,310.2,292.5z
			"/>
		<path class="st1" d="M128.8,163.1c2.1,0,3.8-1.6,3.8-3.7s-1.6-3.8-3.7-3.8c-2.1,0-3.8,1.6-3.8,3.7
			C125.1,161.4,126.7,163.1,128.8,163.1z"/>
		<path class="st1" d="M97.6,316.4c2.1,0,3.8-1.6,3.8-3.7s-1.6-3.8-3.7-3.8s-3.8,1.6-3.8,3.7S95.6,316.4,97.6,316.4z"/>
		<path class="st1" d="M182.5,583.9c2.1,0,3.8-1.6,3.8-3.7c0-2.1-1.6-3.8-3.7-3.8c-2.1,0-3.8,1.6-3.8,3.7
			C178.7,582.2,180.4,583.9,182.5,583.9z"/>
		<path class="st1" d="M108,616.4c2.1,0,3.8-1.6,3.8-3.7c0-2.1-1.6-3.8-3.7-3.8s-3.8,1.6-3.8,3.7C104.3,614.6,105.9,616.3,108,616.4
			z"/>
		<path class="st1" d="M652.7,389.4c2.1,0,3.8-1.6,3.8-3.7s-1.6-3.8-3.7-3.8c-2.1,0-3.8,1.6-3.8,3.7S650.6,389.4,652.7,389.4z"/>
		<path class="st1" d="M664.1,176.3c2.1,0,3.8-1.6,3.8-3.7c0-2.1-1.6-3.8-3.7-3.8c-2.1,0-3.8,1.6-3.8,3.7
			C660.3,174.6,662,176.3,664.1,176.3z"/>
		<path class="st1" d="M469.8,180.1c2.1,0,3.8-1.6,3.8-3.7c0-2.1-1.6-3.8-3.7-3.8s-3.8,1.6-3.8,3.7
			C466.1,178.3,467.7,180,469.8,180.1z"/>
		<path class="st1" d="M373.8,593.4c2.1,0,3.8-1.6,3.8-3.7c0-2.1-1.6-3.8-3.7-3.8s-3.8,1.6-3.8,3.7
			C370,591.6,371.7,593.3,373.8,593.4z"/>
		<path class="st1" d="M457.3,654.8c2.1,0,3.8-1.6,3.8-3.7c0-2.1-1.6-3.8-3.7-3.8s-3.8,1.6-3.8,3.7
			C453.6,653,455.2,654.7,457.3,654.8z"/>
		<path class="st1" d="M348.1,700.8c2.1,0,3.8-1.6,3.8-3.7c0-2.1-1.6-3.8-3.7-3.8s-3.8,1.6-3.8,3.7C344.3,699,346,700.7,348.1,700.8
			z"/>
		<path class="st1" d="M630.9,543.5c2.1,0,3.8-1.6,3.8-3.7c0-2.1-1.6-3.8-3.7-3.8c-2.1,0-3.8,1.6-3.8,3.7
			C627.2,541.8,628.8,543.5,630.9,543.5z"/>
		<path class="st1" d="M233.7,203.9c2.1,0,3.8-1.6,3.8-3.7c0-2.1-1.6-3.8-3.7-3.8c-2.1,0-3.8,1.6-3.8,3.7
			C230,202.2,231.6,203.9,233.7,203.9z"/>
		<path class="st1" d="M337.1,421.9c2.1,0,3.8-1.6,3.8-3.7s-1.6-3.8-3.7-3.8s-3.8,1.6-3.8,3.7S335.1,421.9,337.1,421.9z"/>
		<path class="st1" d="M383.6,321.3c2.1,0,3.8-1.6,3.8-3.7s-1.6-3.8-3.7-3.8s-3.8,1.6-3.8,3.7C379.8,319.5,381.5,321.2,383.6,321.3z
			"/>
		<path class="st1" d="M203.6,181.4c1.4,0,2.5-1.1,2.5-2.4c0-1.4-1.1-2.5-2.4-2.5c-1.4,0-2.5,1.1-2.5,2.4
			C201.2,180.3,202.3,181.4,203.6,181.4z"/>
		<path class="st1" d="M128.7,386.1c1.4,0,2.5-1.1,2.5-2.4c0-1.4-1.1-2.5-2.4-2.5c-1.4,0-2.5,1.1-2.5,2.4
			C126.2,384.9,127.3,386,128.7,386.1z"/>
		<path class="st1" d="M263.2,499.6c1.4,0,2.5-1.1,2.5-2.4c0-1.4-1.1-2.5-2.4-2.5c-1.4,0-2.5,1.1-2.5,2.4
			C260.7,498.5,261.8,499.6,263.2,499.6z"/>
		<path class="st1" d="M164.2,687.2c1.4,0,2.5-1.1,2.5-2.4c0-1.4-1.1-2.5-2.4-2.5c-1.4,0-2.5,1.1-2.5,2.4
			C161.7,686,162.8,687.2,164.2,687.2z"/>
		<path class="st1" d="M376.2,719.8c1.4,0,2.5-1.1,2.5-2.4c0-1.4-1.1-2.5-2.4-2.5c-1.4,0-2.5,1.1-2.5,2.4
			C373.8,718.7,374.9,719.8,376.2,719.8z"/>
		<path class="st1" d="M501.8,681.8c1.4,0,2.5-1.1,2.5-2.4c0-1.4-1.1-2.5-2.4-2.5c-1.4,0-2.5,1.1-2.5,2.4
			C499.3,680.6,500.4,681.8,501.8,681.8z"/>
		<path class="st1" d="M226.7,366.8c1.4,0,2.5-1.1,2.5-2.4c0-1.4-1.1-2.5-2.4-2.5c-1.4,0-2.5,1.1-2.5,2.4
			C224.3,365.6,225.4,366.7,226.7,366.8z"/>
		<path class="st1" d="M622.8,660.1c1.4,0,2.5-1.1,2.5-2.4c0-1.4-1.1-2.5-2.4-2.5c-1.4,0-2.5,1.1-2.5,2.4
			C620.3,659,621.4,660.1,622.8,660.1z"/>
		<path class="st1" d="M671.5,369.2c1.4,0,2.5-1.1,2.5-2.4c0-1.4-1.1-2.5-2.4-2.5c-1.4,0-2.5,1.1-2.5,2.4
			C669,368.1,670.1,369.2,671.5,369.2z"/>
		<path class="st1" d="M422.4,344.7c1.4,0,2.5-1.1,2.5-2.4c0-1.4-1.1-2.5-2.4-2.5c-1.4,0-2.5,1.1-2.5,2.4
			C420,343.6,421,344.7,422.4,344.7z"/>
		<path class="st1" d="M682.7,467.3c1.4,0,2.5-1.1,2.5-2.4c0-1.4-1.1-2.5-2.4-2.5c-1.4,0-2.5,1.1-2.5,2.4
			C680.2,466.2,681.3,467.3,682.7,467.3z"/>
		<path class="st1" d="M446.9,470c1.4,0,2.5-1.1,2.5-2.4c0-1.4-1.1-2.5-2.4-2.5c-1.4,0-2.5,1.1-2.5,2.4
			C444.5,468.9,445.5,470,446.9,470z"/>
		<path class="st1" d="M549.6,437.7c1.4,0,2.5-1.1,2.5-2.4c0-1.4-1.1-2.5-2.4-2.5c-1.4,0-2.5,1.1-2.5,2.4
			C547.2,436.6,548.3,437.7,549.6,437.7z"/>
		<path class="st1" d="M392.9,144.7c1.4,0,2.5-1.1,2.5-2.4c0-1.4-1.1-2.5-2.4-2.5c-1.4,0-2.5,1.1-2.5,2.4
			C390.5,143.5,391.6,144.7,392.9,144.7z"/>
		<path class="st1" d="M327.6,369.2c1.4,0,2.5-1.1,2.5-2.4c0-1.4-1.1-2.5-2.4-2.5c-1.4,0-2.5,1.1-2.5,2.4
			C325.1,368.1,326.2,369.2,327.6,369.2z"/>
		<path class="st1" d="M348.1,619.7c1.4,0,2.5-1.1,2.5-2.4c0-1.4-1.1-2.5-2.4-2.5c-1.4,0-2.5,1.1-2.5,2.4
			C345.6,618.6,346.7,619.7,348.1,619.7z"/>
		<path class="st1" d="M535.4,332.7c1.4,0,2.5-1.1,2.5-2.4c0-1.4-1.1-2.5-2.4-2.5c-1.4,0-2.5,1.1-2.5,2.4
			C533,331.6,534.1,332.7,535.4,332.7z"/>
		<path class="st1" d="M173.1,459.2c1.4,0,2.5-1.1,2.5-2.4c0-1.4-1.1-2.5-2.4-2.5c-1.4,0-2.5,1.1-2.5,2.4
			C170.6,458,171.7,459.2,173.1,459.2z"/>
		<path class="st1" d="M578.1,126.7c1.4,0,2.5-1.1,2.5-2.4s-1.1-2.5-2.4-2.5c-1.4,0-2.5,1.1-2.5,2.4
			C575.7,125.5,576.7,126.6,578.1,126.7z"/>
		<path class="st1" d="M319,87.6c1.4,0,2.5-1.1,2.5-2.4c0-1.4-1.1-2.5-2.4-2.5c-1.4,0-2.5,1.1-2.5,2.4
			C316.5,86.4,317.6,87.6,319,87.6z"/>
		<path class="st1" d="M173.1,292.5c1.4,0,2.5-1.1,2.5-2.4c0-1.4-1.1-2.5-2.4-2.5c-1.4,0-2.5,1.1-2.5,2.4
			C170.6,291.4,171.7,292.5,173.1,292.5z"/>
		<path class="st1" d="M113.8,242.7c1.4,0,2.5-1.1,2.5-2.4c0-1.4-1.1-2.5-2.4-2.5c-1.4,0-2.5,1.1-2.5,2.4
			C111.4,241.6,112.5,242.7,113.8,242.7z"/>
		<path class="st1" d="M84.9,456.7c1.4,0,2.5-1.1,2.5-2.4c0-1.4-1.1-2.5-2.4-2.5c-1.4,0-2.5,1.1-2.5,2.4
			C82.5,455.6,83.6,456.7,84.9,456.7z"/>
		<path class="st1" d="M154.1,543c1.4,0,2.5-1.1,2.5-2.4c0-1.4-1.1-2.5-2.4-2.5c-1.4,0-2.5,1.1-2.5,2.4
			C151.6,541.9,152.7,543,154.1,543z"/>
		<path class="st1" d="M484.3,526.8c1.4,0,2.5-1.1,2.5-2.4c0-1.4-1.1-2.5-2.4-2.5c-1.4,0-2.5,1.1-2.5,2.4
			C481.8,525.7,482.9,526.8,484.3,526.8z"/>
		<path class="st1" d="M679,613.2c1.4,0,2.5-1.1,2.5-2.4c0-1.4-1.1-2.5-2.4-2.5c-1.4,0-2.5,1.1-2.5,2.4
			C676.5,612.1,677.6,613.2,679,613.2z"/>
		<path class="st1" d="M691.7,208.2c1.4,0,2.5-1.1,2.5-2.4c0-1.4-1.1-2.5-2.4-2.5c-1.4,0-2.5,1.1-2.5,2.4
			C689.2,207,690.3,208.2,691.7,208.2z"/>
		<path class="st1" d="M531.1,85.1c1.4,0,2.5-1.1,2.5-2.4c0-1.4-1.1-2.5-2.4-2.5c-1.4,0-2.5,1.1-2.5,2.4
			C528.7,84,529.8,85.1,531.1,85.1z"/>
		<path class="st1" d="M374,294.8c1.4,0,2.5-1.1,2.5-2.4c0-1.4-1.1-2.5-2.4-2.5c-1.4,0-2.5,1.1-2.5,2.4
			C371.6,293.6,372.7,294.8,374,294.8z"/>
		<path class="st1" d="M186.2,256.3c5.4,0.1,9.9-4.2,10-9.6c0.1-5.4-4.2-9.9-9.6-10c-5.4-0.1-9.9,4.2-10,9.6
			C176.5,251.7,180.8,256.2,186.2,256.3z"/>
		<path class="st1" d="M598.4,166.6c5.4,0.1,9.9-4.2,10-9.6c0.1-5.4-4.2-9.9-9.6-10c-5.4-0.1-9.9,4.2-10,9.6
			S592.9,166.5,598.4,166.6z"/>
		<path class="st1" d="M617.9,617c5.4,0.1,9.9-4.2,10-9.6c0.1-5.4-4.2-9.9-9.6-10c-5.4-0.1-9.9,4.2-10,9.6
			C608.2,612.5,612.5,616.9,617.9,617z"/>
		<path class="st1" d="M113.7,486.2c5.4,0.1,9.9-4.2,10-9.6s-4.2-9.9-9.6-10s-9.9,4.2-10,9.6S108.3,486.1,113.7,486.2z"/>
		<path class="st1" d="M185.9,543.3l-6.5-15.2l-14.9-6.1c-0.2-0.1-0.3-0.3-0.3-0.5s0.1-0.4,0.3-0.5l15.1-6.2l6.2-15.2
			c0.1-0.2,0.3-0.3,0.5-0.3s0.4,0.1,0.5,0.3l6.1,15.8l15.3,5.5c0.2,0.1,0.3,0.3,0.3,0.5l0,0c0,0.2-0.1,0.4-0.3,0.5l-14.2,5.8
			l-7.1,15.6c-0.1,0.2-0.3,0.3-0.5,0.3C186.2,543.6,186,543.5,185.9,543.3z"/>
		<path class="st1" d="M545.1,583.1l-6.5-15.2l-14.9-6.1c-0.2-0.1-0.3-0.3-0.3-0.5s0.1-0.4,0.3-0.5l15.1-6.2l6.2-15.2
			c0.1-0.2,0.3-0.3,0.5-0.3s0.4,0.1,0.5,0.3l6.1,15.8l15.3,5.5c0.2,0.1,0.3,0.3,0.3,0.5l0,0c0,0.2-0.1,0.4-0.3,0.5l-14.2,5.8
			l-7.1,15.6c-0.1,0.2-0.3,0.3-0.5,0.3C545.3,583.4,545.2,583.3,545.1,583.1z"/>
		<path class="st1" d="M294.9,189.1l-6.5-15.2l-14.9-6.1c-0.2-0.1-0.3-0.3-0.3-0.5s0.1-0.4,0.3-0.5l15.1-6.2l6.2-15.2
			c0.1-0.2,0.3-0.3,0.5-0.3s0.4,0.1,0.5,0.3l6.1,15.8l15.3,5.5c0.2,0.1,0.3,0.3,0.3,0.5l0,0c0,0.2-0.1,0.4-0.3,0.5l-14.2,5.8
			l-7.1,15.6c-0.1,0.2-0.3,0.3-0.5,0.3C295.2,189.4,295,189.3,294.9,189.1z"/>
	</g>
</g>
</svg>
