<?xml version="1.0" encoding="utf-8"?>
<!-- Generator: Adobe Illustrator 25.0.0, SVG Export Plug-In . SVG Version: 6.00 Build 0)  -->
<svg version="1.1" id="图层_1" xmlns="http://www.w3.org/2000/svg" xmlns:xlink="http://www.w3.org/1999/xlink" x="0px" y="0px"
	 viewBox="0 0 800 800" style="enable-background:new 0 0 800 800;" xml:space="preserve">
<style type="text/css">
	.st0{clip-path:url(#SVGID_2_);fill:url(#SVGID_3_);}
	.st1{fill:#FFFFFF;}
</style>
<g>
	<g>
		<g>
			<defs>
				<path id="SVGID_1_" d="M400,0L400,0c220.9,0,400,179.1,400,400v0c0,220.9-179.1,400-400,400h0C179.1,800,0,620.9,0,400v0
					C0,179.1,179.1,0,400,0z"/>
			</defs>
			<clipPath id="SVGID_2_">
				<use xlink:href="#SVGID_1_"  style="overflow:visible;"/>
			</clipPath>
			<linearGradient id="SVGID_3_" gradientUnits="userSpaceOnUse" x1="413.8" y1="-100.5" x2="413.8" y2="900.4">
				<stop  offset="0" style="stop-color:#4B29CA"/>
				<stop  offset="0.1141" style="stop-color:#5633C8"/>
				<stop  offset="0.3173" style="stop-color:#754DC3"/>
				<stop  offset="0.5859" style="stop-color:#A678BC"/>
				<stop  offset="0.9062" style="stop-color:#EAB2B1"/>
				<stop  offset="1" style="stop-color:#FFC4AE"/>
			</linearGradient>
			<path class="st0" d="M629.3,900.4h-431c-140.1,0-253.7-121.1-253.7-270.6V170.1c0-149.4,113.6-270.6,253.7-270.6h431
				C769.4-100.5,883,20.6,883,170.1v459.8C882.9,779.3,769.4,900.4,629.3,900.4z"/>
		</g>
	</g>
</g>
<g>
	<path class="st1" d="M604.3,605.8c-5.5-7-11.8-14.3-18.1-21.6c-6-6.9-12-13.9-17.2-20.6c-4.6-5.9-13.1-6.9-19-2.3
		c-4.5,3.5-6.1,9.3-4.6,14.4c-21.6-10.1-35.5-32.5-41.1-67.1c-9.1-56-8.3-98-7.4-146.7c0.3-18.2,0.7-37.5,0.6-58.6
		c0-0.5-0.1-50.3-9.1-75.8c-11.1-31.5-34.9-54-62.1-58.6c-17-2.9-34.9,2.7-50.4,15.8c-5.8,4.9-11,10.6-15.5,16.8
		c-12.5-17.5-29.6-29.5-48.6-32.7c-17-3-34.9,2.7-50.4,15.8c-5.8,4.9-11,10.6-15.5,16.8c-12.5-17.5-29.6-29.4-48.5-32.7
		c-11-1.9-21.5,5.5-23.4,16.6c-1.9,11,5.6,21.5,16.6,23.4c12.3,2.1,24.6,15,30.7,32.1c6.6,18.9,6.7,41,6.8,62.4
		c0.2,55.7,0.3,87.4,0.5,119.1s0.3,63.3,0.5,119c0,11.2,9.1,20.2,20.3,20.2c0,0,0,0,0.1,0c11.2,0,20.2-9.1,20.2-20.3
		c-0.2-55.7-0.3-87.4-0.5-119.1s-0.3-63.3-0.5-119c0-13.8-0.1-28.7-1.9-43.7c0.5-1.7,0.8-3.5,0.8-5.3c0-10.6,7.6-27.9,20.2-38.6
		c3.6-3,10.7-8,17.5-6.8c12.3,2.1,24.7,15,30.7,32.1c6.6,18.9,6.7,41,6.8,62.4c0.2,55.7,0.3,87.4,0.5,119.1s0.3,63.3,0.5,119
		c0,11.2,9.1,20.2,20.3,20.2c0,0,0,0,0.1,0c11.2,0,20.2-9.1,20.2-20.3c-0.2-55.7-0.3-87.4-0.5-119.1s-0.3-63.3-0.5-119
		c0-13.8-0.1-28.6-2-43.6c0.5-1.7,0.8-3.5,0.8-5.3c0-10.6,7.6-27.9,20.2-38.6c3.6-3,10.6-8,17.5-6.8c12.3,2.1,24.6,15,30.7,32.1
		c4.8,13.6,6.7,45.5,6.8,62.4c0.1,20.9-0.2,39.8-0.6,57.8c-0.9,50.6-1.7,94.3,7.9,153.9c8.3,51.5,33.3,86.4,71,100.5
		c-4.1,3.3-6.1,8.8-4.6,14.1c1.7,6,7.1,9.9,13,9.9c1.2,0,2.4-0.2,3.6-0.5c7.6-2.1,16-4,24.3-5.9c8.8-2,17.6-4,25.6-6.2
		c4.3-1.2,7.8-4.5,9.2-8.8C607.9,614,607.1,609.3,604.3,605.8z"/>
	<g>
		<path class="st1" d="M522.5,687.3c-3,0-5.4,2.4-5.4,5.4s2.4,5.4,5.3,5.4s5.4-2.4,5.4-5.3C527.9,689.8,525.5,687.3,522.5,687.3z"/>
		<path class="st1" d="M327.7,554.1c-3,0-5.4,2.4-5.4,5.4s2.4,5.4,5.4,5.4s5.4-2.4,5.4-5.3C333.1,556.6,330.7,554.2,327.7,554.1z"/>
		<path class="st1" d="M319.5,405.1c-3,0-5.4,2.4-5.4,5.3c0,3,2.4,5.4,5.3,5.4c3,0,5.4-2.4,5.4-5.3
			C324.9,407.6,322.5,405.1,319.5,405.1z"/>
		<path class="st1" d="M497.8,153.2c-3,0-5.4,2.4-5.4,5.3c0,3,2.4,5.4,5.3,5.4c3,0,5.4-2.4,5.4-5.4
			C503.2,155.7,500.8,153.2,497.8,153.2z"/>
		<path class="st1" d="M98.7,284.4c-3,0-5.4,2.4-5.4,5.3c0,3,2.4,5.4,5.3,5.4c3,0,5.4-2.4,5.4-5.4
			C104.1,286.9,101.7,284.4,98.7,284.4z"/>
		<path class="st1" d="M193.8,342.6c-3,0-5.4,2.4-5.4,5.4s2.4,5.4,5.3,5.4c3,0,5.4-2.4,5.4-5.3C199.1,345,196.7,342.6,193.8,342.6z"
			/>
		<path class="st1" d="M651,436.8c-3,0-5.4,2.4-5.4,5.3c0,3,2.4,5.4,5.4,5.4s5.4-2.4,5.4-5.4C656.4,439.3,654,436.8,651,436.8z"/>
		<path class="st1" d="M213.1,102.2c-3,0-5.4,2.4-5.4,5.3c0,3,2.4,5.4,5.4,5.4s5.4-2.4,5.4-5.3C218.4,104.7,216,102.3,213.1,102.2z"
			/>
		<path class="st1" d="M87.9,490.9c-3,0-5.4,2.4-5.4,5.4s2.4,5.4,5.4,5.4s5.4-2.4,5.4-5.3C93.3,493.3,90.9,490.9,87.9,490.9z"/>
		<path class="st1" d="M184.4,551.6c-3,0-5.4,2.4-5.4,5.4s2.4,5.4,5.4,5.4s5.4-2.4,5.4-5.3C189.8,554.1,187.4,551.6,184.4,551.6z"/>
		<path class="st1" d="M529.9,462.7c-3,0-5.4,2.4-5.4,5.4s2.4,5.4,5.4,5.4s5.4-2.4,5.4-5.3C535.2,465.1,532.8,462.7,529.9,462.7z"/>
		<path class="st1" d="M628.2,348.6c-2.1,0-3.8,1.7-3.8,3.7c0,2.1,1.7,3.8,3.7,3.8c2.1,0,3.8-1.7,3.8-3.7S630.2,348.7,628.2,348.6z"
			/>
		<path class="st1" d="M671.1,631c-2.1,0-3.8,1.7-3.8,3.7c0,2.1,1.7,3.8,3.7,3.8c2.1,0,3.8-1.7,3.8-3.7
			C674.9,632.7,673.2,631.1,671.1,631z"/>
		<path class="st1" d="M701,477.4c-2.1,0-3.8,1.7-3.8,3.7c0,2.1,1.7,3.8,3.7,3.8c2.1,0,3.8-1.7,3.8-3.7
			C704.7,479.1,703,477.4,701,477.4z"/>
		<path class="st1" d="M629.7,243.7c-2.1,0-3.8,1.7-3.8,3.7c0,2.1,1.7,3.8,3.7,3.8c2.1,0,3.8-1.7,3.8-3.7
			C633.5,245.4,631.8,243.7,629.7,243.7z"/>
		<path class="st1" d="M688.6,185.6c-2.1,0-3.8,1.7-3.8,3.7c0,2.1,1.7,3.8,3.7,3.8c2.1,0,3.8-1.7,3.8-3.7
			C692.3,187.3,690.7,185.6,688.6,185.6z"/>
		<path class="st1" d="M145,409.3c-2.1,0-3.8,1.7-3.8,3.7c0,2.1,1.7,3.8,3.7,3.8c2.1,0,3.8-1.7,3.8-3.7
			C148.8,411,147.1,409.3,145,409.3z"/>
		<path class="st1" d="M135.5,622.6c-2.1,0-3.8,1.7-3.8,3.7c0,2.1,1.7,3.8,3.7,3.8c2.1,0,3.8-1.7,3.8-3.7
			C139.3,624.3,137.6,622.6,135.5,622.6z"/>
		<path class="st1" d="M333.8,639.1c-2.1,0-3.8,1.7-3.8,3.7c0,2.1,1.7,3.8,3.7,3.8c2.1,0,3.8-1.7,3.8-3.7
			C337.6,640.8,335.9,639.1,333.8,639.1z"/>
		<path class="st1" d="M406.8,286c-2.1,0-3.8,1.7-3.8,3.7c0,2.1,1.7,3.8,3.7,3.8c2.1,0,3.8-1.7,3.8-3.7
			C410.6,287.7,408.9,286,406.8,286z"/>
		<path class="st1" d="M337.5,149.4c-2.1,0-3.8,1.7-3.8,3.7c0,2.1,1.7,3.8,3.7,3.8c2.1,0,3.8-1.7,3.8-3.7S339.5,149.5,337.5,149.4z"
			/>
		<path class="st1" d="M457.5,116.7c-2.1,0-3.8,1.7-3.8,3.7c0,2.1,1.7,3.8,3.7,3.8c2.1,0,3.8-1.7,3.8-3.7
			C461.2,118.4,459.5,116.7,457.5,116.7z"/>
		<path class="st1" d="M165.5,254.9c-2.1,0-3.8,1.7-3.8,3.7c0,2.1,1.7,3.8,3.7,3.8c2.1,0,3.8-1.7,3.8-3.7
			C169.2,256.6,167.5,254.9,165.5,254.9z"/>
		<path class="st1" d="M558.7,506.5c-2.1,0-3.8,1.7-3.8,3.7c0,2.1,1.7,3.8,3.7,3.8c2.1,0,3.8-1.7,3.8-3.7S560.8,506.6,558.7,506.5z"
			/>
		<path class="st1" d="M431.7,390.7c-2.1,0-3.8,1.7-3.8,3.7c0,2.1,1.7,3.8,3.7,3.8c2.1,0,3.8-1.7,3.8-3.7
			C435.4,392.4,433.8,390.7,431.7,390.7z"/>
		<path class="st1" d="M289.6,512.6c-2.1,0-3.8,1.7-3.8,3.7c0,2.1,1.7,3.8,3.7,3.8c2.1,0,3.8-1.7,3.8-3.7
			C293.3,514.3,291.6,512.6,289.6,512.6z"/>
		<path class="st1" d="M606.5,695.6c-1.4,0-2.5,1.1-2.5,2.5s1.1,2.5,2.5,2.5s2.5-1.1,2.5-2.5C609,696.8,607.9,695.6,606.5,695.6z"/>
		<path class="st1" d="M669.3,408c-1.4,0-2.5,1.1-2.5,2.5s1.1,2.5,2.5,2.5s2.5-1.1,2.5-2.5C671.8,409.2,670.7,408,669.3,408z"/>
		<path class="st1" d="M556.1,190.6c-1.4,0-2.5,1.1-2.5,2.5s1.1,2.5,2.5,2.5s2.5-1.1,2.5-2.5C558.5,191.8,557.4,190.6,556.1,190.6z"
			/>
		<path class="st1" d="M551,384.7c-1.4,0-2.5,1.1-2.5,2.5s1.1,2.5,2.5,2.5s2.5-1.1,2.5-2.5C553.5,385.9,552.4,384.7,551,384.7z"/>
		<path class="st1" d="M645.6,143.4c-1.4,0-2.5,1.1-2.5,2.5s1.1,2.5,2.5,2.5s2.5-1.1,2.5-2.5C648,144.5,646.9,143.4,645.6,143.4z"/>
		<path class="st1" d="M371.8,81.3c-1.4,0-2.5,1.1-2.5,2.5s1.1,2.5,2.5,2.5s2.5-1.1,2.5-2.5S373.2,81.3,371.8,81.3z"/>
		<path class="st1" d="M293.5,115.5c-1.4,0-2.5,1.1-2.5,2.5s1.1,2.5,2.5,2.5s2.5-1.1,2.5-2.5C295.9,116.6,294.8,115.5,293.5,115.5z"
			/>
		<path class="st1" d="M535.2,96.4c-1.4,0-2.5,1.1-2.5,2.5s1.1,2.5,2.5,2.5s2.5-1.1,2.5-2.5S536.6,96.4,535.2,96.4z"/>
		<path class="st1" d="M172.6,138.2c-1.4,0-2.5,1.1-2.5,2.5s1.1,2.5,2.5,2.5s2.5-1.1,2.5-2.5C175,139.3,173.9,138.2,172.6,138.2z"/>
		<path class="st1" d="M126.4,429.7c-1.4,0-2.5,1.1-2.5,2.5s1.1,2.5,2.5,2.5s2.5-1.1,2.5-2.5C128.9,430.8,127.8,429.7,126.4,429.7z"
			/>
		<path class="st1" d="M297,622.9c-1.4,0-2.5,1.1-2.5,2.5s1.1,2.5,2.5,2.5s2.5-1.1,2.5-2.5C299.4,624,298.3,622.9,297,622.9z"/>
		<path class="st1" d="M114.4,331.6c-1.4,0-2.5,1.1-2.5,2.5s1.1,2.5,2.5,2.5s2.5-1.1,2.5-2.5C116.8,332.7,115.7,331.6,114.4,331.6z"
			/>
		<path class="st1" d="M288.1,360.1c-1.4,0-2.5,1.1-2.5,2.5s1.1,2.5,2.5,2.5s2.5-1.1,2.5-2.5C290.6,361.3,289.5,360.1,288.1,360.1z"
			/>
		<path class="st1" d="M282.3,713.8c-1.4,0-2.5,1.1-2.5,2.5s1.1,2.5,2.5,2.5s2.5-1.1,2.5-2.5C284.8,714.9,283.7,713.8,282.3,713.8z"
			/>
		<path class="st1" d="M415.6,644.2c-1.4,0-2.5,1.1-2.5,2.5s1.1,2.5,2.5,2.5s2.5-1.1,2.5-2.5S417,644.2,415.6,644.2z"/>
		<path class="st1" d="M409.3,445.1c-1.4,0-2.5,1.1-2.5,2.5s1.1,2.5,2.5,2.5s2.5-1.1,2.5-2.5S410.7,445.1,409.3,445.1z"/>
		<path class="st1" d="M424.1,234.9c-1.4,0-2.5,1.1-2.5,2.5s1.1,2.5,2.5,2.5s2.5-1.1,2.5-2.5C426.5,236,425.4,234.9,424.1,234.9z"/>
		<path class="st1" d="M435.2,541.6c-1.4,0-2.5,1.1-2.5,2.5s1.1,2.5,2.5,2.5s2.5-1.1,2.5-2.5C437.6,542.7,436.5,541.6,435.2,541.6z"
			/>
		<path class="st1" d="M378.7,683.6c-1.4,0-2.5,1.1-2.5,2.5s1.1,2.5,2.5,2.5s2.5-1.1,2.5-2.5C381.2,684.7,380.1,683.6,378.7,683.6z"
			/>
		<path class="st1" d="M225.1,673.9c-1.4,0-2.5,1.1-2.5,2.5s1.1,2.5,2.5,2.5s2.5-1.1,2.5-2.5C227.5,675.1,226.4,674,225.1,673.9z"/>
		<path class="st1" d="M481.6,708.3c-1.4,0-2.5,1.1-2.5,2.5s1.1,2.5,2.5,2.5s2.5-1.1,2.5-2.5C484,709.4,482.9,708.3,481.6,708.3z"/>
		<path class="st1" d="M625.7,502c-1.4,0-2.5,1.1-2.5,2.5s1.1,2.5,2.5,2.5s2.5-1.1,2.5-2.5C628.1,503.1,627.1,502,625.7,502z"/>
		<path class="st1" d="M685.4,551.3c-1.4,0-2.5,1.1-2.5,2.5s1.1,2.5,2.5,2.5s2.5-1.1,2.5-2.5C687.9,552.4,686.8,551.3,685.4,551.3z"
			/>
		<path class="st1" d="M715,352.4c-1.4,0-2.5,1.1-2.5,2.5s1.1,2.5,2.5,2.5s2.5-1.1,2.5-2.5S716.4,352.4,715,352.4z"/>
		<path class="st1" d="M657.8,276.2c-1.4,0-2.5,1.1-2.5,2.5s1.1,2.5,2.5,2.5s2.5-1.1,2.5-2.5C660.3,277.4,659.2,276.3,657.8,276.2z"
			/>
		<path class="st1" d="M429.7,140.9c-1.4,0-2.5,1.1-2.5,2.5s1.1,2.5,2.5,2.5s2.5-1.1,2.5-2.5C432.1,142.1,431,140.9,429.7,140.9z"/>
		<path class="st1" d="M312.3,270.3c-1.4,0-2.5,1.1-2.5,2.5s1.1,2.5,2.5,2.5s2.5-1.1,2.5-2.5C314.8,271.5,313.7,270.3,312.3,270.3z"
			/>
		<path class="st1" d="M116.7,185.6c-1.4,0-2.5,1.1-2.5,2.5s1.1,2.5,2.5,2.5s2.5-1.1,2.5-2.5C119.2,186.8,118.1,185.6,116.7,185.6z"
			/>
		<path class="st1" d="M107.6,590.9c-1.4,0-2.5,1.1-2.5,2.5s1.1,2.5,2.5,2.5s2.5-1.1,2.5-2.5C110.1,592.1,109,591,107.6,590.9z"/>
		<path class="st1" d="M295.6,539.1c-1.4,0-2.5,1.1-2.5,2.5s1.1,2.5,2.5,2.5s2.5-1.1,2.5-2.5C298,540.2,296.9,539.1,295.6,539.1z"/>
		<path class="st1" d="M647.2,561.1c-5.4,0-9.9,4.3-9.9,9.7s4.3,9.9,9.7,9.9s9.9-4.3,9.9-9.7C657,565.5,652.6,561.1,647.2,561.1z"/>
		<path class="st1" d="M207.7,636.8c-5.4,0-9.9,4.3-9.9,9.7s4.3,9.9,9.7,9.9s9.9-4.3,9.9-9.7C217.5,641.3,213.1,636.9,207.7,636.8z"
			/>
		<path class="st1" d="M240.4,128.4c-5.4,0-9.9,4.3-9.9,9.7s4.3,9.9,9.7,9.9s9.9-4.3,9.9-9.7C250.2,132.9,245.8,128.4,240.4,128.4z"
			/>
		<path class="st1" d="M545,214.5c-5.4,0-9.9,4.3-9.9,9.7s4.3,9.9,9.7,9.9s9.9-4.3,9.9-9.7C554.8,219,550.5,214.5,545,214.5z"/>
		<path class="st1" d="M573.4,262.5l6.7,15.2l14.9,6c0.2,0.1,0.3,0.3,0.3,0.5s-0.1,0.4-0.3,0.5l-15.1,6.3l-6.1,15.2
			c-0.1,0.2-0.3,0.3-0.5,0.3s-0.4-0.1-0.5-0.3l-6.2-15.7l-15.3-5.4c-0.2-0.1-0.3-0.3-0.3-0.5l0,0c0-0.2,0.1-0.4,0.3-0.5l14.2-5.9
			l7-15.7c0.1-0.2,0.3-0.3,0.5-0.3C573.2,262.2,573.3,262.4,573.4,262.5z"/>
		<path class="st1" d="M154.6,440.8l6.7,15.2l14.9,6c0.2,0.1,0.3,0.3,0.3,0.5s-0.1,0.4-0.3,0.5l-15.1,6.3l-6.1,15.2
			c-0.1,0.2-0.3,0.3-0.5,0.3s-0.4-0.1-0.5-0.3l-6.2-15.7l-15.3-5.4c-0.2-0.1-0.3-0.3-0.3-0.5l0,0c0-0.2,0.1-0.4,0.3-0.5l14.2-5.9
			l7-15.7c0.1-0.2,0.3-0.3,0.5-0.3C154.3,440.5,154.5,440.6,154.6,440.8z"/>
		<path class="st1" d="M443.5,596.5l6.7,15.2l14.9,6c0.2,0.1,0.3,0.3,0.3,0.5s-0.1,0.4-0.3,0.5L450,625l-6.1,15.2
			c-0.1,0.2-0.3,0.3-0.5,0.3s-0.4-0.1-0.5-0.3l-6.2-15.7l-15.3-5.4c-0.2-0.1-0.3-0.3-0.3-0.5l0,0c0-0.2,0.1-0.4,0.3-0.5l14.2-5.9
			l7-15.7c0.1-0.2,0.3-0.3,0.5-0.3C443.2,596.2,443.4,596.3,443.5,596.5z"/>
	</g>
</g>
</svg>
