<svg width="24" height="24" viewBox="0 0 24 24" fill="none" xmlns="http://www.w3.org/2000/svg">
  <rect width="24" height="24" rx="12" fill="black" />
  <g clip-path="url(#clip0_1673_8504)">
    <path
      d="M19.9176 16.038L17.2763 18.8093C17.2189 18.8695 17.1494 18.9175 17.0722 18.9503C16.995 18.9831 16.9118 19 16.8276 19H4.30663C4.24689 19 4.18845 18.9829 4.13849 18.9509C4.08853 18.9188 4.04923 18.8732 4.02541 18.8196C4.0016 18.766 3.99431 18.7067 4.00444 18.6491C4.01457 18.5915 4.04168 18.5381 4.08244 18.4953L6.72572 15.724C6.78298 15.664 6.85223 15.6161 6.92918 15.5833C7.00613 15.5505 7.08914 15.5335 7.17308 15.5333H19.6934C19.7531 15.5333 19.8116 15.5504 19.8615 15.5825C19.9115 15.6145 19.9508 15.6601 19.9746 15.7138C19.9984 15.7674 20.0057 15.8266 19.9956 15.8842C19.9854 15.9418 19.9583 15.9953 19.9176 16.038ZM17.2763 10.4573C17.2189 10.3971 17.1494 10.3491 17.0722 10.3163C16.995 10.2835 16.9118 10.2666 16.8276 10.2667H4.30663C4.24689 10.2667 4.18845 10.2838 4.13849 10.3158C4.08853 10.3479 4.04923 10.3935 4.02541 10.4471C4.0016 10.5007 3.99431 10.5599 4.00444 10.6175C4.01457 10.6751 4.04168 10.7286 4.08244 10.7713L6.72572 13.5427C6.78298 13.6027 6.85223 13.6506 6.92918 13.6834C7.00613 13.7162 7.08914 13.7332 7.17308 13.7333H19.6934C19.7531 13.7333 19.8116 13.7163 19.8615 13.6842C19.9115 13.6522 19.9508 13.6065 19.9746 13.5529C19.9984 13.4993 20.0057 13.4401 19.9956 13.3825C19.9854 13.3249 19.9583 13.2714 19.9176 13.2287L17.2763 10.4573ZM4.30663 8.46667H16.8276C16.9118 8.46671 16.995 8.4498 17.0722 8.417C17.1494 8.3842 17.2189 8.3362 17.2763 8.276L19.9176 5.50467C19.9583 5.46193 19.9854 5.40848 19.9956 5.35087C20.0057 5.29327 19.9984 5.23403 19.9746 5.18042C19.9508 5.12682 19.9115 5.08118 19.8615 5.04913C19.8116 5.01708 19.7531 5 19.6934 5H7.17308C7.08914 5.00014 7.00613 5.01713 6.92918 5.04993C6.85223 5.08273 6.78298 5.13063 6.72572 5.19067L4.08312 7.962C4.0424 8.00469 4.01531 8.05809 4.00515 8.11563C3.995 8.17317 4.00223 8.23236 4.02596 8.28594C4.04969 8.33952 4.08888 8.38516 4.13874 8.41726C4.1886 8.44937 4.24695 8.46654 4.30663 8.46667Z"
      fill="url(#paint0_linear_1673_8504)" />
  </g>
  <defs>
    <linearGradient id="paint0_linear_1673_8504" x1="5.35059" y1="19.3337" x2="18.1601" y2="4.57404"
      gradientUnits="userSpaceOnUse">
      <stop offset="0.08" stop-color="#9945FF" />
      <stop offset="0.3" stop-color="#8752F3" />
      <stop offset="0.5" stop-color="#5497D5" />
      <stop offset="0.6" stop-color="#43B4CA" />
      <stop offset="0.72" stop-color="#28E0B9" />
      <stop offset="0.97" stop-color="#19FB9B" />
    </linearGradient>
    <clipPath id="clip0_1673_8504">
      <rect width="16" height="14" fill="white" transform="translate(4 5)" />
    </clipPath>
  </defs>
</svg>
