<?xml version="1.0" encoding="utf-8"?>
<!-- Generator: Adobe Illustrator 25.0.0, SVG Export Plug-In . SVG Version: 6.00 Build 0)  -->
<svg version="1.1" id="图层_1" xmlns="http://www.w3.org/2000/svg" xmlns:xlink="http://www.w3.org/1999/xlink" x="0px" y="0px"
	 viewBox="0 0 800 800" style="enable-background:new 0 0 800 800;" xml:space="preserve">
<style type="text/css">
	.st0{clip-path:url(#SVGID_2_);fill:url(#SVGID_3_);}
	.st1{fill:#FFFFFF;}
</style>
<g>
	<g>
		<g>
			<defs>
				<path id="SVGID_1_" d="M400,0L400,0c220.9,0,400,179.1,400,400v0c0,220.9-179.1,400-400,400h0C179.1,800,0,620.9,0,400v0
					C0,179.1,179.1,0,400,0z"/>
			</defs>
			<clipPath id="SVGID_2_">
				<use xlink:href="#SVGID_1_"  style="overflow:visible;"/>
			</clipPath>
			<linearGradient id="SVGID_3_" gradientUnits="userSpaceOnUse" x1="400.65" y1="-323.2289" x2="400.65" y2="968.556">
				<stop  offset="0" style="stop-color:#00B7FF"/>
				<stop  offset="1" style="stop-color:#CCFFC1"/>
			</linearGradient>
			<path class="st0" d="M611.7,900.8h-422C52.6,900.8-58.6,779.6-58.6,630V169.9c0-149.5,111.2-270.8,248.3-270.8h421.9
				c137.1,0,248.3,121.2,248.3,270.8V630C859.9,779.6,748.8,900.8,611.7,900.8z"/>
		</g>
	</g>
</g>
<g>
	<path class="st1" d="M600.3,163.7c-76.6,0-106.2,52-130,93.8c-22.6,39.6-37,62-72.2,62s-49.7-22.4-72.4-62.1
		c-23.9-41.8-53.6-93.8-130.2-93.8c-11.6,0-21,9.4-21,21s9.4,21,21,21c52.2,0,71.5,33.7,93.8,72.7c13.1,23,27.4,47.7,49.3,64.1
		c-67.1,24.5-115.2,88.7-115.2,164.2c0,96.4,78.4,174.9,174.9,174.9c96.4,0,174.9-78.4,174.9-174.9c0-75.5-48.2-139.8-115.4-164.2
		c21.8-16.5,36-41.2,49.1-64.1c22.2-39,41.3-72.6,93.6-72.6c11.6,0,21-9.4,21-21S611.8,163.7,600.3,163.7z M531.1,506.6
		c0,73.3-59.6,132.9-132.9,132.9s-132.9-59.6-132.9-132.9s59.6-132.9,132.9-132.9S531.1,433.3,531.1,506.6z"/>
	<g>
		<path class="st1" d="M705.4,310.6c-3.1,0.1-5.6-2.4-5.7-5.4c-0.1-3.1,2.4-5.6,5.4-5.7c3.1-0.1,5.6,2.4,5.7,5.4
			C710.9,308,708.4,310.5,705.4,310.6z"/>
		<path class="st1" d="M525.4,96.1c-3.1,0.1-5.6-2.4-5.7-5.4c-0.1-3.1,2.4-5.6,5.4-5.7c3.1-0.1,5.6,2.4,5.7,5.4
			C530.9,93.5,528.5,96.1,525.4,96.1z"/>
		<path class="st1" d="M418.9,256.8c-3.1,0.1-5.6-2.4-5.7-5.4c-0.1-3.1,2.4-5.6,5.4-5.7c3.1-0.1,5.6,2.4,5.7,5.4
			C424.5,254.1,422,256.7,418.9,256.8z"/>
		<path class="st1" d="M355.7,446.7c-3.1,0.1-5.6-2.4-5.7-5.4c-0.1-3.1,2.4-5.6,5.4-5.7c3.1-0.1,5.6,2.4,5.7,5.4
			C361.3,444.1,358.8,446.7,355.7,446.7z"/>
		<path class="st1" d="M413.3,596.8c-3.1,0.1-5.6-2.4-5.7-5.4c-0.1-3.1,2.4-5.6,5.4-5.7c3.1-0.1,5.6,2.4,5.7,5.4
			C418.9,594.1,416.4,596.7,413.3,596.8z"/>
		<path class="st1" d="M532.5,704.4c-3.1,0.1-5.6-2.4-5.7-5.4c-0.1-3.1,2.4-5.6,5.4-5.7c3.1-0.1,5.6,2.4,5.7,5.4
			C538.1,701.7,535.6,704.3,532.5,704.4z"/>
		<path class="st1" d="M88.2,538.2c-3.1,0.1-5.6-2.4-5.7-5.4c-0.1-3.1,2.4-5.6,5.4-5.7c3.1-0.1,5.6,2.4,5.7,5.4
			C93.7,535.6,91.3,538.2,88.2,538.2z"/>
		<path class="st1" d="M233.8,349.4c-3.1,0.1-5.6-2.4-5.7-5.4c-0.1-3.1,2.4-5.6,5.4-5.7c3.1-0.1,5.6,2.4,5.7,5.4
			C239.3,346.8,236.9,349.4,233.8,349.4z"/>
		<path class="st1" d="M637.7,481c-3.1,0.1-5.6-2.4-5.7-5.4c-0.1-3.1,2.4-5.6,5.4-5.7c3.1-0.1,5.6,2.4,5.7,5.4
			C643.2,478.4,640.7,481,637.7,481z"/>
		<path class="st1" d="M201.5,691.4c-3.1,0.1-5.6-2.4-5.7-5.4c-0.1-3.1,2.4-5.6,5.4-5.7c3.1-0.1,5.6,2.4,5.7,5.4
			C207,688.7,204.6,691.3,201.5,691.4z"/>
		<path class="st1" d="M89.6,301.1c-3.1,0.1-5.6-2.4-5.7-5.4c-0.1-3.1,2.4-5.6,5.4-5.7c3.1-0.1,5.6,2.4,5.7,5.4
			C95.1,298.5,92.7,301.1,89.6,301.1z"/>
		<path class="st1" d="M165.1,149.3c-3.1,0.1-5.6-2.4-5.7-5.4c-0.1-3.1,2.4-5.6,5.4-5.7c3.1-0.1,5.6,2.4,5.7,5.4
			C170.6,146.6,168.2,149.2,165.1,149.3z"/>
		<path class="st1" d="M562.4,306.8c-2.1,0.1-3.9-1.6-4-3.8c-0.1-2.1,1.6-3.9,3.8-4c2.1-0.1,3.9,1.6,4,3.8
			C566.2,305,564.5,306.8,562.4,306.8z"/>
		<path class="st1" d="M680.1,151.9c-2.1,0.1-3.9-1.6-4-3.8c-0.1-2.1,1.6-3.9,3.8-4c2.1-0.1,3.9,1.6,4,3.8
			C684,150.1,682.3,151.9,680.1,151.9z"/>
		<path class="st1" d="M591.5,573.5c-2.1,0.1-3.9-1.6-4-3.8c-0.1-2.1,1.6-3.9,3.8-4c2.1-0.1,3.9,1.6,4,3.8
			C595.4,571.6,593.7,573.4,591.5,573.5z"/>
		<path class="st1" d="M705.5,612.6c-2.1,0.1-3.9-1.6-4-3.8c-0.1-2.1,1.6-3.9,3.8-4c2.1-0.1,3.9,1.6,4,3.8
			C709.3,610.7,707.6,612.5,705.5,612.6z"/>
		<path class="st1" d="M139.4,390c-2.1,0.1-3.9-1.6-4-3.8c-0.1-2.1,1.6-3.9,3.8-4c2.1-0.1,3.9,1.6,4,3.8
			C143.2,388.1,141.5,389.9,139.4,390z"/>
		<path class="st1" d="M342.4,159c-2.1,0.1-3.9-1.6-4-3.8c-0.1-2.1,1.6-3.9,3.8-4c2.1-0.1,3.9,1.6,4,3.8
			C346.3,157.1,344.6,158.9,342.4,159z"/>
		<path class="st1" d="M276.2,722c-2.1,0.1-3.9-1.6-4-3.8c-0.1-2.1,1.6-3.9,3.8-4c2.1-0.1,3.9,1.6,4,3.8S278.4,722,276.2,722z"/>
		<path class="st1" d="M319.4,557.9c-2.1,0.1-3.9-1.6-4-3.8c-0.1-2.1,1.6-3.9,3.8-4c2.1-0.1,3.9,1.6,4,3.8
			C323.2,556.1,321.5,557.8,319.4,557.9z"/>
		<path class="st1" d="M430.8,415.8c-2.1,0.1-3.9-1.6-4-3.8c-0.1-2.1,1.6-3.9,3.8-4c2.1-0.1,3.9,1.6,4,3.8
			C434.7,413.9,433,415.7,430.8,415.8z"/>
		<path class="st1" d="M190.7,494.2c-2.1,0.1-3.9-1.6-4-3.8c-0.1-2.1,1.6-3.9,3.8-4c2.1-0.1,3.9,1.6,4,3.8
			C194.5,492.4,192.8,494.2,190.7,494.2z"/>
		<path class="st1" d="M668.5,268c-1.4,0-2.6-1.1-2.6-2.5s1.1-2.6,2.5-2.6s2.6,1.1,2.6,2.5C671.1,266.8,669.9,268,668.5,268z"/>
		<path class="st1" d="M671.1,371.7c-1.4,0-2.6-1.1-2.6-2.5s1.1-2.6,2.5-2.6s2.6,1.1,2.6,2.5S672.5,371.7,671.1,371.7z"/>
		<path class="st1" d="M575.2,436.5c-1.4,0-2.6-1.1-2.6-2.5s1.1-2.6,2.5-2.6s2.6,1.1,2.6,2.5C577.7,435.2,576.6,436.4,575.2,436.5z"
			/>
		<path class="st1" d="M639.9,677.6c-1.4,0-2.6-1.1-2.6-2.5s1.1-2.6,2.5-2.6s2.6,1.1,2.6,2.5S641.3,677.6,639.9,677.6z"/>
		<path class="st1" d="M428,730c-1.4,0-2.6-1.1-2.6-2.5s1.1-2.6,2.5-2.6s2.6,1.1,2.6,2.5C430.5,728.8,429.4,730,428,730z"/>
		<path class="st1" d="M217.9,613.5c-1.4,0-2.6-1.1-2.6-2.5s1.1-2.6,2.5-2.6s2.6,1.1,2.6,2.5S219.3,613.5,217.9,613.5z"/>
		<path class="st1" d="M297.7,691.6c-1.4,0-2.6-1.1-2.6-2.5s1.1-2.6,2.5-2.6s2.6,1.1,2.6,2.5C300.3,690.4,299.2,691.5,297.7,691.6z"
			/>
		<path class="st1" d="M591.5,140.5c-1.4,0-2.6-1.1-2.6-2.5s1.1-2.6,2.5-2.6s2.6,1.1,2.6,2.5C594,139.3,592.9,140.5,591.5,140.5z"/>
		<path class="st1" d="M172.3,670c-1.4,0-2.6-1.1-2.6-2.5s1.1-2.6,2.5-2.6s2.6,1.1,2.6,2.5C174.8,668.8,173.7,670,172.3,670z"/>
		<path class="st1" d="M119.8,369.2c-1.4,0-2.6-1.1-2.6-2.5s1.1-2.6,2.5-2.6s2.6,1.1,2.6,2.5S121.2,369.1,119.8,369.2z"/>
		<path class="st1" d="M211.4,314.1c-1.4,0-2.6-1.1-2.6-2.5s1.1-2.6,2.5-2.6s2.6,1.1,2.6,2.5C214,312.9,212.9,314,211.4,314.1z"/>
		<path class="st1" d="M127.8,239c-1.4,0-2.6-1.1-2.6-2.5s1.1-2.6,2.5-2.6s2.6,1.1,2.6,2.5C130.3,237.7,129.2,238.9,127.8,239z"/>
		<path class="st1" d="M108.9,470.8c-1.4,0-2.6-1.1-2.6-2.5s1.1-2.6,2.5-2.6s2.6,1.1,2.6,2.5C111.5,469.6,110.3,470.8,108.9,470.8z"
			/>
		<path class="st1" d="M240.9,259.3c-1.4,0-2.6-1.1-2.6-2.5s1.1-2.6,2.5-2.6s2.6,1.1,2.6,2.5C243.5,258.1,242.3,259.3,240.9,259.3z"
			/>
		<path class="st1" d="M341.2,461.6c-1.4,0-2.6-1.1-2.6-2.5s1.1-2.6,2.5-2.6s2.6,1.1,2.6,2.5S342.6,461.6,341.2,461.6z"/>
		<path class="st1" d="M331.3,202.4c-1.4,0-2.6-1.1-2.6-2.5s1.1-2.6,2.5-2.6s2.6,1.1,2.6,2.5C333.8,201.2,332.7,202.3,331.3,202.4z"
			/>
		<path class="st1" d="M428,514.7c-1.4,0-2.6-1.1-2.6-2.5c0-1.4,1.1-2.6,2.5-2.6s2.6,1.1,2.6,2.5C430.5,513.5,429.4,514.7,428,514.7
			z"/>
		<path class="st1" d="M464.8,570.8c-1.4,0-2.6-1.1-2.6-2.5s1.1-2.6,2.5-2.6s2.6,1.1,2.6,2.5C467.3,569.6,466.2,570.7,464.8,570.8z"
			/>
		<path class="st1" d="M439.7,180.4c-1.4,0-2.6-1.1-2.6-2.5s1.1-2.6,2.5-2.6s2.6,1.1,2.6,2.5C442.2,179.2,441.1,180.4,439.7,180.4z"
			/>
		<path class="st1" d="M376.7,102.3c-1.4,0-2.6-1.1-2.6-2.5s1.1-2.6,2.5-2.6s2.6,1.1,2.6,2.5C379.2,101.1,378.1,102.3,376.7,102.3z"
			/>
		<path class="st1" d="M217.9,114.8c-1.4,0-2.6-1.1-2.6-2.5s1.1-2.6,2.5-2.6s2.6,1.1,2.6,2.5S219.3,114.8,217.9,114.8z"/>
		<path class="st1" d="M482.7,75.1c-1.4,0-2.6-1.1-2.6-2.5s1.1-2.6,2.5-2.6s2.6,1.1,2.6,2.5C485.3,73.9,484.1,75,482.7,75.1z"/>
		<path class="st1" d="M715,476.1c-1.4,0-2.6-1.1-2.6-2.5s1.1-2.6,2.5-2.6s2.6,1.1,2.6,2.5S716.4,476.1,715,476.1z"/>
		<path class="st1" d="M643.4,527.2c-1.4,0-2.6-1.1-2.6-2.5s1.1-2.6,2.5-2.6s2.6,1.1,2.6,2.5C645.9,526,644.8,527.2,643.4,527.2z"/>
		<path class="st1" d="M566.2,667.5c-1.4,0-2.6-1.1-2.6-2.5s1.1-2.6,2.5-2.6s2.6,1.1,2.6,2.5C568.7,666.3,567.6,667.4,566.2,667.5z"
			/>
		<path class="st1" d="M139.3,568.2c-1.4,0-2.6-1.1-2.6-2.5s1.1-2.6,2.5-2.6s2.6,1.1,2.6,2.5C141.9,567,140.7,568.2,139.3,568.2z"/>
		<path class="st1" d="M109.1,202.4c-1.4,0-2.6-1.1-2.6-2.5s1.1-2.6,2.5-2.6s2.6,1.1,2.6,2.5C111.6,201.2,110.5,202.3,109.1,202.4z"
			/>
		<path class="st1" d="M207,417c-1.4,0-2.6-1.1-2.6-2.5s1.1-2.6,2.5-2.6s2.6,1.1,2.6,2.5S208.4,417,207,417z"/>
		<path class="st1" d="M169.9,308.4c-5.6,0.1-10.3-4.3-10.4-9.9c-0.1-5.6,4.3-10.3,9.9-10.4c5.6-0.1,10.3,4.3,10.4,9.9
			C180,303.6,175.5,308.2,169.9,308.4z"/>
		<path class="st1" d="M480.4,177.7c-5.6,0.1-10.3-4.3-10.4-9.9c-0.1-5.6,4.3-10.3,9.9-10.4c5.6-0.1,10.3,4.3,10.4,9.9
			S486,177.6,480.4,177.7z"/>
		<path class="st1" d="M133,634.1c-5.6,0.1-10.3-4.3-10.4-9.9c-0.1-5.6,4.3-10.3,9.9-10.4c5.6-0.1,10.3,4.3,10.4,9.9
			C143,629.3,138.6,634,133,634.1z"/>
		<path class="st1" d="M674.7,518.3c-5.6,0.1-10.3-4.3-10.4-9.9c-0.1-5.6,4.3-10.3,9.9-10.4c5.6-0.1,10.3,4.3,10.4,9.9
			C684.7,513.5,680.3,518.1,674.7,518.3z"/>
		<path class="st1" d="M300.9,152.4l6.6-15.8l15.3-6.4c0.2-0.1,0.3-0.3,0.3-0.5s-0.1-0.4-0.3-0.5l-15.7-6.3l-6.5-15.7
			c-0.1-0.2-0.3-0.3-0.5-0.3s-0.4,0.1-0.5,0.3l-6.2,16.4l-15.8,5.8c-0.2,0.1-0.3,0.3-0.3,0.5l0,0c0,0.2,0.1,0.4,0.3,0.5l14.8,5.9
			l7.5,16.1c0.1,0.2,0.3,0.3,0.5,0.3C300.6,152.8,300.8,152.6,300.9,152.4z"/>
		<path class="st1" d="M619.7,392.4l6.6-15.8l15.3-6.4c0.2-0.1,0.3-0.3,0.3-0.5s-0.1-0.4-0.3-0.5l-15.7-6.3l-6.5-15.7
			c-0.1-0.2-0.3-0.3-0.5-0.3s-0.4,0.1-0.5,0.3l-6.2,16.4l-15.8,5.8c-0.2,0.1-0.3,0.3-0.3,0.5l0,0c0,0.2,0.1,0.4,0.3,0.5l14.8,5.9
			l7.5,16.1c0.1,0.2,0.3,0.3,0.5,0.3C619.4,392.7,619.6,392.6,619.7,392.4z"/>
		<path class="st1" d="M159.1,544.7l6.6-15.8l15.3-6.4c0.2-0.1,0.3-0.3,0.3-0.5s-0.1-0.4-0.3-0.5l-15.7-6.3l-6.5-15.7
			c-0.1-0.2-0.3-0.3-0.5-0.3s-0.4,0.1-0.5,0.3l-6.2,16.4l-15.8,5.8c-0.2,0.1-0.3,0.3-0.3,0.5l0,0c0,0.2,0.1,0.4,0.3,0.5l14.8,5.9
			l7.5,16.1c0.1,0.2,0.3,0.3,0.5,0.3C158.8,545,159,544.9,159.1,544.7z"/>
	</g>
</g>
</svg>
