<svg width="42" height="42" viewBox="0 0 42 42" fill="none" xmlns="http://www.w3.org/2000/svg">
<path d="M21 42C32.598 42 42 32.598 42 21C42 9.40202 32.598 0 21 0C9.40202 0 0 9.40202 0 21C0 32.598 9.40202 42 21 42Z" fill="url(#paint0_linear_201_8)"/>
<path d="M30.7685 15.8777L28.0825 13.3568C27.9949 13.2747 27.879 13.2316 27.7603 13.237C27.6417 13.2424 27.5299 13.2958 27.4497 13.3855C27.3695 13.4752 27.3274 13.5938 27.3327 13.7153C27.3379 13.8368 27.3901 13.9512 27.4777 14.0333L28.8436 15.3167V17.3067C28.845 17.7577 28.9949 18.195 29.2691 18.548C29.5432 18.9009 29.9256 19.1489 30.3544 19.2519V28.3906C30.357 28.5014 30.3379 28.6115 30.2982 28.7146C30.2586 28.8176 30.1992 28.9115 30.1236 28.9908C30.048 29.07 29.9577 29.133 29.858 29.176C29.7583 29.219 29.6512 29.2411 29.543 29.2411C29.4348 29.2411 29.3278 29.219 29.228 29.176C29.1283 29.133 29.038 29.07 28.9624 28.9908C28.8868 28.9115 28.8275 28.8176 28.7878 28.7146C28.7482 28.6115 28.7291 28.5014 28.7316 28.3906V21.1719C28.7312 20.7086 28.5512 20.2645 28.2313 19.937C27.9114 19.6094 27.4776 19.4252 27.0251 19.4247H26.7731V13.2083C26.7721 12.3577 26.4417 11.5422 25.8542 10.9408C25.2667 10.3393 24.4702 10.001 23.6394 10H17.372C16.5412 10.001 15.7447 10.3393 15.1572 10.9408C14.5698 11.5422 14.2393 12.3577 14.2383 13.2083V31.0833H12.4477C12.3289 31.0833 12.2151 31.1316 12.1311 31.2176C12.0472 31.3035 12 31.4201 12 31.5417C12 31.6632 12.0472 31.7798 12.1311 31.8658C12.2151 31.9517 12.3289 32 12.4477 32H28.5638C28.6825 32 28.7964 31.9517 28.8803 31.8658C28.9643 31.7798 29.0114 31.6632 29.0114 31.5417C29.0114 31.4201 28.9643 31.3035 28.8803 31.2176C28.7964 31.1316 28.6825 31.0833 28.5638 31.0833H26.7731V20.3414H27.0251C27.2402 20.3416 27.4464 20.4292 27.5984 20.5849C27.7505 20.7406 27.8361 20.9517 27.8363 21.1719V28.3906C27.8326 28.6225 27.8741 28.8528 27.9582 29.0681C28.0423 29.2833 28.1674 29.4793 28.3263 29.6446C28.4851 29.8099 28.6745 29.9412 28.8834 30.0308C29.0923 30.1204 29.3165 30.1666 29.543 30.1666C29.7695 30.1666 29.9937 30.1204 30.2026 30.0308C30.4115 29.9412 30.6009 29.8099 30.7598 29.6446C30.9186 29.4793 31.0438 29.2833 31.1279 29.0681C31.212 28.8528 31.2534 28.6225 31.2498 28.3906V16.9983C31.2495 16.7876 31.2066 16.5792 31.1238 16.3864C31.041 16.1935 30.92 16.0203 30.7685 15.8777ZM22.5005 24.9797L19.4044 28.9672C19.3774 29.003 19.3389 29.028 19.2958 29.0377C19.2526 29.0474 19.2074 29.0413 19.1682 29.0204C19.129 28.9995 19.0982 28.9651 19.0812 28.9233C19.0643 28.8815 19.0622 28.8349 19.0754 28.7917L19.8812 25.8267C19.8887 25.7982 19.8896 25.7682 19.884 25.7392C19.8784 25.7102 19.8664 25.6829 19.8489 25.6594C19.8314 25.6359 19.8089 25.6169 19.7831 25.6037C19.7572 25.5905 19.7288 25.5835 19.6999 25.5833H18.6582C18.6228 25.5833 18.5881 25.573 18.5581 25.5537C18.5281 25.5344 18.504 25.5068 18.4886 25.4741C18.4733 25.4414 18.4672 25.405 18.4711 25.3689C18.4751 25.3329 18.4889 25.2987 18.5109 25.2703L21.607 21.2851C21.6335 21.2482 21.6719 21.2222 21.7154 21.2117C21.7589 21.2011 21.8047 21.2068 21.8445 21.2276C21.8843 21.2484 21.9156 21.2831 21.9328 21.3253C21.95 21.3676 21.9519 21.4147 21.9383 21.4583L21.1325 24.4233C21.125 24.4517 21.124 24.4814 21.1295 24.5102C21.135 24.539 21.1468 24.5662 21.1641 24.5897C21.1813 24.6131 21.2036 24.6322 21.2291 24.6456C21.2547 24.6589 21.2828 24.6661 21.3115 24.6667H22.3515C22.387 24.6664 22.422 24.6764 22.4522 24.6956C22.4825 24.7147 22.5068 24.7423 22.5224 24.7751C22.538 24.8078 22.5442 24.8444 22.5404 24.8806C22.5365 24.9168 22.5227 24.9512 22.5005 24.9797ZM24.5347 17.425C24.5347 17.7897 24.3932 18.1394 24.1414 18.3973C23.8895 18.6551 23.5479 18.8 23.1917 18.8H17.8197C17.4635 18.8 17.1219 18.6551 16.87 18.3973C16.6182 18.1394 16.4767 17.7897 16.4767 17.425V13.575C16.4767 13.2103 16.6182 12.8606 16.87 12.6027C17.1219 12.3449 17.4635 12.2 17.8197 12.2H23.1917C23.5479 12.2 23.8895 12.3449 24.1414 12.6027C24.3932 12.8606 24.5347 13.2103 24.5347 13.575V17.425ZM30.3544 18.2885C30.1711 18.2015 30.0158 18.0627 29.9067 17.8885C29.7977 17.7143 29.7395 17.5118 29.7389 17.3049V16.1554L30.1633 16.5537C30.2235 16.6102 30.2716 16.6789 30.3045 16.7554C30.3375 16.832 30.3544 16.9147 30.3544 16.9983V18.2885Z" fill="white"/>
<defs>
<linearGradient id="paint0_linear_201_8" x1="5.5" y1="35" x2="42" y2="13.5" gradientUnits="userSpaceOnUse">
<stop stop-color="#2A5027"/>
<stop offset="0.484375" stop-color="#5EA73D"/>
<stop offset="1" stop-color="#CED935"/>
</linearGradient>
</defs>
</svg>
