<svg width="44" height="44" viewBox="0 0 44 44" fill="none" xmlns="http://www.w3.org/2000/svg">
<circle cx="22" cy="22" r="22" fill="#A6A8AD"/>
<path d="M22.9893 10C19.0919 10 16.5675 11.5968 14.5856 14.4446C14.2261 14.9612 14.337 15.6695 14.8385 16.0498L16.9448 17.6469C17.4513 18.031 18.172 17.9412 18.5685 17.4444C19.7916 15.9121 20.6989 15.0299 22.6094 15.0299C24.1115 15.0299 25.9695 15.9966 25.9695 17.4533C25.9695 18.5544 25.0605 19.12 23.5773 19.9515C21.8477 20.9212 19.5588 22.1281 19.5588 25.1471V25.625C19.5588 26.2722 20.0834 26.7969 20.7307 26.7969H24.2693C24.9165 26.7969 25.4412 26.2722 25.4412 25.625V25.3431C25.4412 23.2503 31.5578 23.1632 31.5578 17.5C31.5578 13.2352 27.1339 10 22.9893 10ZM22.5 28.2353C20.635 28.2353 19.1176 29.7526 19.1176 31.6177C19.1176 33.4827 20.635 35 22.5 35C24.365 35 25.8824 33.4827 25.8824 31.6176C25.8824 29.7526 24.365 28.2353 22.5 28.2353Z" fill="white"/>
</svg>
