<?xml version="1.0" encoding="utf-8"?>
<!-- Generator: Adobe Illustrator 25.0.0, SVG Export Plug-In . SVG Version: 6.00 Build 0)  -->
<svg version="1.1" id="图层_1" xmlns="http://www.w3.org/2000/svg" xmlns:xlink="http://www.w3.org/1999/xlink" x="0px" y="0px"
	 viewBox="0 0 800 800" style="enable-background:new 0 0 800 800;" xml:space="preserve">
<style type="text/css">
	.st0{clip-path:url(#SVGID_2_);fill:url(#SVGID_3_);}
	.st1{fill:#FFFFFF;}
</style>
<g>
	<g>
		<g>
			<defs>
				<path id="SVGID_1_" d="M400,0L400,0c220.9,0,400,179.1,400,400v0c0,220.9-179.1,400-400,400h0C179.1,800,0,620.9,0,400v0
					C0,179.1,179.1,0,400,0z"/>
			</defs>
			<clipPath id="SVGID_2_">
				<use xlink:href="#SVGID_1_"  style="overflow:visible;"/>
			</clipPath>
			<linearGradient id="SVGID_3_" gradientUnits="userSpaceOnUse" x1="400" y1="1246.823" x2="400" y2="8.4861">
				<stop  offset="0" style="stop-color:#FFFF00"/>
				<stop  offset="0.2621" style="stop-color:#FFD944"/>
				<stop  offset="0.5157" style="stop-color:#FFB87E"/>
				<stop  offset="0.7309" style="stop-color:#FFA1A8"/>
				<stop  offset="0.8993" style="stop-color:#FF92C1"/>
				<stop  offset="1" style="stop-color:#FF8DCB"/>
			</linearGradient>
			<path class="st0" d="M621,881.1H179C35.4,881.1-81.1,764.6-81.1,621V179C-81.1,35.4,35.4-81.1,179-81.1h442
				c143.6,0,260.1,116.4,260.1,260.1v442C881.1,764.6,764.6,881.1,621,881.1z"/>
		</g>
	</g>
</g>
<g>
	<path class="st1" d="M582.5,314.7c-8.7-14.2-18.9-17.3-26-17.3c-0.1,0-0.2,0-0.3,0c-17.8,0-34.3,7.4-48.1,20.9
		c0-3.8,0.1-7.7,0.1-11.5c0-0.5-0.1-50.2-9.1-75.6c-11.1-31.5-34.9-53.9-62-58.5c-17-2.9-34.9,2.7-50.4,15.8
		c-5.7,4.9-10.9,10.6-15.4,16.7c-12.5-17.4-29.6-29.3-48.4-32.5c-17-2.9-34.9,2.7-50.4,15.8c-5.7,4.8-10.9,10.6-15.4,16.7
		c-12.5-17.4-29.6-29.3-48.4-32.5c-11-1.9-21.5,5.6-23.4,16.6c-1.9,11.1,5.6,21.6,16.6,23.4c12.3,2.1,24.5,14.9,30.5,32
		c6.6,18.8,6.7,40.9,6.8,62.2c0.2,55.6,0.3,87.2,0.5,118.8s0.3,63.1,0.5,118.7c0,11.2,9.1,20.3,20.3,20.3c0,0,0,0,0.1,0
		c11.2,0,20.3-9.2,20.3-20.4c-0.2-55.6-0.3-87.2-0.5-118.8s-0.3-63.2-0.5-118.7c0-13.8-0.1-28.6-1.9-43.6c0.5-1.7,0.8-3.5,0.8-5.3
		c0-10.5,7.5-27.7,20.1-38.4c3.6-3,10.6-7.8,17.3-6.8c12.3,2.1,24.5,14.9,30.5,32c6.6,18.8,6.7,40.9,6.8,62.2
		c0.2,55.6,0.3,87.2,0.5,118.8s0.3,63.1,0.5,118.7c0,11.2,9.1,20.3,20.3,20.3c0,0,0,0,0.1,0c11.2,0,20.3-9.2,20.3-20.4
		c-0.2-55.6-0.3-87.2-0.5-118.8s-0.3-63.2-0.5-118.7c0-13.7-0.1-28.6-1.9-43.5c0.5-1.7,0.8-3.5,0.8-5.3c0-10.5,7.5-27.7,20.1-38.4
		c3.6-3,10.6-7.8,17.4-6.8c12.3,2.1,24.5,14.9,30.5,32c4.8,13.6,6.7,45.4,6.8,62.3c0.1,20.1-0.2,40.2-0.5,60.3
		c-0.9,58.2-1.9,118.3,7.8,178.5c0.5,3.3,1.2,6.8,1.8,10.3c-24.6,26.3-55.4,47.9-90.8,49.7c-11.2,0.6-19.8,10.1-19.3,21.3
		c0.5,10.9,9.5,19.3,20.3,19.3c0.3,0,0.7,0,1,0c39.9-2,74.1-21,102.3-46.3c10.6,21.6,27.1,37.1,46.2,43.6c2.2,0.7,4.4,1.1,6.5,1.1
		c8.5,0,16.4-5.3,19.2-13.8c3.6-10.6-2.1-22.2-12.7-25.8c-8.8-3-17.1-11.4-22.9-23.1c-2.3-4.6-4-9.7-5.5-14.8
		c21-25.9,37.2-53.4,48.3-75.2C609.9,412.6,599.4,342.5,582.5,314.7z M533.1,473.6c-5.1,9.9-12.5,23.4-21.9,37.8
		c-2.5-22.8-3.6-45.6-4-68.7c0-0.4,0.1-0.8,0.1-1.3c-1.6-29,8.6-72.8,28-93.1c4.6-4.8,9.3-7.9,14.3-9.3
		C557.1,355.5,566.1,408.9,533.1,473.6z"/>
	<g>
		<path class="st1" d="M382.3,691.7c-3,0-5.4-2.4-5.4-5.4s2.4-5.4,5.4-5.4s5.4,2.4,5.4,5.4C387.7,689.3,385.3,691.7,382.3,691.7z"/>
		<path class="st1" d="M174.1,261.1c-3,0-5.4-2.4-5.4-5.4s2.4-5.4,5.4-5.4s5.4,2.4,5.4,5.4C179.5,258.6,177.1,261.1,174.1,261.1z"/>
		<path class="st1" d="M220.6,672.4c-3,0-5.4-2.4-5.4-5.4s2.4-5.4,5.4-5.4s5.4,2.4,5.4,5.4C226,669.9,223.6,672.4,220.6,672.4z"/>
		<path class="st1" d="M137.3,492.9c-3,0-5.4-2.4-5.4-5.4s2.4-5.4,5.4-5.4s5.4,2.4,5.4,5.4S140.3,492.9,137.3,492.9z"/>
		<path class="st1" d="M167.3,174.4c-2.1,0-3.8-1.7-3.8-3.7c0-2.1,1.7-3.8,3.7-3.8c2.1,0,3.8,1.7,3.8,3.7
			C171.1,172.7,169.4,174.4,167.3,174.4z"/>
		<path class="st1" d="M425.6,284.4c-2.1,0-3.8-1.7-3.8-3.7c0-2.1,1.7-3.8,3.7-3.8c2.1,0,3.8,1.7,3.8,3.7
			C429.3,282.7,427.6,284.4,425.6,284.4z"/>
		<path class="st1" d="M408,154.8c-2.1,0-3.8-1.7-3.8-3.7c0-2.1,1.7-3.8,3.7-3.8c2.1,0,3.8,1.7,3.8,3.7
			C411.8,153.1,410.1,154.8,408,154.8z"/>
		<path class="st1" d="M259,154.8c-2.1,0-3.8-1.7-3.8-3.7c0-2.1,1.7-3.8,3.7-3.8c2.1,0,3.8,1.7,3.8,3.7
			C262.8,153.1,261.1,154.8,259,154.8z"/>
		<path class="st1" d="M310.3,713.3c-2.1,0-3.8-1.7-3.8-3.7c0-2.1,1.7-3.8,3.7-3.8c2.1,0,3.8,1.7,3.8,3.7
			C314.1,711.6,312.4,713.3,310.3,713.3z"/>
		<path class="st1" d="M250.6,602c-2.1,0-3.8-1.7-3.8-3.7c0-2.1,1.7-3.8,3.7-3.8c2.1,0,3.8,1.7,3.8,3.7
			C254.3,600.3,252.6,602,250.6,602z"/>
		<path class="st1" d="M305,475.9c-2.1,0-3.8-1.7-3.8-3.7c0-2.1,1.7-3.8,3.7-3.8c2.1,0,3.8,1.7,3.8,3.7
			C308.8,474.2,307.1,475.9,305,475.9z"/>
		<path class="st1" d="M96.4,357.8c-2.1,0-3.8-1.7-3.8-3.7c0-2.1,1.7-3.8,3.7-3.8c2.1,0,3.8,1.7,3.8,3.7
			C100.2,356.1,98.5,357.8,96.4,357.8z"/>
		<path class="st1" d="M211.4,412.9c-2.1,0-3.8-1.7-3.8-3.7c0-2.1,1.7-3.8,3.7-3.8c2.1,0,3.8,1.7,3.8,3.7
			C215.2,411.2,213.5,412.9,211.4,412.9z"/>
		<path class="st1" d="M534.5,280.6c-2.1,0-3.8-1.7-3.8-3.7c0-2.1,1.7-3.8,3.7-3.8c2.1,0,3.8,1.7,3.8,3.7
			C538.3,278.9,536.6,280.6,534.5,280.6z"/>
		<path class="st1" d="M690,561.6c-2.1,0-3.8-1.7-3.8-3.7c0-2.1,1.7-3.8,3.7-3.8c2.1,0,3.8,1.7,3.8,3.7
			C693.8,559.9,692.1,561.6,690,561.6z"/>
		<path class="st1" d="M433.7,512.3c-2.1,0-3.8-1.7-3.8-3.7c0-2.1,1.7-3.8,3.7-3.8c2.1,0,3.8,1.7,3.8,3.7
			C437.5,510.6,435.8,512.3,433.7,512.3z"/>
		<path class="st1" d="M483.3,672.3c-2.1,0-3.8-1.7-3.8-3.7c0-2.1,1.7-3.8,3.7-3.8c2.1,0,3.8,1.7,3.8,3.7S485.3,672.2,483.3,672.3z"
			/>
		<path class="st1" d="M123.6,627.9c-2.1,0-3.8-1.7-3.8-3.7c0-2.1,1.7-3.8,3.7-3.8c2.1,0,3.8,1.7,3.8,3.7S125.6,627.9,123.6,627.9z"
			/>
		<path class="st1" d="M615.4,157.6c-2.1,0-3.8-1.7-3.8-3.7c0-2.1,1.7-3.8,3.7-3.8c2.1,0,3.8,1.7,3.8,3.7
			C619.2,155.9,617.5,157.6,615.4,157.6z"/>
		<path class="st1" d="M634,278.1c-2.1,0-3.8-1.7-3.8-3.7c0-2.1,1.7-3.8,3.7-3.8c2.1,0,3.8,1.7,3.8,3.7
			C637.8,276.4,636.1,278.1,634,278.1z"/>
		<path class="st1" d="M514.5,181.1c-1.4,0-2.5-1.1-2.5-2.5s1.1-2.5,2.5-2.5s2.5,1.1,2.5,2.5S515.8,181.1,514.5,181.1z"/>
		<path class="st1" d="M570.4,258.2c-1.4,0-2.5-1.1-2.5-2.5s1.1-2.5,2.5-2.5s2.5,1.1,2.5,2.5C572.9,257,571.8,258.1,570.4,258.2z"/>
		<path class="st1" d="M698.6,418.6c-1.4,0-2.5-1.1-2.5-2.5s1.1-2.5,2.5-2.5s2.5,1.1,2.5,2.5C701,417.4,699.9,418.5,698.6,418.6z"/>
		<path class="st1" d="M521.5,460.4c-1.4,0-2.5-1.1-2.5-2.5s1.1-2.5,2.5-2.5s2.5,1.1,2.5,2.5S522.9,460.4,521.5,460.4z"/>
		<path class="st1" d="M657.5,655c-1.4,0-2.5-1.1-2.5-2.5s1.1-2.5,2.5-2.5s2.5,1.1,2.5,2.5S658.9,655,657.5,655z"/>
		<path class="st1" d="M715,538.1c-1.4,0-2.5-1.1-2.5-2.5s1.1-2.5,2.5-2.5s2.5,1.1,2.5,2.5C717.5,536.9,716.4,538.1,715,538.1z"/>
		<path class="st1" d="M438.2,257.6c-1.4,0-2.5-1.1-2.5-2.5s1.1-2.5,2.5-2.5s2.5,1.1,2.5,2.5C440.6,256.5,439.5,257.6,438.2,257.6z"
			/>
		<path class="st1" d="M575.1,683.2c-1.4,0-2.5-1.1-2.5-2.5s1.1-2.5,2.5-2.5s2.5,1.1,2.5,2.5C577.6,682.1,576.5,683.2,575.1,683.2z"
			/>
		<path class="st1" d="M326.8,407.9c-1.4,0-2.5-1.1-2.5-2.5s1.1-2.5,2.5-2.5s2.5,1.1,2.5,2.5C329.3,406.7,328.2,407.9,326.8,407.9z"
			/>
		<path class="st1" d="M466.8,655.8c-1.4,0-2.5-1.1-2.5-2.5s1.1-2.5,2.5-2.5s2.5,1.1,2.5,2.5S468.2,655.8,466.8,655.8z"/>
		<path class="st1" d="M206.9,652.5c-1.4,0-2.5-1.1-2.5-2.5s1.1-2.5,2.5-2.5s2.5,1.1,2.5,2.5C209.3,651.4,208.2,652.5,206.9,652.5z"
			/>
		<path class="st1" d="M174.3,685.7c-1.4,0-2.5-1.1-2.5-2.5s1.1-2.5,2.5-2.5s2.5,1.1,2.5,2.5C176.8,684.6,175.7,685.7,174.3,685.7z"
			/>
		<path class="st1" d="M104.3,457.9c-1.4,0-2.5-1.1-2.5-2.5s1.1-2.5,2.5-2.5s2.5,1.1,2.5,2.5S105.7,457.9,104.3,457.9z"/>
		<path class="st1" d="M412.3,713.6c-1.4,0-2.5-1.1-2.5-2.5s1.1-2.5,2.5-2.5s2.5,1.1,2.5,2.5C414.7,712.5,413.6,713.6,412.3,713.6z"
			/>
		<path class="st1" d="M444.6,549.2c-1.4,0-2.5-1.1-2.5-2.5s1.1-2.5,2.5-2.5s2.5,1.1,2.5,2.5C447.1,548,446,549.1,444.6,549.2z"/>
		<path class="st1" d="M192.9,391.2c-1.4,0-2.5-1.1-2.5-2.5s1.1-2.5,2.5-2.5s2.5,1.1,2.5,2.5S194.3,391.2,192.9,391.2z"/>
		<path class="st1" d="M373.7,169.4c-1.4,0-2.5-1.1-2.5-2.5s1.1-2.5,2.5-2.5s2.5,1.1,2.5,2.5S375,169.3,373.7,169.4z"/>
		<path class="st1" d="M158,148.8c-1.4,0-2.5-1.1-2.5-2.5s1.1-2.5,2.5-2.5s2.5,1.1,2.5,2.5S159.4,148.8,158,148.8z"/>
		<path class="st1" d="M199.3,93.8c-1.4,0-2.5-1.1-2.5-2.5s1.1-2.5,2.5-2.5s2.5,1.1,2.5,2.5S200.7,93.8,199.3,93.8z"/>
		<path class="st1" d="M320.4,91.3c-1.4,0-2.5-1.1-2.5-2.5s1.1-2.5,2.5-2.5s2.5,1.1,2.5,2.5C322.9,90.2,321.8,91.3,320.4,91.3z"/>
		<path class="st1" d="M297.9,276.8c-1.4,0-2.5-1.1-2.5-2.5s1.1-2.5,2.5-2.5s2.5,1.1,2.5,2.5C300.4,275.7,299.3,276.8,297.9,276.8z"
			/>
		<path class="st1" d="M652.6,391.2c-1.4,0-2.5-1.1-2.5-2.5s1.1-2.5,2.5-2.5s2.5,1.1,2.5,2.5C655,390.1,653.9,391.2,652.6,391.2z"/>
		<path class="st1" d="M642.6,477.1c-1.4,0-2.5-1.1-2.5-2.5s1.1-2.5,2.5-2.5s2.5,1.1,2.5,2.5S644,477.1,642.6,477.1z"/>
		<path class="st1" d="M541.9,391.2c-1.4,0-2.5-1.1-2.5-2.5s1.1-2.5,2.5-2.5s2.5,1.1,2.5,2.5C544.3,390.1,543.2,391.2,541.9,391.2z"
			/>
		<path class="st1" d="M174.3,546.7c-1.4,0-2.5-1.1-2.5-2.5s1.1-2.5,2.5-2.5s2.5,1.1,2.5,2.5C176.8,545.5,175.7,546.7,174.3,546.7z"
			/>
		<path class="st1" d="M86.7,572.5c-1.4,0-2.5-1.1-2.5-2.5s1.1-2.5,2.5-2.5s2.5,1.1,2.5,2.5S88,572.5,86.7,572.5z"/>
		<path class="st1" d="M85,310.5c-1.4,0-2.5-1.1-2.5-2.5s1.1-2.5,2.5-2.5s2.5,1.1,2.5,2.5C87.5,309.3,86.4,310.5,85,310.5z"/>
		<path class="st1" d="M204.4,243c-1.4,0-2.5-1.1-2.5-2.5s1.1-2.5,2.5-2.5s2.5,1.1,2.5,2.5C206.8,241.9,205.7,243,204.4,243z"/>
		<path class="st1" d="M337.1,630.4c-1.4,0-2.5-1.1-2.5-2.5s1.1-2.5,2.5-2.5s2.5,1.1,2.5,2.5C339.6,629.3,338.5,630.4,337.1,630.4z"
			/>
		<path class="st1" d="M314.1,508.5c-1.4,0-2.5-1.1-2.5-2.5s1.1-2.5,2.5-2.5s2.5,1.1,2.5,2.5C316.5,507.4,315.4,508.5,314.1,508.5z"
			/>
		<path class="st1" d="M449.5,104.5c-1.4,0-2.5-1.1-2.5-2.5s1.1-2.5,2.5-2.5s2.5,1.1,2.5,2.5C452,103.3,450.9,104.5,449.5,104.5z"/>
		<path class="st1" d="M579.6,91.3c-1.4,0-2.5-1.1-2.5-2.5s1.1-2.5,2.5-2.5s2.5,1.1,2.5,2.5C582.1,90.2,581,91.3,579.6,91.3z"/>
		<path class="st1" d="M642.6,134.2c-1.4,0-2.5-1.1-2.5-2.5s1.1-2.5,2.5-2.5s2.5,1.1,2.5,2.5C645.1,133,644,134.2,642.6,134.2z"/>
		<path class="st1" d="M713.6,304c-1.4,0-2.5-1.1-2.5-2.5s1.1-2.5,2.5-2.5s2.5,1.1,2.5,2.5C716,302.9,714.9,304,713.6,304z"/>
		<path class="st1" d="M655.1,255.7c-1.4,0-2.5-1.1-2.5-2.5s1.1-2.5,2.5-2.5s2.5,1.1,2.5,2.5C657.5,254.6,656.4,255.7,655.1,255.7z"
			/>
		<path class="st1" d="M541.9,711.2c-3,0-5.4-2.4-5.4-5.4s2.4-5.4,5.4-5.4s5.4,2.4,5.4,5.4C547.3,708.7,544.9,711.1,541.9,711.2z"/>
		<path class="st1" d="M591.3,552.7c-3,0-5.4-2.4-5.4-5.4s2.4-5.4,5.4-5.4s5.4,2.4,5.4,5.4S594.3,552.7,591.3,552.7z"/>
		<path class="st1" d="M195.4,583c-3,0-5.4-2.4-5.4-5.4s2.4-5.4,5.4-5.4s5.4,2.4,5.4,5.4C200.8,580.5,198.4,583,195.4,583z"/>
		<path class="st1" d="M96.4,194.9c-3,0-5.4-2.4-5.4-5.4s2.4-5.4,5.4-5.4s5.4,2.4,5.4,5.4C101.8,192.4,99.4,194.9,96.4,194.9z"/>
		<path class="st1" d="M478.2,125.9c-3,0-5.4-2.4-5.4-5.4s2.4-5.4,5.4-5.4s5.4,2.4,5.4,5.4C483.6,123.4,481.2,125.9,478.2,125.9z"/>
		<path class="st1" d="M317.9,304.4c-3,0-5.4-2.4-5.4-5.4s2.4-5.4,5.4-5.4s5.4,2.4,5.4,5.4S320.9,304.4,317.9,304.4z"/>
		<path class="st1" d="M424.5,368c-3,0-5.4-2.4-5.4-5.4s2.4-5.4,5.4-5.4s5.4,2.4,5.4,5.4S427.5,368,424.5,368z"/>
		<path class="st1" d="M693.2,208c-3,0-5.4-2.4-5.4-5.4s2.4-5.4,5.4-5.4s5.4,2.4,5.4,5.4C698.6,205.6,696.2,208,693.2,208z"/>
		<path class="st1" d="M629.9,414.6c-3,0-5.4-2.4-5.4-5.4s2.4-5.4,5.4-5.4s5.4,2.4,5.4,5.4C635.3,412.1,632.9,414.5,629.9,414.6z"/>
		<path class="st1" d="M616.1,603.1c-5.4,0-9.9-4.3-9.9-9.8c0-5.4,4.3-9.9,9.8-9.9c5.4,0,9.9,4.3,9.9,9.8
			C625.9,598.6,621.5,603,616.1,603.1z"/>
		<path class="st1" d="M678.9,368c-5.4,0-9.9-4.3-9.9-9.8c0-5.4,4.3-9.9,9.8-9.9c5.4,0,9.9,4.3,9.9,9.8
			C688.7,363.5,684.4,368,678.9,368z"/>
		<path class="st1" d="M159.8,435.8c-5.4,0-9.9-4.3-9.9-9.8c0-5.4,4.3-9.9,9.8-9.9c5.4,0,9.9,4.3,9.9,9.8
			C169.6,431.3,165.3,435.7,159.8,435.8z"/>
		<path class="st1" d="M288.1,121.7c-5.4,0-9.9-4.3-9.9-9.8c0-5.4,4.3-9.9,9.8-9.9c5.4,0,9.9,4.3,9.9,9.8S293.6,121.7,288.1,121.7z"
			/>
		<path class="st1" d="M564.3,233.6l6.7-15.2l15-6c0.2-0.1,0.3-0.3,0.3-0.5s-0.1-0.4-0.3-0.5l-15.1-6.4l-6-15.3
			c-0.1-0.2-0.3-0.3-0.5-0.3s-0.4,0.1-0.5,0.3l-6.3,15.8l-15.4,5.4c-0.2,0.1-0.3,0.3-0.3,0.5l0,0c0,0.2,0.1,0.4,0.3,0.5l14.2,6
			l6.9,15.7c0.1,0.2,0.3,0.3,0.5,0.3C564,233.9,564.2,233.8,564.3,233.6z"/>
		<path class="st1" d="M142.9,320.9l6.7-15.2l15-6c0.2-0.1,0.3-0.3,0.3-0.5s-0.1-0.4-0.3-0.5l-15.1-6.4l-6-15.3
			c-0.1-0.2-0.3-0.3-0.5-0.3s-0.4,0.1-0.5,0.3l-6.3,15.8l-15.4,5.4c-0.2,0.1-0.3,0.3-0.3,0.5l0,0c0,0.2,0.1,0.4,0.3,0.5l14.2,6
			l6.9,15.7c0.1,0.2,0.3,0.3,0.5,0.3C142.6,321.2,142.8,321.1,142.9,320.9z"/>
		<path class="st1" d="M288.3,642.3l6.7-15.2l15-6c0.2-0.1,0.3-0.3,0.3-0.5s-0.1-0.4-0.3-0.5l-15.1-6.4l-6-15.3
			c-0.1-0.2-0.3-0.3-0.5-0.3s-0.4,0.1-0.5,0.3l-6.3,15.8l-15.4,5.4c-0.2,0.1-0.3,0.3-0.3,0.5l0,0c0,0.2,0.1,0.4,0.3,0.5l14.2,6
			l6.9,15.7c0.1,0.2,0.3,0.3,0.5,0.3C288,642.6,288.2,642.5,288.3,642.3z"/>
	</g>
</g>
</svg>
