<svg width="32" height="32" viewBox="0 0 32 32" fill="none" xmlns="http://www.w3.org/2000/svg">
<path d="M6.68786 11.1005L8.00066 13.6331L9.31345 11.1005H12.0007L9.21337 15.7041L11.9385 20.2327H9.25119L8.00124 17.7878L6.72627 20.2327H4.03899L6.77631 15.7041L4 11.1005H6.68786Z" fill="#E6DAFE"/>
<path d="M15.3503 11.1005H18.2127L20.9879 20.2321H18.5002L17.9625 18.6351H15.4998L14.9749 20.2321H12.4873L15.3503 11.1005ZM17.4754 16.5769L16.8126 14.132L16.0503 16.5769H17.4754Z" fill="#E6DAFE"/>
<path d="M24.1128 11.0006C26.1006 11.0006 26.2252 11.0006 27.9127 11.4623V13.3212C27.8376 13.3212 26.4504 13.0466 24.8629 13.0466C23.7002 13.0466 23.5001 13.6081 23.5001 15.6413C23.5001 17.6745 23.5751 18.0741 24.6749 18.0741C25.4501 18.0741 25.5752 17.5003 25.5752 17.5003V16.5647H24.9624V15.0675C25.5251 14.7679 26.3253 14.7557 27.1498 14.7557C27.4123 14.7557 27.6997 14.7679 28 14.7929V20.2321H26.2874L25.6002 19.6206C25.2505 20.0823 25.0503 20.2321 24.05 20.2943C21.4622 20.4563 21.0746 18.1862 21.0746 15.6158C21.0746 12.834 21.6246 11 24.1122 11L24.1128 11.0006Z" fill="#E6DAFE"/>
</svg>
