<svg xmlns="http://www.w3.org/2000/svg" width="33" height="32" viewBox="0 0 33 32" fill="none">
  <path
    d="M27.9533 27.1369C24.9996 30.0906 20.9936 31.75 16.8164 31.75C12.6392 31.75 8.63317 30.0906 5.67947 27.1369C2.72578 24.1832 1.06641 20.1772 1.06641 16C1.06641 11.8228 2.72578 7.81677 5.67947 4.86307C8.63317 1.90937 12.6392 0.25 16.8164 0.25C20.9936 0.25 24.9996 1.90937 27.9533 4.86307C30.907 7.81677 32.5664 11.8228 32.5664 16C32.5664 20.1772 30.907 24.1832 27.9533 27.1369Z"
    fill="url(#paint0_linear_3930_58096)" stroke="white" stroke-width="0.5" />
  <path
    d="M18.9825 17.0721L17.9144 18.1408L25.2484 25.4794L26.3164 24.4107L18.9825 17.0721ZM8.38272 6.5L7.31641 7.56871L14.6503 14.9073L15.7167 13.8386L8.38272 6.5ZM25.2347 6.51201L17.9093 13.8592L18.9756 14.9244L26.3044 7.58243L25.2364 6.51544L25.2347 6.51201ZM14.6692 17.0893L7.34041 24.433L8.40844 25.5L15.7372 18.158L14.6692 17.0893Z"
    fill="white" />
  <defs>
    <linearGradient id="paint0_linear_3930_58096" x1="16.8164" y1="0" x2="16.8164" y2="32"
      gradientUnits="userSpaceOnUse">
      <stop stop-color="#6CD2FF" />
      <stop offset="1" stop-color="#0089C6" />
    </linearGradient>
  </defs>
</svg>
