<svg width="43" height="40" viewBox="0 0 43 40" fill="none" xmlns="http://www.w3.org/2000/svg">
  <circle cx="22" cy="20" r="20" fill="url(#paint0_linear_7312_2152)" />
  <g filter="url(#filter0_d_7312_2152)">
    <path fill-rule="evenodd" clip-rule="evenodd"
      d="M36.6096 11.8763C36.7011 11.9924 36.8255 13.8709 36.8857 16.0509C36.9459 18.2309 37.1029 21.4567 37.2346 23.2193C37.5059 26.8506 37.486 26.9398 36.2535 27.6047L35.6281 27.9421L35.3204 27.5383C35.1512 27.3163 34.8854 26.7307 34.7297 26.2368C34.5741 25.7431 34.384 25.3004 34.3074 25.2531C34.2308 25.2057 34.0741 25.7534 33.9594 26.4701C33.8447 27.1869 33.6852 27.8872 33.6047 28.0264C33.3581 28.4533 33.4236 27.0017 33.7144 25.5955C33.8606 24.8881 33.948 24.2158 33.9085 24.1016C33.8312 23.8781 33.4484 25.4663 33.4484 26.0106C33.4484 26.3537 33.1817 26.4674 33.0815 26.167C33.0498 26.0719 33.094 25.2715 33.1795 24.3884C33.3542 22.5824 33.2782 22.3102 32.1279 20.6264L31.5087 19.72L31.392 20.3734C31.3277 20.7326 31.2707 21.5812 31.2655 22.2589C31.2562 23.4283 31.2277 23.517 30.7075 23.994C29.839 24.7905 28.8943 24.8728 28.8943 24.1522C28.8943 23.909 28.7843 23.81 28.5148 23.811C28.306 23.8119 27.6195 23.6803 26.9889 23.5187C25.7173 23.1928 25.5287 23.2753 25.5235 24.161C25.5187 24.973 25.2689 24.8556 25.076 23.9508L24.884 23.0507L24.8651 24.6952C24.8464 26.3181 24.6509 26.839 24.4457 25.8126C24.3876 25.5227 24.3402 24.7637 24.3402 24.1259V22.9663H23.4067C22.5358 22.9663 22.4847 22.9883 22.6477 23.2925C22.9189 23.7994 22.8706 23.9333 22.1261 24.7411C21.247 25.6947 20.7338 25.723 19.1125 24.9065C16.967 23.826 14.2336 22.9663 12.9441 22.9663C12.5481 22.9663 12.5334 23.0085 12.5334 24.147C12.5334 25.7129 12.0454 25.7397 12.0156 24.1753C12.009 23.8351 11.9419 23.4049 11.8662 23.2193C11.7398 22.9091 11.7189 22.9193 11.6067 23.3458C11.4529 23.9311 11.253 23.939 11.1092 23.3656C11.0004 22.9324 10.9717 22.9237 9.93236 23.0071C9.23002 23.0635 8.38651 23.3003 7.45731 23.7021C6.27579 24.2128 6.01081 24.2749 5.82055 24.0844C5.34288 23.6068 6.02801 22.7567 10.1041 18.7693C12.3214 16.6001 14.0567 14.7963 13.9598 14.7609C13.863 14.7257 12.7245 15.0583 11.4298 15.5004L9.07569 16.3039L9.0261 17.6256C8.9836 18.7606 8.94194 18.9186 8.73093 18.7435C8.59212 18.6282 8.48535 18.2512 8.48535 17.8757C8.48535 17.505 8.41535 17.2549 8.32697 17.3095C8.23994 17.3633 8.09606 17.2775 8.00717 17.1187C7.8552 16.847 7.78723 16.8479 6.84522 17.1333C5.57851 17.5166 5.2125 17.4537 5.142 16.8404C5.06913 16.2074 5.74043 15.3477 6.57113 15.0099C7.79533 14.5123 13.9668 12.4701 14.9791 12.2277C15.5357 12.0944 16.3516 11.9418 16.7923 11.8883L17.5935 11.7913V12.3299C17.5935 12.6261 17.5073 13.0341 17.4019 13.2368C17.0617 13.8906 15.7204 15.4039 13.2255 17.9484L10.7862 20.4363L12.7139 20.4422C13.7743 20.4454 15.249 20.5577 15.9911 20.6918C16.7333 20.8259 17.3621 20.9372 17.3885 20.9389C17.5636 20.9511 16.9203 20.1013 16.0508 19.1718C14.8809 17.9211 14.8465 17.6101 15.7816 16.7337C16.2085 16.3336 16.4818 16.2209 17.0278 16.2204C17.6193 16.2197 17.8089 16.3127 18.2567 16.8227C18.548 17.1543 18.986 17.7276 19.2302 18.0967L19.6742 18.7675L19.8852 18.2659C20.0011 17.9899 20.2573 17.6779 20.4544 17.5725C20.7817 17.3972 20.8027 17.2898 20.6987 16.3363C20.5653 15.1155 20.279 14.474 19.6983 14.0933C19.1778 13.7523 19.1672 13.3336 19.6642 12.7558C20.1696 12.1685 20.5427 12.1874 22.5831 12.9037C23.7044 13.2974 24.8963 13.5718 26.0829 13.7098C28.0967 13.9439 28.1299 13.9759 27.545 15.1232C27.285 15.6329 27.2049 16.1349 27.1958 17.3093C27.1774 19.6597 26.9016 19.8684 26.8527 17.5689C26.83 16.5021 26.7819 15.9708 26.7458 16.3882C26.6475 17.5284 26.3643 17.6413 26.3643 16.5404V15.6132L24.784 15.4135C23.915 15.3039 23.0801 15.1664 22.9286 15.1084C22.6949 15.0186 22.6536 15.1416 22.6536 15.9264V16.8501L23.2861 16.9546C23.634 17.0121 24.1559 17.06 24.4462 17.0611C25.3894 17.0644 25.5962 17.8179 24.8414 18.5012C24.6019 18.7177 24.2694 18.7946 23.6649 18.7732L22.8222 18.7434V21.3218L23.3493 21.2164C23.6393 21.1584 24.0852 21.111 24.3406 21.111C24.7897 21.111 24.8021 21.0868 24.7208 20.3648C24.6482 19.7221 24.6985 19.5569 25.0824 19.1728C25.6866 18.5686 26.2147 18.658 26.4051 19.3968C26.562 20.0053 27.7828 21.3009 28.5953 21.721L29.0923 21.9781L29.0355 18.3659C28.9737 14.4394 28.977 14.4231 29.9377 13.9264C30.5621 13.6033 30.9661 13.8186 31.3047 14.6545C31.4468 15.005 32.2591 16.2786 33.1097 17.4846L34.6564 19.6773L34.6005 16.9081C34.5597 14.8835 34.488 14.1201 34.3339 14.0689C33.6923 13.8555 34.4648 12.4608 35.51 11.9457C36.1811 11.6149 36.3926 11.6016 36.6096 11.8763ZM20.5452 19.9768C20.2205 19.4948 19.9548 19.0593 19.9548 19.0092C19.9548 18.9593 20.2205 18.9183 20.5452 18.9183H21.1355V20.8534L20.5452 19.9768Z"
      fill="white" />
    <path fill-rule="evenodd" clip-rule="evenodd"
      d="M20.5452 19.9768C20.2205 19.4948 19.9548 19.0593 19.9548 19.0092C19.9548 18.9593 20.2205 18.9183 20.5452 18.9183H21.1355V20.8534L20.5452 19.9768Z"
      fill="#434448" />
    <path fill-rule="evenodd" clip-rule="evenodd"
      d="M15.4851 11.1516C15.2996 11.2275 14.7303 11.383 14.2201 11.497C13.7099 11.6112 12.875 11.8372 12.3647 11.9993C11.8545 12.1614 10.4124 12.6101 9.16003 12.9961C7.90766 13.3824 6.47043 13.9051 5.96595 14.1578C4.41436 14.9352 3.74424 16.1196 4.10924 17.4392C4.29022 18.0935 4.73365 18.4018 5.85108 18.6504C6.94169 18.8931 7.12993 19.33 6.49472 20.145C6.24644 20.4636 5.81465 20.8983 5.53533 21.1108C5.25618 21.3233 4.79994 21.8467 4.52163 22.2739C3.91459 23.2058 3.82419 24.4061 4.31991 24.9537C4.48722 25.1386 4.63582 25.4447 4.64999 25.6338C4.66939 25.8922 4.80365 25.9847 5.18906 26.0051C6.24509 26.0611 7.37315 25.9966 7.46389 25.875C7.61553 25.6718 8.68978 25.2884 9.33848 25.2059C9.88446 25.1366 9.99595 25.1997 10.5726 25.9034C10.9214 26.3289 11.1446 26.6824 11.0689 26.6888C10.6263 26.727 11.7349 26.9926 12.3776 27.0026C12.9758 27.0117 13.2317 26.9267 13.5161 26.6241C13.7178 26.4094 13.8828 26.1553 13.8828 26.0599C13.8828 25.9642 14.0315 25.7512 14.2135 25.5868C14.6146 25.2236 15.669 25.3306 16.727 25.8418C17.1018 26.0229 17.488 26.171 17.5854 26.171C17.6825 26.171 17.7621 26.2596 17.7621 26.3679C17.7621 26.476 17.8105 26.5163 17.8696 26.4571C17.9288 26.3981 18.2116 26.5166 18.4982 26.7207C19.1292 27.1701 19.5618 27.2633 20.8825 27.2352C21.4391 27.2232 22.1602 27.2094 22.4849 27.2045C22.8922 27.1982 23.1587 27.3047 23.3448 27.5475C23.9822 28.3801 25.8188 27.98 26.3204 26.8995C26.4837 26.5477 26.7291 26.126 26.8656 25.9626C27.1742 25.5928 27.9354 25.5756 28.2309 25.9315C28.4036 26.1398 28.7218 26.1869 29.685 26.1467C31.1231 26.0867 31.296 26.2237 31.5507 27.625C31.719 28.5513 32.7158 30.0879 33.0689 29.9654C33.1849 29.9253 33.2809 29.9848 33.2822 30.0978C33.2839 30.2262 33.3315 30.24 33.4087 30.1348C33.5604 29.9283 33.7165 29.8927 35.2143 29.7219C36.9246 29.5267 37.8354 29.0278 38.5086 27.9171C39.0315 27.0543 39.0529 26.953 38.9529 25.8229C38.895 25.1698 38.8132 24.4685 38.771 24.2647C38.7289 24.0608 38.6558 23.4766 38.6086 22.9663C38.5614 22.4561 38.4049 21.0821 38.2607 19.9132C38.1164 18.7442 37.9329 16.6144 37.8526 15.1804C37.745 13.2559 37.6295 12.421 37.4116 11.9927C37.2127 11.6021 37.1409 11.4367 37.0154 11.3445C36.9039 11.2626 36.7501 11.2384 36.4272 11.1656C35.2766 10.9062 33.9164 11.851 33.3473 13.3053C32.9673 14.2767 32.6271 14.3389 31.6741 13.6114C30.9053 13.0246 30.8617 13.0135 29.5965 13.08C27.946 13.1667 24.7688 12.6669 22.6536 11.9882C21.2558 11.5395 20.9058 11.4882 19.9129 11.5867C18.944 11.6829 18.6731 11.647 18.0944 11.3452C17.3941 10.9802 16.1331 10.8866 15.4851 11.1516ZM36.8857 16.0509C36.8255 13.8709 36.7011 11.9924 36.6096 11.8763C36.3926 11.6016 36.1811 11.6149 35.51 11.9457C34.4648 12.4608 33.6923 13.8555 34.3339 14.0689C34.488 14.1201 34.5597 14.8835 34.6005 16.9081L34.6564 19.6773L33.1097 17.4846C32.2591 16.2786 31.4468 15.005 31.3047 14.6545C30.9661 13.8186 30.5621 13.6033 29.9377 13.9264C28.977 14.4231 28.9737 14.4394 29.0355 18.3659L29.0923 21.9781L28.5953 21.721C27.7828 21.3009 26.562 20.0053 26.4051 19.3968C26.2147 18.658 25.6866 18.5686 25.0824 19.1728C24.6985 19.5569 24.6482 19.7221 24.7208 20.3648C24.8021 21.0868 24.7897 21.111 24.3406 21.111C24.0852 21.111 23.6393 21.1584 23.3493 21.2164L22.8222 21.3218V18.7434L23.6649 18.7732C24.2694 18.7946 24.6019 18.7177 24.8414 18.5012C25.5962 17.8179 25.3894 17.0644 24.4462 17.0611C24.1559 17.06 23.634 17.0121 23.2861 16.9546L22.6536 16.8501V15.9264C22.6536 15.1416 22.6949 15.0186 22.9286 15.1084C23.0801 15.1664 23.915 15.3039 24.784 15.4135L26.3643 15.6132V16.5404C26.3643 17.6413 26.6475 17.5284 26.7458 16.3882C26.7819 15.9708 26.83 16.5021 26.8527 17.5689C26.9016 19.8684 27.1774 19.6597 27.1958 17.3093C27.2049 16.1349 27.285 15.6329 27.545 15.1232C28.1299 13.9759 28.0967 13.9439 26.0829 13.7098C24.8963 13.5718 23.7044 13.2974 22.5831 12.9037C20.5427 12.1874 20.1696 12.1685 19.6642 12.7558C19.1672 13.3336 19.1778 13.7523 19.6983 14.0933C20.279 14.474 20.5653 15.1155 20.6987 16.3363C20.8027 17.2898 20.7817 17.3972 20.4544 17.5725C20.2573 17.6779 20.0011 17.9899 19.8852 18.2659L19.6742 18.7675L19.2302 18.0967C18.986 17.7276 18.548 17.1543 18.2567 16.8227C17.8089 16.3127 17.6193 16.2197 17.0278 16.2204C16.4818 16.2209 16.2085 16.3336 15.7816 16.7337C14.8465 17.6101 14.8809 17.9211 16.0508 19.1718C16.9203 20.1013 17.5636 20.9511 17.3885 20.9389C17.3621 20.9372 16.7333 20.8259 15.9911 20.6918C15.249 20.5577 13.7743 20.4454 12.7139 20.4422L10.7862 20.4363L13.2255 17.9484C15.7204 15.4039 17.0617 13.8906 17.4019 13.2368C17.5073 13.0341 17.5935 12.6261 17.5935 12.3299V11.7913L16.7923 11.8883C16.3516 11.9418 15.5357 12.0944 14.9791 12.2277C13.9668 12.4701 7.79533 14.5123 6.57113 15.0099C5.74043 15.3477 5.06913 16.2074 5.142 16.8404C5.2125 17.4537 5.57851 17.5166 6.84522 17.1333C7.78723 16.8479 7.8552 16.847 8.00717 17.1187C8.09606 17.2775 8.23994 17.3633 8.32697 17.3095C8.41535 17.2549 8.48535 17.505 8.48535 17.8757C8.48535 18.2512 8.59212 18.6282 8.73093 18.7435C8.94194 18.9186 8.9836 18.7606 9.0261 17.6256L9.07569 16.3039L11.4298 15.5004C12.7245 15.0583 13.863 14.7257 13.9598 14.7609C14.0567 14.7963 12.3214 16.6001 10.1041 18.7693C6.02801 22.7567 5.34288 23.6068 5.82055 24.0844C6.01081 24.2749 6.27579 24.2128 7.45731 23.7021C8.38651 23.3003 9.23002 23.0635 9.93236 23.0071C10.9717 22.9237 11.0004 22.9324 11.1092 23.3656C11.253 23.939 11.4529 23.9311 11.6067 23.3458C11.7189 22.9193 11.7398 22.9091 11.8662 23.2193C11.9419 23.4049 12.009 23.8351 12.0156 24.1753C12.0454 25.7397 12.5334 25.7129 12.5334 24.147C12.5334 23.0085 12.5481 22.9663 12.9441 22.9663C14.2336 22.9663 16.967 23.826 19.1125 24.9065C20.7338 25.723 21.247 25.6947 22.1261 24.7411C22.8706 23.9333 22.9189 23.7994 22.6477 23.2925C22.4847 22.9883 22.5358 22.9663 23.4067 22.9663H24.3402V24.1259C24.3402 24.7637 24.3876 25.5227 24.4457 25.8126C24.6509 26.839 24.8464 26.3181 24.8651 24.6952L24.884 23.0507L25.076 23.9508C25.2689 24.8556 25.5187 24.973 25.5235 24.161C25.5287 23.2753 25.7173 23.1928 26.9889 23.5187C27.6195 23.6803 28.306 23.8119 28.5148 23.811C28.7843 23.81 28.8943 23.909 28.8943 24.1522C28.8943 24.8728 29.839 24.7905 30.7075 23.994C31.2277 23.517 31.2562 23.4283 31.2655 22.2589C31.2707 21.5812 31.3277 20.7326 31.392 20.3734L31.5087 19.72L32.1279 20.6264C33.2782 22.3102 33.3542 22.5824 33.1795 24.3884C33.094 25.2715 33.0498 26.0719 33.0815 26.167C33.1817 26.4674 33.4484 26.3537 33.4484 26.0106C33.4484 25.4663 33.8312 23.8781 33.9085 24.1016C33.948 24.2158 33.8606 24.8881 33.7144 25.5955C33.4236 27.0017 33.3581 28.4533 33.6047 28.0264C33.6852 27.8872 33.8447 27.1869 33.9594 26.4701C34.0741 25.7534 34.2308 25.2057 34.3074 25.2531C34.384 25.3004 34.5741 25.7431 34.7297 26.2368C34.8854 26.7307 35.1512 27.3163 35.3204 27.5383L35.6281 27.9421L36.2535 27.6047C37.486 26.9398 37.5059 26.8506 37.2346 23.2193C37.1029 21.4567 36.9459 18.2309 36.8857 16.0509Z"
      fill="#434448" />
  </g>
  <defs>
    <filter id="filter0_d_7312_2152" x="0" y="11" width="43" height="27.2051" filterUnits="userSpaceOnUse"
      color-interpolation-filters="sRGB">
      <feFlood flood-opacity="0" result="BackgroundImageFix" />
      <feColorMatrix in="SourceAlpha" type="matrix" values="0 0 0 0 0 0 0 0 0 0 0 0 0 0 0 0 0 0 127 0"
        result="hardAlpha" />
      <feOffset dy="4" />
      <feGaussianBlur stdDeviation="2" />
      <feComposite in2="hardAlpha" operator="out" />
      <feColorMatrix type="matrix" values="0 0 0 0 0 0 0 0 0 0 0 0 0 0 0 0 0 0 0.25 0" />
      <feBlend mode="normal" in2="BackgroundImageFix" result="effect1_dropShadow_7312_2152" />
      <feBlend mode="normal" in="SourceGraphic" in2="effect1_dropShadow_7312_2152" result="shape" />
    </filter>
    <linearGradient id="paint0_linear_7312_2152" x1="23.1563" y1="23.5188" x2="-7.55625" y2="-15.0187"
      gradientUnits="userSpaceOnUse">
      <stop stop-color="#02A1F8" />
      <stop offset="1" stop-color="#03E4FE" stop-opacity="0" />
    </linearGradient>
  </defs>
</svg>
